<svg height="100" viewBox="0 0 300 100" width="300" xmlns="http://www.w3.org/2000/svg"><g fill="none" fill-rule="evenodd"><g transform="translate(98.895812 4.072446)"><path d="m57.2342109 44.6225887c.7245914 3.3535393-1.4066431 6.6574491-4.7601824 7.3834585-3.3535394.7245914-6.6574492-1.4066432-7.3834586-4.7601825-.7231734-3.3535394 1.4066432-6.6574492 4.7601825-7.3834585 3.3535394-.7245914 6.6574492 1.4066431 7.3834585 4.7601825" fill="#675a5e"/><g stroke="#675a5e" stroke-linecap="round" stroke-width="5"><path d="m68.8829745 39.7163535c11.7310068 24.0660761 14.1515107 46.7453608 5.2607319 51.2786654-9.1687042 4.6765212-26.8878703-11.708319-39.5802723-36.5968276-12.692402-24.8870905-15.5496459-48.85107154-6.3823596-53.52617482 3.9916335-2.03764738 9.6054442-.07798928 15.7183863 4.83249984"/><path d="m10.833421 55.0802431c-6.85454936-3.5591475-10.84618288-7.8485583-10.615051-12.2797678.53458112-10.2775701 23.5853785-17.4313147 51.4842735-15.9807139 27.898895 1.4520187 50.0818845 10.9596218 49.5473035 21.2371919-.231132 4.4312095-4.6467438 8.2824623-11.8316842 11.1113464"/><path d="m40.8777304 83.3038572c-7.4912255 5.4082025-14.1586006 7.3834585-18.3289005 4.6779392-8.6327051-5.6024668-3.3039098-29.1410517 11.9025833-52.5761235 15.206493-23.4350718 34.5322384-37.8942857 43.1635255-32.29040092 4.0129033 2.60342421 5.0097482 9.08220702 3.3989149 17.62416092"/></g></g><path d="m48.72 83.48c0 1.68 1.32 3 3 3s3-1.32 3-3v-18h11.4c1.44 0 2.76-1.2 2.76-2.64s-1.32-2.76-2.76-2.76h-11.4v-55.68c0-2.04-1.44-3.48-3.48-3.48-1.44 0-2.28.6-3 1.56l-46.32 57.24c-.72.96-.96 1.8-.96 2.52 0 1.92 1.32 3.24 3.24 3.24h44.52zm-40.08-23.4 40.08-49.68v49.68zm227.76 23.4c0 1.68 1.32 3 3 3s3-1.32 3-3v-18h11.4c1.44 0 2.76-1.2 2.76-2.64s-1.32-2.76-2.76-2.76h-11.4v-55.68c0-2.04-1.44-3.48-3.48-3.48-1.44 0-2.28.6-3 1.56l-46.32 57.24c-.72.96-.96 1.8-.96 2.52 0 1.92 1.32 3.24 3.24 3.24h44.52zm-40.08-23.4 40.08-49.68v49.68z" fill="#675a5e" transform="translate(20 6)"/></g></svg>