<svg height="180" viewBox="0 0 1000 180" width="1000" xmlns="http://www.w3.org/2000/svg"><g fill="none" fill-rule="evenodd" transform="translate(84 -108.5)"><path d="m542.213438 119.158554c18.148368 91.105999-107.335448 61.761917-232.887288 88.220957-176.673263 38.415918-213.953425-74.928393-213.953425-74.928393-28.8881818-73.3930181-70.5115612-92.9217234-70.5115612-92.9217234-57.6186195-39.41496364 4.3432177-38.60521119 4.3432177-38.60521119 63.7706349 4.47992917 97.3490715 65.45323739 97.3490715 65.45323739 56.640606 97.0756482 148.563284 69.0077352 184.802336 52.7811372 69.614286-31.1708772 212.70928-91.1060037 230.857649-.000004zm-233.395877 34.489412c.91024 5.133329-4.371268 10.414836-11.91779 11.822532-7.419513 1.36536-14.288648-1.820479-15.23064-6.911471-.920824-5.270923 4.455941-10.552431 11.86487-11.91779 7.546522-1.312439 14.320399 1.778142 15.28356 7.006729zm-48.676658 8.276831c.179931 5.270923-5.958896 9.642191-13.558339 9.737449-7.64178.179931-13.822943-4.096079-13.907617-9.282329 0-5.323844 6.001232-9.642191 13.643012-9.779785 7.58886-.148179 13.822944 4.096079 13.822944 9.324665zm-52.307034-3.82089c-1.555875 4.995734-8.731951 7.271334-15.971532 5.143913-7.228997-2.190926-11.960127-8.054563-10.49951-13.103219 1.502954-5.048655 8.721367-7.408928 16.013869-5.143913 7.218413 2.180342 11.960127 8.001643 10.457173 13.103219zm-47.628824-20.649741c-3.503365 3.863226-10.965214 2.815392-16.426653-2.455531-5.588448-5.143913-7.144323-12.468168-3.630374-16.331395 3.545701-3.863227 11.049887-2.78364 16.553662 2.455531 5.546112 5.143913 7.239581 12.49992 3.503365 16.331395zm-34.525606-35.57344c-3.916148 2.730719-10.319578.179931-14.278063-5.5037755-3.916148-5.6837063-3.916148-12.5105045.084674-15.2412238 3.969068-2.7307192 10.277241-.2646045 14.288647 5.3661809 3.905563 5.7789641 3.905563 12.595178-.095258 15.3788184zm-25.20094-36.8012052c-3.0482448 2.8153928-9.0071399 1.502954-13.0502979-2.9635713-4.1807523-4.4559411-4.9639819-10.4148362-1.8734004-13.2831499 3.1435024-2.8153927 8.9224664-1.4923698 13.113803 2.9635713 4.1807523 4.5088621 4.9957343 10.4148363 1.8098953 13.2831499zm-25.8889121-28.8842359c-1.4076964 3.1858391-6.4034308 4.1384156-10.9546296 1.9580739-4.6358723-2.0956683-7.2395813-6.4245992-5.7366273-9.6104384 1.3759438-3.2599284 6.3822625-4.1701681 11.0075505-1.9898264 4.6464564 2.0850841 7.2925022 6.4563517 5.6837064 9.6421909z" fill="#c98c81" transform="matrix(.70710678 .70710678 .70710678 -.70710678 480.12315028503 153.21076071497)"/><g transform="matrix(1 0 0 -1 0 187)"><path d="m69 8.5v-8h-69v48h69v-25.2974918l19.5-14.7025082z" stroke="#79a69f" stroke-linecap="round" stroke-linejoin="round" stroke-width="2"/><path d="m20.5996094 17.7402344c1.0371145-.4687524 1.9658162-.703125 2.7861328-.703125 1.1074274 0 1.9628876.2490209 2.5664062.7470703.6035187.4980494.9052735 1.2333936.9052735 2.2060547 0 1.0078175-.6533138 2.0537055-1.959961 3.1376953-.5683622.4687523-.9155267.7807609-1.0415039.9360351-.1259772.1552743-.2270504.3442372-.3032226.5668946-.0761723.2226573-.1142578.5009749-.1142578.8349609v.4833984h-1.2041016v-.5009765c0-1.0195364.3251921-1.8134737.9755859-2.381836l1.1601563-1.0195312c.3750019-.3164078.6503897-.6372054.8261719-.9624023.1757821-.325197.2636718-.6723615.2636718-1.041504 0-.609378-.1933574-1.0766585-.5800781-1.4018554-.3867207-.325197-.9140591-.487793-1.5820312-.487793-.6035187 0-1.3652298.2167947-2.2851563.6503906zm2.390625 9.9228515c.3105484 0 .571288.1054677.7822265.3164063.2109386.2109385.3164063.4716781.3164063.7822265 0 .3164079-.1069325.5874013-.3208008.8129883-.2138683.2255871-.473143.3383789-.777832.3383789-.2988296 0-.5537099-.1127918-.7646485-.3383789-.2109385-.225587-.3164062-.4965804-.3164062-.8129883 0-.3164078.1040029-.5786122.3120117-.786621.2080089-.2080089.464354-.3120118.769043-.3120118zm12.3486328-6.3544922-.413086 4.640625h-.7558593l-.413086-4.640625v-4.0341796h1.5820313zm-.7558594 6.3544922c.3105484 0 .571288.1054677.7822266.3164063.2109385.2109385.3164062.4716781.3164062.7822265 0 .3105485-.1069325.580077-.3208008.8085938-.2138682.2285168-.473143.3427734-.777832.3427734-.2988296 0-.5537099-.1127918-.7646484-.3383789-.2109386-.225587-.3164063-.4965804-.3164063-.8129883 0-.3164078.1040029-.5786122.3120117-.786621.2080089-.2080089.464354-.3120118.769043-.3120118zm7.6201172-9.9228515c1.0371146-.4687524 1.9658162-.703125 2.7861328-.703125 1.1074274 0 1.9628876.2490209 2.5664063.7470703.6035186.4980494.9052734 1.2333936.9052734 2.2060547 0 1.0078175-.6533138 2.0537055-1.9599609 3.1376953-.5683623.4687523-.9155268.7807609-1.0415039.9360351-.1259772.1552743-.2270504.3442372-.3032227.5668946-.0761723.2226573-.1142578.5009749-.1142578.8349609v.4833984h-1.2041016v-.5009765c0-1.0195364.3251921-1.8134737.975586-2.381836l1.1601562-1.0195312c.3750019-.3164078.6503898-.6372054.8261719-.9624023.1757821-.325197.2636719-.6723615.2636719-1.041504 0-.609378-.1933575-1.0766585-.5800782-1.4018554-.3867206-.325197-.9140591-.487793-1.5820312-.487793-.6035187 0-1.3652298.2167947-2.2851563.6503906zm2.390625 9.9228515c.3105484 0 .571288.1054677.7822266.3164063.2109385.2109385.3164062.4716781.3164062.7822265 0 .3164079-.1069325.5874013-.3208008.8129883-.2138682.2255871-.473143.3383789-.777832.3383789-.2988296 0-.5537099-.1127918-.7646484-.3383789-.2109386-.225587-.3164063-.4965804-.3164063-.8129883 0-.3164078.1040029-.5786122.3120117-.786621.2080089-.2080089.464354-.3120118.769043-.3120118z" fill="#675a5e" transform="matrix(1 0 0 -1 0 46.950196)"/></g><g fill="#79a69f" transform="matrix(-1 0 0 1 172 178.893678)"><path d="m101.076361 37.2841052c0-2.3315777 1.398722-4.2562688 1.398722-4.2562688l-22.983113.6848428s17.8469303 1.5512104 17.8469303 2.948479c0 1.4402439-8.2480315 3.8493084-8.2480315 3.8493084l13.3842142 1.0299073s-1.398722-1.9246911-1.398722-4.2562687z" transform="matrix(-1 0 0 1 181.967052 0)"/><path d="m38.5567878 45.0663753c31.0362739 0 38.556787 1.3563559 38.5567877-5.7191673.0000007-7.0755233-30.5365985-8.3014828-38.5567877-8.3014828-8.0201893 0-38.5567878.8353969-38.5567878 8.3014828 0 7.4660858 7.52051383 5.7191673 38.5567878 5.7191673z" transform="matrix(1 0 0 -1 0 76.289626)"/><path d="m34.8272914 36.7302114c0-.6262034-.0161289-2.9698485-.0236175-4.4231958-4.8387306 1.0521359-5.8597603-2.0521402-5.8597603-2.0521402-.7911901-2.0100893-1.931172-2.5449419-1.931172-2.5449419-1.5780598-1.0794977.1189522-1.0573202.1189522-1.0573202 1.7465513.1226964 2.6661981 1.7926345 2.6661981 1.7926345 1.551274 2.6587096 4.068854 1.8899851 5.0613698 1.4455707.1561067-1.1238528.6068575-1.8914252 1.1042675-2.3257589-3.863208-.439518-7.9242854-1.9311719-7.9242854-8.5956593 0-1.8986257.6794384-3.4501877 1.7920584-4.6682229-.1805883-.438366-.775925-2.2073828.1684915-4.60313051 0 0 1.4605478-.46716792 4.7842949 1.78312981 1.3873908-.3853703 2.8753005-.5786315 4.3534174-.585544 1.478117.0069125 2.9671788.2001737 4.3571617.585544 3.3197149-2.25029773 4.7779585-1.78312981 4.7779585-1.78312981.9470087 2.39574771.351384 4.16476451.1707957 4.60313051 1.1152122 1.2180352 1.7900423 2.7695972 1.7900423 4.6682229 0 6.6806165-4.068854 8.151245-7.9418547 8.5818344.6238507.5397489 1.1797286 1.5982212 1.1797286 3.220924 0 2.327199-.0239779 5.5874934-.0239779 5.9580527-.9869375.2718331-2.5305569.5380921-4.3098545.5405354-1.7792975-.0024417-3.2078768-.2504433-4.3102143-.5405354z" transform="matrix(-1 0 0 1 76.57441 0)"/><path d="m38.7453694 36.3740818c7.1665096 0 11.7548653-.5710008 15.2998887-2.2503464 4.4374725-2.1021159 6.7325614-5.9084933 6.7325614-11.7703037 0-12.1681863-9.8642639-22.03245019-22.0324501-22.03245019s-22.0324502 9.86426389-22.0324502 22.03245019c0 5.8618104 2.2950889 9.6681878 6.7325614 11.7703037 3.5450234 1.6793456 8.1333791 2.2503464 15.2998888 2.2503464zm0-3.0044251c-14.3553311 0-20.0295002-2.6879627-20.0295002-12.0177 0-11.0619875 8.9675127-20.02950018 20.0295002-20.02950018s20.0295001 8.96751268 20.0295001 20.02950018c0 9.3297373-5.6741691 12.0177-20.0295001 12.0177z"/></g></g></svg>