<?xml version="1.0" encoding="UTF-8"?>
<svg width="123px" height="124px" viewBox="0 0 123 124" version="1.1" xmlns="http://www.w3.org/2000/svg" xmlns:xlink="http://www.w3.org/1999/xlink">
    <!-- Generator: Sketch 43.2 (39069) - http://www.bohemiancoding.com/sketch -->
    <title>Planet</title>
    <desc>Created with Sketch.</desc>
    <defs>
        <path d="M20.0857631,76.959813 C20.0857631,111.077235 47.399128,138.73473 81.0920414,138.73473 C114.784955,138.73473 142.09832,111.077235 142.09832,76.959813 C142.09832,42.8423911 114.784955,15.1848958 81.0920414,15.1848958 C47.399128,15.1848958 20.0857631,42.8423911 20.0857631,76.959813 Z" id="path-1"></path>
        <filter x="-4.1%" y="-4.0%" width="108.2%" height="108.1%" filterUnits="objectBoundingBox" id="filter-2">
            <feOffset dx="-1" dy="-10" in="SourceAlpha" result="shadowOffsetInner1"></feOffset>
            <feComposite in="shadowOffsetInner1" in2="SourceAlpha" operator="arithmetic" k2="-1" k3="1" result="shadowInnerInner1"></feComposite>
            <feColorMatrix values="0 0 0 0 0   0 0 0 0 0   0 0 0 0 0  0 0 0 0.16553442 0" type="matrix" in="shadowInnerInner1"></feColorMatrix>
        </filter>
    </defs>
    <g id="Illu" stroke="none" stroke-width="1" fill="none" fill-rule="evenodd">
        <g id="BG" transform="translate(-142.000000, -1013.000000)">
            <g id="Top">
                <g id="Planet" transform="translate(122.000000, 998.000000)">
                    <g>
                        <use fill="#C98C81" fill-rule="evenodd" xlink:href="#path-1"></use>
                        <use fill="black" fill-opacity="1" filter="url(#filter-2)" xlink:href="#path-1"></use>
                        <path stroke-opacity="0.08" stroke="#000000" stroke-width="2" d="M21.0857631,76.959813 C21.0857631,43.3918926 47.9542348,16.1848958 81.0920414,16.1848958 C114.229848,16.1848958 141.09832,43.3918926 141.09832,76.959813 C141.09832,110.527733 114.229848,137.73473 81.0920414,137.73473 C47.9542348,137.73473 21.0857631,110.527733 21.0857631,76.959813 Z"></path>
                    </g>
                    <g id="Craters-4" transform="translate(72.352679, 74.180051) rotate(-220.000000) translate(-72.352679, -74.180051) translate(26.352679, 17.180051)">
                        <path d="M69.9731382,21.2620009 C67.1880694,18.3002309 63.4234284,17.2932865 61.564577,19.0129277 C59.7057256,20.732569 60.4565732,24.5276026 63.2416419,27.4893727 C66.0267107,30.4511428 69.7913518,31.4580871 71.6502032,29.7384459 C73.5090545,28.0188047 72.758207,24.223771 69.9731382,21.2620009 L69.9731382,21.2620009 L69.9731382,21.2620009 Z M72.4639869,19.7248022 C70.5641771,17.7044572 66.5970309,14.6288369 60.7455918,16.862092 C66.6658144,16.2272748 69.943424,19.7128355 71.1220502,20.9662407 C72.3006765,22.219646 74.5826917,24.6464458 73.7608374,29.9871008 C76.3410187,25.6339567 74.3637967,21.7451472 72.4639869,19.7248022 L72.4639869,19.7248022 L72.4639869,19.7248022 Z" id="Crater-3" fill-opacity="0.120952219" fill="#000000"></path>
                        <path d="M20.901872,72.0813258 C11.6993803,69.1439625 2.75883487,71.2388044 0.932604809,76.7602862 C-0.893625252,82.2817679 5.08601624,89.1390167 14.2885079,92.07638 C23.4909996,95.0137433 32.431545,92.9189014 34.2577751,87.3974196 C36.0840051,81.8759379 30.1043636,75.0186891 20.901872,72.0813258 L20.901872,72.0813258 Z M36.4051544,72.8183938 C31.0029606,66.8880114 20.1795435,65.446731 10.3032042,67.5889908 C21.7992144,67.1948037 29.9843682,72.464096 33.2604782,75.8570256 C36.5365881,79.2499552 40.0943966,84.4165647 35.865119,92.9104691 C43.1150194,83.6395128 41.8073481,78.7487761 36.4051544,72.8183938 L36.4051544,72.8183938 Z" id="Crater-21" fill-opacity="0.120952219" fill="#000000"></path>
                        <path d="M82.8518351,84.6182902 C86.7920434,80.4291101 87.768374,75.1223415 85.0325307,72.7652909 C82.2966874,70.4082402 76.8846783,71.8934746 72.9444701,76.0826547 C69.0042618,80.2718349 68.0279311,85.5786034 70.7637745,87.9356541 C73.4996178,90.2927047 78.9116269,88.8074703 82.8518351,84.6182902 L82.8518351,84.6182902 L82.8518351,84.6182902 Z M89.3891594,69.4020331 C87.4815652,67.4715705 82.9670799,65.3372606 76.6349356,70.4102309 C84.3062655,68.0283169 87.500716,70.669456 88.7851371,73.2504642 C90.0695582,75.8314725 89.1885774,77.8391864 86.9458699,82.2433907 C92.7546569,76.2810047 91.2967536,71.3324957 89.3891594,69.4020331 L89.3891594,69.4020331 Z" id="Crater-10" fill-opacity="0.120952219" fill="#000000"></path>
                        <path d="M21.4047441,18.3492596 C25.3449523,14.082502 26.321283,8.67745997 23.5854397,6.27676023 C20.8495963,3.8760605 15.4375872,5.38879924 11.497379,9.65555677 C7.55717077,13.9223143 6.5808401,19.3273564 9.31668342,21.7280561 C12.0525267,24.1287558 17.4645358,22.6160171 21.4047441,18.3492596 L21.4047441,18.3492596 L21.4047441,18.3492596 Z M27.9420684,2.85121995 C26.0344741,0.885008043 21.5199888,-1.28882616 15.1878446,3.87808808 C22.8591745,1.45206452 26.053625,4.14211359 27.3380461,6.77091831 C28.6224671,9.39972302 27.7414864,11.4446168 25.4987788,15.9303804 C31.3075659,9.85757992 29.8496626,4.81743185 27.9420684,2.85121995 L27.9420684,2.85121995 Z" id="Crater-11" fill-opacity="0.120952219" fill="#000000"></path>
                        <g id="Pump-2" transform="translate(57.043459, 104.680216) rotate(163.000000) translate(-57.043459, -104.680216) translate(47.543459, 98.680216)">
                            <path d="M9.38234802,11.3547794 C14.5640757,11.3547794 18.764696,10.5090813 18.764696,6.92575464 C18.764696,3.34242796 17.5422912,0.437567735 9.38234802,0.437567735 C1.22240481,0.437567735 -4.84330368e-15,3.34242796 -4.84330368e-15,6.92575464 C-4.84330368e-15,10.5090813 4.20062029,11.3547794 9.38234802,11.3547794 Z" id="Oval-27" fill="#C98C81"></path>
                            <ellipse id="Oval-28" fill-opacity="0.129076087" fill="#000000" cx="9.61118577" cy="4.1709773" rx="6.86513269" ry="1.85376769"></ellipse>
                        </g>
                    </g>
                </g>
            </g>
        </g>
    </g>
</svg>