<svg height="1130" viewBox="0 0 1070 1130" width="1070" xmlns="http://www.w3.org/2000/svg"><g fill="none" fill-rule="evenodd"><g fill="#c98c81"><circle cx="72" cy="35" opacity=".29512" r="3"/><circle cx="103.5" cy="331.5" opacity=".29512" r="5.5"/><circle cx="131.5" cy="668.5" opacity=".561424" r="3.5"/><circle cx="750.5" cy="1126.5" opacity=".29512" r="3.5"/><circle cx="925" cy="1066" opacity=".935632" r="3"/><circle cx="312.5" cy="1103.5" opacity=".29512" r="4.5"/><circle cx="282" cy="276" opacity=".186594" r="4"/><circle cx="868" cy="24" opacity=".536005" r="3"/><circle cx="308" cy="18" opacity=".536288" r="3"/><circle cx="892.5" cy="230.5" opacity=".179178" r="5.5"/><circle cx="197.5" cy="466.5" r="2.5"/><circle cx="5" cy="855" opacity=".153193" r="5"/><circle cx="731.5" cy="2.5" r="2.5"/><circle cx="191.5" cy="1033.5" opacity=".641701" r="2.5"/><circle cx="366" cy="876" opacity=".69486" r="3"/><circle cx="1064.5" cy="554.5" opacity=".331635" r="5.5"/><circle cx="1016" cy="902" opacity=".228261" r="4"/></g><g fill="#51e0c1"><circle cx="1008.5" cy="340.5" opacity=".46558" r="3.5"/><circle cx="402" cy="200" opacity=".441236" r="3"/><circle cx="568.5" cy="62.5" r="2.5"/><circle cx="1029.5" cy="68.5" opacity=".1875" r="3.5"/><circle cx="698" cy="1038" r="2"/><circle cx="458" cy="914" r="2"/><circle cx="968" cy="739" r="2"/></g></g></svg>