<svg height="632" viewBox="0 0 652 632" width="652" xmlns="http://www.w3.org/2000/svg" xmlns:xlink="http://www.w3.org/1999/xlink"><defs><path id="a" d="m26 316c0 174.522376 141.701481 316 316.5 316s316.5-141.477624 316.5-316-141.701481-316-316.5-316-316.5 141.477624-316.5 316z"/><filter id="b" height="102.4%" width="102.4%" x="-1.2%" y="-1.2%"><feOffset dx="2" dy="-15" in="SourceAlpha" result="shadowOffsetInner1"/><feComposite in="shadowOffsetInner1" in2="SourceAlpha" k2="-1" k3="1" operator="arithmetic" result="shadowInnerInner1"/><feColorMatrix in="shadowInnerInner1" type="matrix" values="0 0 0 0 0   0 0 0 0 0   0 0 0 0 0  0 0 0 0.0543195199 0"/></filter></defs><g fill="none" fill-rule="evenodd" transform="translate(-7)"><use fill="#c98c81" fill-rule="evenodd" xlink:href="#a"/><use fill="#000" filter="url(#b)" xlink:href="#a"/><path d="m28 316c0-173.417098 140.805343-314 314.5-314s314.5 140.582902 314.5 314-140.805343 314-314.5 314-314.5-140.582902-314.5-314z" stroke="#000" stroke-opacity=".08" stroke-width="4"/><g transform="matrix(-.88294759 -.46947156 .46947156 -.88294759 260.027401 646.358026)"><path d="m72.3960388 82.9684554c39.9832282 0 72.3960392-6.4251056 72.3960392-33.6490664 0-27.2239607-9.432316-49.29334145-72.3960392-49.29334145-62.96372334 0-72.3960388 22.06938075-72.3960388 49.29334145 0 27.2239608 32.4128106 33.6490664 72.3960388 33.6490664z" fill="#c98c81"/><ellipse cx="74.161796" cy="25.965603" fill="#000" fill-opacity=".129076" rx="52.972711" ry="14.083812"/></g><g transform="matrix(-.12186934 -.99254615 .99254615 -.12186934 18.144862 431.517174)"><path d="m72.3960388 82.9684554c39.9832282 0 72.3960392-6.4251056 72.3960392-33.6490664 0-27.2239607-9.432316-49.29334145-72.3960392-49.29334145-62.96372334 0-72.3960388 22.06938075-72.3960388 49.29334145 0 27.2239608 32.4128106 33.6490664 72.3960388 33.6490664z" fill="#c98c81"/><ellipse cx="74.161796" cy="25.965603" fill="#000" fill-opacity=".129076" rx="52.972711" ry="14.083812"/></g><g fill="#000" fill-opacity=".120952" transform="translate(102 57)"><path d="m263.943386 483.929406c-28.227149 0-51.109774-13.986298-51.109774-31.239271s22.882625-31.239271 51.109774-31.239271c28.227148 0 51.109774 13.986298 51.109774 31.239271s-22.882626 31.239271-51.109774 31.239271zm-3.909765 19.538411c-19.254897 0-48.397895-8.336758-58.419093-41.461923 23.3449 29.006706 46.473514 29.006706 58.419093 29.006706s45.164713 0 69.84337-32.34862c-16.2075 39.467868-50.588473 44.803837-69.84337 44.803837z"/><path d="m31.9844238 428.151932c13.4228068 4.359613 26.465997 1.242897 29.1327808-6.961379 2.6667837-8.204276-6.0526958-18.38932-19.4755026-22.748933-13.4228069-4.359612-26.4659971-1.242897-29.1327808 6.96138-2.66678379 8.204276 6.0526957 18.38932 19.4755026 22.748932zm-4.8792466 8.687214c9.1562479 2.97387 26.3301501 5.746522 40.1378035-10.518357-16.7355091 11.571126-32.5321463 6.440514-38.2126065 4.595549s-16.67877-5.417121-23.29637678-22.816191c-.35477789 17.299701 12.21493198 25.765128 21.37117978 28.738999z" transform="matrix(.94551858 .32556815 -.32556815 .94551858 138.007001 10.883523)"/><path d="m106.735991 147.863157c26.513137-18.587403 36.594932-44.242362 22.518318-57.3019558-14.076614-13.0595937-46.9811085-8.5784193-73.4942461 10.0089828-26.5131375 18.587403-36.594932 44.242362-22.5183182 57.301956s46.9811086 8.578419 73.4942463-10.008983zm-31.3247536 37.77894c28.8884966-4.454729 53.6931826-29.407013 65.3746156-57.483437-20.247798 29.458018-52.2459215 41.912317-69.1204273 44.926233-16.8745059 3.013917-39.8946053 4.01205-58.8940682-19.641756 15.812783 32.427881 33.7513833 36.653688 62.6398799 32.19896z" transform="matrix(.99026807 -.1391731 .1391731 .99026807 -18.055127 12.000304)"/><path d="m253.976098 56.6804537c16.609415 18.1796963 39.377741 24.6581871 50.85448 14.4701142s7.315883-33.1846935-9.293532-51.3643898c-16.609416-18.17969628-39.377742-24.65818706-50.854481-14.47011417-11.476739 10.18807287-7.315883 33.18469347 9.293533 51.36438977zm71.1605 13.2262877c-26.964337 30.1504686-48.211163 18.3678936-55.990824 15.7716416s-28.212469-11.7399606-35.630758-32.3001299c-.116695 21.1066365 20.83804 45.1227348 36.719044 50.4387879 15.881005 5.316053 38.009219 5.369788 54.902538-33.9102996z"/><path d="m333.785609 281.136687c-.236771 13.279281 17.101407 24.231333 38.725904 24.462094 21.624497.23076 39.346555-10.347156 39.583326-23.626437.23677-13.279281-17.101408-24.231334-38.725905-24.462094-21.624496-.230761-39.346555 10.347155-39.583325 23.626437zm33.293832 36.867788c16.247478.675987 44.7778-2.093352 51.920559-20.455812-23.992938 15.49035-48.789872 15.420172-64.950981 12.665514-16.161108-2.754658-20.473192-7.646107-28.56986-18.829624-1.218924 19.193668 25.352805 25.943935 41.600282 26.619922z"/></g></g></svg>