<svg height="323" viewBox="0 0 390 323" width="390" xmlns="http://www.w3.org/2000/svg" xmlns:xlink="http://www.w3.org/1999/xlink"><defs><path id="a" d="m3.57216655 20.5949403c-4.85784293 13.3832722.53456005 27.9633894 1.97531703 31.1103865-7.35431173 11.475097-6.09292204 25.839514-3.04646102 37.6618048 3.04646102 11.8222904 10.13721694 23.7461054 19.50549674 30.2617464 14.0437754 9.76745 35.5428042 8.926143 35.5428042 8.926143v2.122864s-3.8483772 1.399892-9.4872392 7.234174c-4.285841 4.434371-7.239709 4.563336-10.1156572 3.321226-2.4142051-1.042684-2.0373636-4.439345-2.4306924-10.275976-.2853686-4.234601-5.354455-2.402288-7.091965 1.948888-3.3499165 8.38906-.1615367 16.055168 6.4701247 19.015499 10.746099 4.79699 22.6554291-7.427621 22.6554291-7.427621s1.4119187 8.811179-1.0994785 11.552476c-2.4873591 2.715058-6.0656833 2.19069-9.5929875-1.135397-1.9659565-1.853808-4.782453-.292574-4.4072743 2.376495.7157071 5.09163 4.4449693 9.938391 10.5310607 9.938391 7.478218 0 15.3053286-4.101633 14.9360581-14.676462-.6064081-17.365759 1.5783816-18.476375 1.5783816-18.476375s.8325338 6.868649 4.0052791 19.225383c2.1954151 8.550375-4.6291433 12.591023-9.5993122 14.31536-4.2009219 1.457457-6.5574645 5.279294-1.3074332 6.470247 8.236728 1.868474 15.047968-.430608 19.8718209-8.653041 4.0923064-6.975486 1.8989885-11.283971-.5871812-23.326721-1.0354729-5.015724-1.1407152-10.242091-1.1407152-10.242091l1.7278964-.140597s-.2823327 3.285318 2.5948805 14.221291c2.330593 8.858329 3.5729255 16.39827-.7106386 24.876323-1.4941375 2.957205-9.2395481 8.486297-4.7859948 9.619519 4.6936548 1.194317 11.2928158-.344647 15.3054182-7.142128 5.2628875-8.915505 3.515522-16.295076.682557-28.802673-1.8503418-8.169296-1.8070811-12.664609-1.8070811-12.664609s4.3894866 1.962008 4.8993327 7.216473c.8429503 8.687431 2.9138959 15.865215 8.9273809 19.105269 8.651512 4.661418 14.926191 1.900842 17.659455-2.104657 1.894511-2.776337 2.13394-8.774167-.271454-10.103517-1.823953-1.008015-3.691703 4.642061-6.875662 5.119149-4.219052.632187-8.745736-1.282316-8.745736-13.150124 0-11.172855-5.665881-17.054727-5.665881-17.054727s30.515269-7.755436 36.772317-29.5054049c3.473502-12.0741517 3.104401-26.5326368-1.355753-41.5277181-4.290395-14.4243479-14.772123-21.7998774-14.772123-21.7998774s.57605-14.5196807-8.636952-27.18631244c-12.259464-4.04874011-29.0314433 12.05822074-31.3298239 13.94389024-24.8164381-1.1796498-45.6351866 8.8267643-45.6351866 8.8267643s-23.2061803-11.2151442-35.14232695-3.0137334z"/><mask id="b" fill="#fff"><use fill="#fff" fill-rule="evenodd" xlink:href="#a"/></mask></defs><g fill="none" fill-rule="evenodd" transform="translate(-13 3)"><path d="m434.364038 54.6313028c-30.744309 44.5296697-27.056645 88.9793832-105.736125 80.4162792s-145.143037-10.14424-142.881927 38.304849-92.0675919 24.462884-92.0675919 24.462884" stroke="#47c4a9" stroke-linecap="square" stroke-width="6" transform="matrix(.93969262 -.34202014 .34202014 .93969262 -28.263843 98.091806)"/><g transform="matrix(.88294759 -.46947156 .46947156 .88294759 .882071 195.16046)"><use fill="#51e0c1" xlink:href="#a"/><g fill="#000"><path d="m37.3175031 127.790841s-4.1522641-.872157-5.2411172 1.161949c5.1548489-.844341-1.4002791 12.463828 8.5162779 12.792309.4364013-5.278964-3.2751607-13.954258-3.2751607-13.954258zm19.999073 13.58734c-.3073784 3.579662 0 5.762204 0 5.762204l-5.3165071 4.333474-12.7196452 3.152055-9.0222504-1.414316-2.0582965-5.573308s5.3296623 5.777629 14.5095232 3.254215c9.1798609-2.523413 11.9460131-5.934662 14.607176-9.514324zm12.2640168-7.264771c-.4295707 5.496687 0 11.247259 0 11.247259l.6995072 4.322348.2717072 6.831601-4.8763109 8.352628-10.1323543 4.061384-16.4253885-2.213139 2.7585626-7.791758s5.3569849 8.645202 13.6668259 5.497193c8.309841-3.148008 10.1783978-7.529781 9.4098254-16.223788-.7685723-8.694006 1.0961897-12.841619 4.6276254-14.083728zm10.9441874-2.109968c.6398023.341884 1.4258308.900732 1.4258308.900732l3.4034247 19.748323.5664363 12.078198-6.5591758 7.17399-11.15366 6.437373-13.0282885-3.858327 3.3411901-5.14039s.5851573 5.889145 11.688473 3.141434c11.1033157-2.747712 13.7692854-9.829151 13.000713-18.523157s-4.0912945-14.294624-2.6849436-21.958176zm13.0508042.073081c1.237103 2.367391 2.7836083 5.973352 2.7836083 5.973352l6.6434202 36.229788-21.1395352 12.39707-11.3613617-7.25668 8.0115701-6.01811s-3.5367485 9.760622 6.5040248 4.667519c10.0407732-5.093103 12.1104542-10.783238 11.3418818-19.477245-.7685724-8.694006-2.7836083-17.356656-2.7836083-26.515694zm5.5563381 15.385768 7.9065804 29.831864 31.766478-19.834806-10.987448-20.403769-7.020117 9.099867s4.798897-2.08468 4.275469 4.588117c-.523429 6.672797-7.529008 8.452547-13.669356 7.70047-7.395052-.905754-12.2716064-10.981743-12.2716064-10.981743zm16.7524994-146.49682415 25.495454-2.9206763 11.425873 115.86057345s-27.936265 12.424633-39.405652 35.473447c-10.533146-1.692728 2.506333-28.550762-23.1649436-24.184211-10.1538581 1.727119-16.47042 2.424035-22.8451688 3.204905-7.0425141.862667-8.9066357 3.115388-10.7311729 4.696852-1.5270253-1.581464-3.8514634-.768732-3.8514634-.768732s-29.0908946-6.521074-37.6954647-12.816079c11.0367803 0 6.7694074.96142 18.3941279 0 6.7021825 3.711854 21.6004763 6.832106 49.470965 1.167259 27.8704885-5.664848 44.4782895-11.339773 47.8690555-27.1402902 5.237929-24.4080509-10.973028-35.4790102-10.973028-35.4790102s-2.278394-17.5002878-17.006053-24.4542789c19.256462-8.8798675 13.017471-32.63975885 13.017471-32.63975885zm-115.67317844 20.03128775 24.09011444-15.73776715 14.422496 18.65667335s4.7832119 10.0099542-6.5548751 18.2680084c-.4910464-26.9433021-31.95773534-21.1869146-31.95773534-21.1869146zm85.01762974-10.060023s-6.9033029 13.4151341 12.9839501 21.3689828c-19.2181043-5.2683438-14.7579558-14.354808-19.3170219-15.8778585-5.5163672-1.8428567-11.2368925-3.3659846-11.8974397-5.4911243 9.1204091-3.70432789 18.2305115 0 18.2305115 0z" mask="url(#b)" opacity=".224128"/><g fill-rule="nonzero" mask="url(#b)" opacity=".327106"><g transform="translate(25.724868 130.259414)"><path d="m43.1316811 12.8908934c.2778188.3662643.8003583.877744 1.5787636 1.3806453 1.6974784 1.0966832 3.8254815 1.597566 6.362011 1.178396 1.9233067-.317833 3.4999232-.9476097 4.7571193-1.8019318 1.1565786-.7859478 1.8379996-1.5919118 2.1453989-2.1692696l-1.3354283-.7123465c-.038774.0728254-.1474856.235912-.3372403.4603481-.332939.39379-.7697805.7923997-1.3226998 1.1681336-1.0757319.7310089-2.4464174 1.2785268-4.153645 1.560652-2.1508123.355429-3.9022378-.0568162-5.2948848-.9565582-.3627094-.2343342-.6706116-.4842335-.9234794-.7317491-.1450564-.1419863-.2353415-.24561-.2706938-.292217z"/><path d="m30.9778448 16.406038c.1869798.2116575.5494589.4604337 1.1277579.6824865 1.2130437.4657793 2.9881197.6551417 5.438651.4401639 2.1162251-.1856501 3.8263081-.8802561 5.1567842-1.925829.9621586-.7561254 1.5419953-1.524879 1.813131-2.072472l-1.3558473-.6725932c-.0360197.0727464-.1319367.2309757-.2945581.4465808-.2825401.3745945-.6459317.7525182-1.097199 1.1071529-1.1030761.8668673-2.5356189 1.4487414-4.354431 1.6083003-2.2358241.1961422-3.784204.0309634-4.7645433-.3454631-.3535325-.1357479-.5123864-.2447724-.5361292-.2716486z"/><path d="m56.6026956 11.3372454c.2778188.3662642.8003583.8777439 1.5787636 1.3806452 1.6974784 1.0966832 3.8254815 1.597566 6.362011 1.178396 1.9233067-.3178329 3.4999232-.9476097 4.7571193-1.8019317 1.1565786-.7859479 1.8379996-1.5919118 2.1453989-2.1692697l-1.3354283-.71234649c-.038774.07282543-.1474856.23591201-.3372403.46034808-.332939.39379001-.7697805.79239981-1.3226998 1.16813371-1.0757319.7310088-2.4464174 1.2785268-4.153645 1.5606519-2.1508123.355429-3.9022378-.0568161-5.2948848-.9565581-.3627094-.2343343-.6706117-.4842335-.9234794-.7317492-.1450564-.1419862-.2353415-.24561-.2706938-.2922169z"/><path d="m71.109942 12.1140694c.2778188.3662643.8003582.877744 1.5787636 1.3806452 1.6974784 1.0966833 3.8254815 1.5975661 6.3620109 1.178396 1.9233068-.3178329 3.4999233-.9476097 4.7571194-1.8019317 1.1565786-.7859479 1.8379996-1.5919118 2.1453989-2.1692697l-1.3354283-.71234645c-.0387741.07282545-.1474856.23591205-.3372404.46034805-.3329389.39379-.7697804.7923998-1.3226998 1.1681337-1.0757318.7310089-2.4464173 1.2785268-4.1536449 1.5606519-2.1508123.355429-3.9022378-.0568161-5.2948848-.9565581-.3627094-.2343343-.6706117-.4842335-.9234794-.7317492-.1450564-.1419862-.2353416-.2456099-.2706939-.2922169z"/><path d="m71.369 15.2213655c.2778187.3662643.8003582.877744 1.5787635 1.3806453 1.6974784 1.0966832 3.8254816 1.597566 6.362011 1.178396 1.9233067-.317833 3.4999233-.9476097 4.7571194-1.8019318 1.1565785-.7859478 1.8379996-1.5919118 2.1453989-2.1692696l-1.3354284-.7123465c-.038774.0728254-.1474856.235912-.3372403.4603481-.332939.39379-.7697805.7923997-1.3226998 1.1681336-1.0757319.7310089-2.4464173 1.2785268-4.153645 1.560652-2.1508123.355429-3.9022378-.0568162-5.2948848-.9565582-.3627094-.2343342-.6706116-.4842335-.9234793-.7317491-.1450565-.1419863-.2353416-.24561-.2706939-.292217z"/><path d="m100.523194 26.6301858c.039238-.0953241.08829-.2451441.134373-.4434963.357222-1.5375526-.001754-3.2879924-1.5790179-4.8973643-.2637665-.2691359-.5586768-.5291996-.8856258-.7795508-2.1179357-1.6217443-4.0896587-1.8609436-5.6978434-1.2471573-.3058284.1167237-.5298329.239706-.6668829.3360774l.8698775 1.239372c.0393893-.0276979.1543614-.0908196.3361451-.1601999 1.1302376-.431371 2.5491739-.259233 4.2392682 1.0349049.2707494.2073181.5118708.4199486.7248172.6372298 1.1830517 1.2071347 1.4331962 2.4268921 1.1853635 3.4936143-.0266566.1147355-.0503446.1870862-.0595997.2095703z"/><path d="m56.0752783 41.201911c-.089938.1418941-.206886.3744781-.3188207.6891235-.649679 1.8262304-.32079 3.9643877 1.6223141 6.0806692 2.0312882 2.212325 4.147038 2.7478485 5.9457426 2.2807648.2176078-.0565079.3808415-.1168264.4843026-.1653123l-.6416487-1.3717373c-.0225704.0105774-.0990926.038854-.2226578.0709411-1.277966.3318595-2.8150486-.0571959-4.4515686-1.8395693-1.5430269-1.6805479-1.7808587-3.2267287-1.3109359-4.5476692.0717632-.2017245.1385132-.3344757.1710405-.3857935z"/><path d="m53.9911772 43.012495c-.086408.1363249-.198061.3583784-.3047008.6581398-.6174073 1.7355154-.3048537 3.7674743 1.5377652 5.7743149 1.9255663 2.0971806 3.9360257 2.6060538 5.6460475 2.1619991.2077738-.0539543.3640967-.111719.4639249-.1585025l-.6416486-1.3717373c-.0189377.0088749-.088549.0345979-.2022802.0641313-1.1892832.3088305-2.6210754-.0535746-4.1518734-1.7208036-1.4425417-1.571107-1.6640382-3.0110894-1.2263871-4.2413149.0664683-.1868405.1279233-.3090611.1569205-.3548098z"/><path d="m41.0260011 34.4950093c-.3648076.1909572-.8646422.5722608-1.3553365 1.1815494-1.1373853 1.4122759-1.6077622 3.3525397-1.0573834 5.8203556.4022926 1.8038192 1.1486029 3.1503315 2.1478444 4.0857207.9789656.916409 1.9770668 1.285076 2.6929594 1.3466449l.129543-1.509084c-.076037-.0065394-.2554624-.0437604-.503118-.1352365-.4340882-.1603385-.8723434-.4215653-1.2857656-.8085695-.7717138-.7224007-1.3672419-1.7968677-1.7045864-3.3094697-.4489235-2.0129052-.0925556-3.4828917.758619-4.5397837.2043632-.253755.4222275-.4616826.6374489-.6258663.1214116-.0926201.2075603-.1465536.2410258-.164071z"/><path d="m39.8551212 34.7128981c-.5644976.085529-1.345336.393763-2.1171576 1.073904-1.0292668.9070058-1.7189467 2.2527071-1.9239733 4.0776428-.2351971 2.0934817.2291222 3.6990731 1.1658312 4.8415814.4773458.5822208.9679458.9268297 1.3320277 1.0884029l.6133354-1.3846525c-.1628248-.0722588-.4625848-.2828172-.7755991-.6646022-.6754725-.8238769-1.0217381-2.0212448-.8318457-3.7114708.1633946-1.4543704.6757507-2.4540781 1.4201544-3.1100581.3093551-.2726084.6396109-.4672396.9672917-.5965908.1870758-.0738477.3217358-.1082879.3764152-.1165726z"/><path d="m26.9857794 25.991362c-.1098042-.0475436-.2861385-.1082979-.5215352-.165878-1.8186993-.4448696-3.8885974-.0080852-5.7933874 1.9300929-.2360836.2402218-.4664481.5016592-.6907818.7847993-1.9103375 2.4111108-2.2128353 4.6654213-1.5333776 6.5101684.1232708.3346837.2525462.5791433.3524463.726894l1.2532055-.8489293c-.0346709-.0512777-.1072519-.1885285-.1858376-.4018908-.5015889-1.3618282-.2737426-3.059812 1.2992058-5.0450908.1912147-.2413395.3859627-.4623562.5839121-.6637754 1.4999076-1.5261987 3.0213262-1.8472444 4.3553837-1.5209224.1487299.0363807.2451089.0695871.2799757.0846839z"/><path d="m25.8384898 25.4881132c-.1651878-.1509381-.445258-.3500579-.8356327-.5422843-1.5916346-.7837449-3.552925-.7374431-5.7072923.6407687-.5307387.3395291-.9914022.7033287-1.3850699 1.0889347-1.4764255 1.4461906-1.8918189 3.0088929-1.6960251 4.3371042.0160262.1087179.0337.1924245.0488962.2488396l1.4610549-.3942925c-.0002607-.0009682-.0057724-.0270727-.0129316-.0756385-.0449491-.3049224-.0322491-.6917351.0839595-1.1289096.1714854-.6451252.5428679-1.2869234 1.1734276-1.9045703.31801-.3114976.696956-.6107625 1.141613-.8952226 1.6921141-1.0824949 3.0919796-1.1155427 4.2243853-.5579291.2524648.1243175.4176265.2417415.4833907.3018327z"/><path d="m11.2949448 5.28853011c-.1311925-.30777273-.4147623-.70819978-.9014488-1.0908221-1.08313557-.85153745-2.68701833-1.19050722-4.85403078-.78521293-1.54300244.28858628-2.75848757.80567802-3.67858753 1.49365258-.93808098.70141927-1.41882359 1.43591607-1.58904897 1.9796325l1.44398699.4529268c.01117899-.0357068.06242292-.14724974.16976563-.31125201.19780046-.30220704.48507436-.6118784.88091733-.90785699.7297817-.54567033 1.72998157-.97117541 3.05090884-1.21822718 1.75505228-.32824576 2.91583733-.0829217 3.64138371.487487.26929467.21171358.40661478.40562243.44431838.49407363z"/><path d="m11.5665267 3.12425236c-.1623-.37170311-.5021317-.87778364-1.069088-1.3745843-1.17507366-1.02966917-2.82141175-1.5205193-4.94819107-1.19918483-1.72393875.26046941-3.01103106.90276099-3.90202558 1.82038084-.747432.76976729-1.08434831 1.55678711-1.17404784 2.12941755l1.49496334.23461682c.00754267-.04815143.04239899-.17584012.11960478-.35618901.13731757-.32076705.34689159-.64556288.64463443-.95220308.65581932-.67541697 1.6395947-1.16634574 3.04273144-1.37834527 1.68376922-.2544002 2.88355354.10331143 3.72557978.84114472.22486837.19704299.40538137.40709219.54460522.61442556.0780275.11619926.1218061.19767923.1346488.22709192z"/><path d="m103.708358 24.8379737c.021427-.0729044.047824-.1864983.072413-.3366031.228581-1.3953964-.085348-3.002495-1.350022-4.5086035-.535293-.6374845-1.2217-1.2200428-2.068999-1.7380478-2.4795612-1.5159052-4.6572702-1.6089325-6.3830244-.8154938-.4054285.1864011-.6944643.3805407-.8639005.5284307l.9945407 1.1415706c.0660158-.057621.2359284-.1717479.5009893-.2936133 1.275972-.5866452 2.9211514-.5163665 4.962626.7317099.7105599.4344081 1.2716219.9105856 1.6993579 1.419979.950135 1.1315221 1.177714 2.2965693 1.015144 3.2889927-.014131.0862676-.026455.1392968-.030842.1542248z"/><path d="m43.0329902 16.3331194c.3357715.2852038.9402529.6880113 1.791616 1.0844729 1.9519527.9089825 4.2303457 1.2997169 6.7659654.8806972 1.8540397-.3063864 3.3594106-.8583177 4.5482895-1.5908496 1.1842781-.7296973 1.8575896-1.4876158 2.1456178-2.0403809l-1.3417054-.7004295c-.0289098.0554817-.1235304.1949409-.2990366.3925009-.3150326.3546189-.7420759.7158434-1.2981345 1.0584609-1.0186379.6276374-2.3380521 1.1113893-4.001526 1.386284-2.2159103.3661866-4.1910814.0274535-5.8811528-.7595765-.4221418-.1965824-.7910574-.4062693-1.1031538-.6142407-.180522-.1202941-.297598-.2092652-.3476755-.251801z"/><path d="m29.5619758 18.6635915c.3357714.2852038.9402528.6880113 1.7916159 1.0844729 1.9519527.9089825 4.2303457 1.2997169 6.7659654.8806972 1.8540397-.3063864 3.3594106-.8583177 4.5482895-1.5908496 1.1842782-.7296973 1.8575896-1.4876158 2.1456178-2.0403809l-1.3417054-.7004295c-.0289098.0554817-.1235304.1949409-.2990366.3925009-.3150326.3546189-.7420759.7158434-1.2981345 1.0584609-1.0186379.6276374-2.3380521 1.1113893-4.001526 1.386284-2.2159103.3661866-4.1910814.0274535-5.8811527-.7595765-.4221419-.1965824-.7910575-.4062693-1.1031539-.6142407-.1805219-.1202941-.297598-.2092652-.3476755-.251801z"/><path d="m56.7630627 14.7794713c.3357715.2852039.9402528.6880114 1.791616 1.0844729 1.9519527.9089825 4.2303457 1.2997169 6.7659654.8806972 1.8540396-.3063863 3.3594106-.8583177 4.5482894-1.5908496 1.1842782-.7296973 1.8575897-1.4876158 2.1456179-2.0403809l-1.3417055-.7004294c-.0289097.0554817-.1235304.1949409-.2990366.3925008-.3150325.354619-.7420758.7158434-1.2981344 1.0584609-1.0186379.6276374-2.3380522 1.1113893-4.001526 1.386284-2.2159103.3661866-4.1910814.0274535-5.8811528-.7595765-.4221419-.1965824-.7910575-.4062693-1.1031539-.6142406-.1805219-.1202942-.297598-.2092653-.3476755-.251801z"/></g></g><g mask="url(#b)" opacity=".332144"><g transform="translate(31.777778 132.531381)"><ellipse cx="10.189614" cy="11.569478" rx="1.813406" ry="1.165236"/><ellipse cx="5.008454" cy="10.274771" rx="1.813406" ry="1.165236" transform="matrix(.78801075 .61566148 -.61566148 .78801075 7.387519 -.905371)"/><ellipse cx="1.973992" cy="6.223809" rx="1.813406" ry="1.165236" transform="matrix(.30901699 .95105652 -.95105652 .30901699 7.283189 2.423168)"/><ellipse cx="15.111715" cy="9.239006" rx="1.813406" ry="1.165236" transform="matrix(.8571673 -.51503807 .51503807 .8571673 -2.599993 9.102741)"/><ellipse cx="18.997585" cy="5.872768" rx="1.813406" ry="1.165236" transform="matrix(.7313537 -.68199836 .68199836 .7313537 1.098413 14.534019)"/><ellipse cx="22.365338" cy="2.247589" rx="1.813406" ry="1.165236" transform="matrix(.7313537 -.68199836 .68199836 .7313537 4.475513 15.85693)"/></g></g></g><g transform="translate(15 43)"><ellipse cx="85.872271" cy="36.572308" fill="#fff" rx="10.2631" ry="14.603077" transform="matrix(.98162718 -.190809 .190809 .98162718 -5.40061 17.057138)"/><ellipse cx="85.872271" cy="36.572308" fill="#000" rx="6.625546" ry="9.433846" transform="matrix(.98162718 -.190809 .190809 .98162718 -5.40061 17.057138)"/><ellipse cx="31.828603" cy="44.067692" fill="#fff" rx="10.2631" ry="14.603077" transform="matrix(.98162718 -.190809 .190809 .98162718 -7.823731 6.882831)"/><g fill="#000"><ellipse cx="31.828603" cy="43.809231" rx="6.625546" ry="9.433846" transform="matrix(.98162718 -.190809 .190809 .98162718 -7.774414 6.878083)"/><ellipse cx="59.5" cy="52.726154" rx="2.598253" ry="2.584615"/><path d="m54.8800317 60.3645236c1.2186682 1.8325091 3.2783625 2.9585533 5.5293569 2.9585533 2.8734377 0 5.3924575-1.8361221 6.2868535-4.5055016.1361212-.4062617-.0846089-.8453707-.4930144-.9807774-.4084054-.1354066-.8498314.0841649-.9859525.4904266-.683752 2.0406995-2.6104595 3.4450832-4.8078866 3.4450832-1.7222169 0-3.2961969-.860502-4.22916-2.263397-.2375177-.3571549-.7211228-.4551507-1.0801622-.2188797-.3590395.236271-.4575523.7173377-.2200347 1.0744926z" fill-rule="nonzero"/></g><path d="m59.5 74.9538462c30.1344889 0 54.563319-2.0202559 54.563319-32.9538462 0-18.1999067-24.4288301-32.95384615-54.563319-32.95384615s-54.56331878 14.75393945-54.56331878 32.95384615c0 28.3376547 24.42882988 32.9538462 54.56331878 32.9538462z" fill="#c98c81" opacity=".772418" transform="matrix(.98480775 -.17364818 .17364818 .98480775 -6.389285 10.970141)"/><g fill="#fff"><path d="m99.184259 23.2070192c10.679734 10.4469952 7.470993 27.1702645 1.308261 33.1946395-8.483435 8.292977-17.117247 12.4021153-46.7802307 16.8368509 8.3017237-16.8368509 31.4754026-46.5841586 45.4719697-50.0314904z" opacity=".154891"/><path d="m47.6814999 15.7025481c6.2444349-2.3089904 12.4066594-2.294351 12.4066594-2.294351s-25.1269361 22.4490505-37.8477202 57.2441827c-3.258981-1.0348558-5.9795349-4.4958173-5.9795349-4.4958173s5.4416152-22.9414904 31.4205957-50.4540144z" opacity=".54161"/><path d="m29.4673385 22.7279567c5.993744-3.6820673 13.271898-6.4161057 13.271898-6.4161057s-19.6173197 16.2447115-28.218959 47.1485336c-1.8040606-2.6002644-2.5525808-6.1218029-2.5525808-6.1218029s6.3033015-22.2297115 17.4996418-34.610625z" opacity=".54161"/></g></g></g></g></svg>