<svg height="400" viewBox="0 0 2000 400" width="2000" xmlns="http://www.w3.org/2000/svg" xmlns:xlink="http://www.w3.org/1999/xlink"><defs><circle id="a" cx="10.027203" cy="10.456332" r="9.913672"/><path id="b" d="m9.16295676 109.300984c0 58.919526 46.88438884 106.682997 104.71950624 106.682997 57.835117 0 104.719505-47.763471 104.719505-106.682997 0-58.9195252-46.884388-106.68299635-104.719505-106.68299635-57.8351174 0-104.71950624 47.76347115-104.71950624 106.68299635z"/><filter id="c" height="103.7%" width="103.8%" x="-1.9%" y="-1.9%"><feOffset dx="4" dy="-8" in="SourceAlpha" result="shadowOffsetInner1"/><feComposite in="shadowOffsetInner1" in2="SourceAlpha" k2="-1" k3="1" operator="arithmetic" result="shadowInnerInner1"/><feColorMatrix in="shadowInnerInner1" type="matrix" values="0 0 0 0 0   0 0 0 0 0   0 0 0 0 0  0 0 0 0.169299139 0"/></filter><path id="d" d="m13.8052151 49.063954c0 21.7507756 17.4130059 39.3831739 38.8931459 39.3831739s38.8931459-17.6323983 38.8931459-39.3831739c0-21.7507755-17.4130059-39.38317383-38.8931459-39.38317383s-38.8931459 17.63239833-38.8931459 39.38317383z"/><filter id="e" height="112.7%" width="112.9%" x="-6.4%" y="-6.3%"><feOffset dx="-1" dy="-10" in="SourceAlpha" result="shadowOffsetInner1"/><feComposite in="shadowOffsetInner1" in2="SourceAlpha" k2="-1" k3="1" operator="arithmetic" result="shadowInnerInner1"/><feColorMatrix in="shadowInnerInner1" type="matrix" values="0 0 0 0 0   0 0 0 0 0   0 0 0 0 0  0 0 0 0.16553442 0"/></filter><path id="f" d="m2.33257195 13.4481916c-3.17209962 8.7390789.34905982 18.2596799 1.28985282 20.3146225-4.80225684 7.4930687-3.97858802 16.8728207-1.98929401 24.5926018s6.61945284 15.5058559 12.73680104 19.7604732c9.1703778 6.3780002 23.2089257 5.8286395 23.2089257 5.8286395v1.3861987s-2.5129334.9141088-6.195027 4.7238086c-2.7985907 2.8955784-4.7274229 2.9797906-6.6053746 2.1687116-1.5764402-.6808575-1.3303682-2.8988269-1.5872062-6.7100604-.1863414-2.7651321-3.4963799-1.5686585-4.6309482 1.2725948-2.187446 5.4779322-.1054811 10.4837875 4.2248957 12.4168399 7.0170438 3.1323632 14.7936603-4.8501268 14.7936603-4.8501268s.9219621 5.75357-.7179432 7.543596c-1.6242087 1.772893-3.9608015 1.430488-6.264079-.741398-1.2837406-1.2105085-3.1228711-.191046-2.877885 1.551816.4673461 3.32476 2.9024993 6.489623 6.876627 6.489623 4.8831658 0 9.9941533-2.678306 9.7530252-9.5835124-.3959756-11.3395844 1.0306598-12.0647999 1.0306598-12.0647999s.5436323 4.4851265 2.615388 12.5538913c1.4335736 5.583268-3.0227621 8.221752-6.2682089 9.347718-2.7431399.951698-4.2819274 3.447301-.8537346 4.224975 5.3784616 1.220086 9.8261007-.28118 12.9760053-5.650307 2.6722156-4.554889 1.2400114-7.368267-.3834207-15.2320044-.6761485-3.2751938-.7448701-6.6879341-.7448701-6.6879341l1.1282908-.0918078s-.1843591 2.1452643 1.6944186 9.286293c1.5218428 5.7843583 2.3330675 10.7078283-.4640365 16.2438713-.9756497 1.931011-6.0332883 5.541427-3.1251838 6.281404 3.0648872.779871 7.3740417-.22505 9.9942118-4.663704 3.4365876-5.821693 2.2955839-10.640444.4456996-18.80772-1.2082458-5.3344295-1.1799972-8.2698023-1.1799972-8.2698023s2.8662698 1.2811622 3.1991918 4.71225c.5504341 5.6727644 1.9027311 10.3597503 5.8294475 12.4754583 5.6493094 3.043837 9.7465825 1.241222 11.5313635-1.37431 1.2370875-1.812907 1.3934309-5.7294012-.1772556-6.5974473-1.1910144-.6582187-2.4106278 3.0311975-4.4897055 3.3427286-2.7549789.4128089-5.7108365-.8373333-5.7108365-8.5868364 0-7.295709-3.6997367-11.1364844-3.6997367-11.1364844s19.9260195-5.0641857 24.0117798-19.2665935c2.2681454-7.8842426 2.0271278-17.3254196-.885287-27.1169861-2.8015643-9.4188859-9.645978-14.2349976-9.645978-14.2349976s.376152-9.4811369-5.6398021-17.75226018c-8.0052482-2.64376744-18.9571031 7.87383989-20.4579116 9.10515422-16.2047672-.77029387-29.7991023 5.76374656-29.7991023 5.76374656s-15.1532927-7.32332332-22.94741995-1.9679233z"/><path id="g" d="m14.6890326 178.528242c0 98.598649 80.0560643 178.528243 178.8107234 178.528243 98.75466 0 178.810724-79.929594 178.810724-178.528243 0-98.5986485-80.056064-178.528242-178.810724-178.528242-98.7546591 0-178.8107234 79.9295935-178.8107234 178.528242z"/><filter id="h" height="104.2%" width="104.2%" x="-2.1%" y="-2.1%"><feOffset dx="2" dy="-15" in="SourceAlpha" result="shadowOffsetInner1"/><feComposite in="shadowOffsetInner1" in2="SourceAlpha" k2="-1" k3="1" operator="arithmetic" result="shadowInnerInner1"/><feColorMatrix in="shadowInnerInner1" type="matrix" values="0 0 0 0 0   0 0 0 0 0   0 0 0 0 0  0 0 0 0.0543195199 0"/></filter><mask id="i" fill="#fff"><use fill="#fff" fill-rule="evenodd" xlink:href="#a"/></mask><mask id="j" fill="#fff"><use fill="#fff" fill-rule="evenodd" xlink:href="#f"/></mask></defs><g fill="none" fill-rule="evenodd"><g transform="translate(535.324219 128.878097)"><path d="m24.1796875 303.610185c-99.71875-181.515625 141.4681375-298.02832142 141.4681375-298.02832142" stroke="#2e6974" stroke-width="3"/><path d="m122.375247 21.354307c11.290289-3.4836926 44.690583-23.69678575 46.270218-9.1070946 1.579635 14.5896912-10.211479.3982488-46.199718 12.5631794-2.943233.9412028-3.104098-1.0140041-.0705-3.4560848z" fill="#2e6974" transform="matrix(.95630476 -.2923717 .2923717 .95630476 1.624603 42.94131)"/></g><g transform="matrix(.42261826 .90630779 -.90630779 .42261826 849.863359 17.678032)"><path d="m43.9240217 30.5531652c3.830554 7.9453421 14.5753537 47.9478528 14.5753537 89.7841488s-9.9590287 58.642918-9.9590287 58.642918h-11.0693987s-9.6141026-17.253762-9.6141026-58.642918c0-41.3891555 8.2286808-71.4010706 14.1089421-89.7841488 0-7.7689063 1.9582342-7.6466115 1.9582342 0z" fill="#31c0a1"/><path d="m42.8408074 0s1.0832143 22.9065537 1.0832143 30.5531652c1.4656794 3.040115 3.9436365 10.773548 6.4446362 21.5072275-5.245465 1.3273604-9.2145214 1.2253456-14.5206093.1066212 2.0451082-8.4285154 4.2055879-15.6360154 6.1177389-21.6138487 0-7.7689063.8750199-30.5531652.8750199-30.5531652z" fill="#51e0c1"/><path d="m22.5760231 118.391593-1.9997924 33.733937 22.6018797-1.772762s-.2339713 4.067635-.2339713 9.04039c-28.7229725-4.972755-32.3056975 30.122989-38.98176262 48.447675l-3.96237648 1.085508 20.7596686-88.324802z" fill="#24b394"/><path d="m22.5760231 118.391593-22.5760231 90.534748 18.6704052-90.414065z" fill="#47d6b7"/><path d="m57.7308638 140.894701s-.9439771 16.601031-5.288448 28.98717c-9.192512 0-13.5366858 0-18.3150597 0-5.1129826-12.386139-5.4088255-28.98717-5.4088255-28.98717z" fill="#008064"/><path d="m36.3552751 125.863402c0 .402531.3314964.722189.7221887.722189.4025314 0 .7221887-.319658.7221887-.722189v-7.008782c0-.402532-.3078181-.722189-.7221887-.722189h-.0236783c-.2131049 0-.4262098.047356-.7103496.130231l-1.2549509.402531c-.295979.082874-.4854055.319657-.4854055.627475 0 .331497.295979.615637.6393146.615637.0710349 0 .1775874-.011839.2604615-.035518l.8524195-.260461zm3.3386429-.213105v.118392c0 .461727.3551748.816902.8405803.816902.4735664 0 .8287412-.355175.8287412-.816902v-.118392c0-.461727-.3551748-.816902-.8287412-.816902-.4854055 0-.8405803.355175-.8405803.816902zm3.94244.213105c0 .402531.3314965.722189.7221888.722189.4025314 0 .7221887-.319658.7221887-.722189v-7.008782c0-.402532-.3078182-.722189-.7221887-.722189h-.0236784c-.2131048 0-.4262097.047356-.7103495.130231l-1.2549509.402531c-.295979.082874-.4854055.319657-.4854055.627475 0 .331497.2959789.615637.6393146.615637.0710349 0 .1775874-.011839.2604615-.035518l.8524194-.260461zm6.310272.781384c-1.8113914 0-3.1610556-.947132-3.1610556-2.379671v-.023678c0-.994489.5564405-1.621965 1.4917341-2.012657-.6985104-.367014-1.2075943-.923455-1.2075943-1.846909v-.023678c0-1.26679 1.2194334-2.237601 2.8769158-2.237601 1.6574823 0 2.8769157.958972 2.8769157 2.237601v.023678c0 .923454-.5090839 1.479895-1.2075943 1.846909.9116153.41437 1.4917341 1.006328 1.4917341 1.988979v.023678c0 1.479895-1.3496642 2.403349-3.1610555 2.403349zm0-4.901412c.8524194 0 1.4798949-.509083 1.4798949-1.219433v-.023678c0-.639315-.591958-1.160238-1.4798949-1.160238-.887937 0-1.479895.520923-1.479895 1.148398v.023679c0 .722189.6274755 1.231272 1.479895 1.231272zm0 3.681979c1.0892026 0 1.7403564-.556441 1.7403564-1.243112v-.023678c0-.757706-.7577062-1.254951-1.7403564-1.254951-.9826503 0-1.7285173.497245-1.7285173 1.254951v.023678c0 .674832.6393146 1.243112 1.7285173 1.243112z" fill="#363d4f" transform="matrix(0 -1 1 0 -78.527307 166.238071)"/><g transform="matrix(0 -1 1 0 32.723523 94.154672)"><use fill="#51e0c1" xlink:href="#a"/><path d="m6.35053535 23.4988088c.54673152.1006255.74596988-.2368052.74596988-.5266064 0-.2596136-.00939171-.9465499-.0147584-1.8582163-3.03955891.6601028-3.68087834-1.4651063-3.68087834-1.4651063-.49708964-1.2625138-1.21354272-1.5986027-1.21354272-1.5986027-.99216677-.6775446.07513366-.6641279.07513366-.6641279 1.09681722.0771462 1.67373636 1.126334 1.67373636 1.126334.97472503 1.6697114 2.55789851 1.1873801 3.18043452.9076414.09928376-.7057197.38170581-1.1873801.69364465-1.4604104-2.4264146-.2757137-4.97760475-1.2135428-4.97760475-5.4009024 0-1.1927468.425981-2.1688135 1.12499234-2.93222516-.11270048-.27638452-.48769793-1.38796014.1073338-2.89197494 0 0 .91703311-.29382626 3.00467543 1.12029649.87141625-.24284272 1.80656194-.36359323 2.7356701-.36828909.92843732.00469586 1.86291222.12544637 2.73567012.36828909 2.0863006-1.41412275 3.0019921-1.12029649 3.0019921-1.12029649.5963734 1.5040148.2213759 2.61559042.1093463 2.89197494.700353.76341166 1.1229798 1.73947836 1.1229798 2.93222516 0 4.198093-2.5552152 5.1218345-4.989009 5.3921815.3917684.3374306.7412741 1.0042418.7412741 2.023242 0 1.4610813-.0134168 2.6397406-.0134168 2.9979671 0 .2924846.1972259.6325986.7513366.5259356-2.7615175.6250875-3.76569746.6462382-6.91497975.0006708z" fill="#005442" mask="url(#i)"/></g><path d="m43.9240217 30.5531652c3.830554 7.9453421 14.5753537 47.9478528 14.5753537 89.7841488 0 24.874587-3.5206453 40.90086-6.375399 49.807207-9.3947312 0-11.0813761 0-17.7375027-.361945 12.0564508-2.719715 10.1834588-27.286587 10.1834588-51.835767 0-26.2209639.3886765-51.1471682-1.1230981-64.9361707-1.005696 0-2.4619575.1335544-7.5530918-.8201991 13.854632-1.3863813 8.833201-17.7906748 7.5530918-21.637274z" fill="#000" fill-opacity=".107478"/><path d="m75.1102853 118.391593-1.9997924 33.733937s0 0 9.744449-.764299c.8560679 0 2.9279888.40995 3.3731134 3.553706.4451247 3.143757-.3077447 4.648707-1.6613625 4.648707-18.9051647 4.599792-22.3536288 32.586555-28.0700541 48.277189l-3.9623765 1.085508 20.0632475-87.628381z" fill="#31c0a1" transform="matrix(-1 0 0 1 138.890484 0)"/><path d="m86.3562209 118.391593-22.5760231 90.534748 18.6704051-90.414065z" fill="#039273" transform="matrix(-1 0 0 1 150.136418 0)"/></g><g transform="translate(503.016335 297.625)"><use fill="#51e0c1" fill-rule="evenodd" xlink:href="#b"/><use fill="#000" filter="url(#c)" xlink:href="#b"/><path d="m10.1629568 109.300984c0-58.3713557 46.4408742-105.68299635 103.7195062-105.68299635 57.278631 0 103.719505 47.31164065 103.719505 105.68299635 0 58.371356-46.440874 105.682997-103.719505 105.682997-57.278632 0-103.7195062-47.311641-103.7195062-105.682997z" stroke="#000" stroke-opacity=".08" stroke-width="2"/><g fill="#000" fill-opacity=".120952" transform="translate(31.415852 17.01692)"><path d="m6.75555963 52.1235429c-.41861197 6.9714848 2.80844385 12.9059481 7.20783087 13.2549947 4.3993871.3490466 8.305147-5.0195003 8.723759-11.990985.418612-6.9714848-2.8084439-12.9059481-7.2078309-13.2549947-4.3993871-.3490466-8.30514701 5.0195002-8.72375897 11.990985zm5.75508187 19.7129485c3.2914434.526212 9.1815144-.6275593 11.1489425-10.1958474-5.3204153 7.8823708-10.3706407 7.5842305-13.5865109 5.9672571-3.21587024-1.6169734-3.95799668-4.2312885-5.29571084-10.1899343-.783676 10.067239 4.44183588 13.8923126 7.73327924 14.4185246z" transform="matrix(.95630476 .2923717 -.2923717 .95630476 17.000903 -1.69732)"/><path d="m137.068019 86.6426668c-.104414 14.2109852 7.541593 25.9314582 17.077835 26.1784092s17.351538-11.073135 17.455952-25.2841201c.104414-14.210985-7.541593-25.9314579-17.077835-26.178409s-17.351538 11.073135-17.455952 25.2841199zm14.682332 39.4545142c7.165017.723415 19.746676-2.240226 22.896579-21.891037-10.580706 16.577187-21.51597 16.502085-28.642898 13.554154s-9.028525-8.182575-12.599095-20.1507522c-.537537 20.5403392 11.180398 27.7642192 18.345414 28.4876352z"/><path d="m74.6357741 26.9990899c11.2985019-5.5811927 17.4832878-15.3027963 13.8141059-21.71380951-3.669182-6.41101316-15.8028871-7.08371557-27.101389-1.50252289-11.2985019 5.58119269-17.4832878 15.3027963-13.8141059 21.7138095 3.669182 6.4110132 15.8028871 7.0837156 27.101389 1.5025229zm-14.9561136 13.0614047c10.7056662.377799 22.0444858-7.9357419 29.0430362-18.5255938-10.1792831 10.5026087-22.801378 13.1587294-29.096669 13.106411-6.2952909-.0523183-14.5669608-1.3966237-18.9069698-12.5138484 2.3175422 14.4619364 8.2549364 17.5552322 18.9606026 17.9330312z"/></g><g transform="matrix(.83867057 .54463904 -.54463904 .83867057 153.688013 .307387)"><path d="m25.2659611 29.9403984c13.954005 0 25.2659611-2.2944336 25.2659611-12.0162302 0-9.72179668-3.2918447-17.60287001-25.2659611-17.60287001-21.97411642 0-25.2659611 7.88107333-25.2659611 17.60287001 0 9.7217966 11.3119561 12.0162302 25.2659611 12.0162302z" fill="#51e0c1"/><ellipse cx="25.882204" cy="9.584428" fill="#000" fill-opacity=".129076" rx="18.487289" ry="5.029391"/></g></g><g transform="translate(461.753906 102.529266)"><use fill="#c98c81" fill-rule="evenodd" xlink:href="#d"/><use fill="#000" filter="url(#e)" xlink:href="#d"/><path d="m14.8052151 49.063954c0-21.2012741 16.9681127-38.3831738 37.8931459-38.3831738 20.9250331 0 37.8931459 17.1818997 37.8931459 38.3831738s-16.9681128 38.3831739-37.8931459 38.3831739c-20.9250332 0-37.8931459-17.1818998-37.8931459-38.3831739z" stroke="#000" stroke-opacity=".08" stroke-width="2"/><g transform="matrix(-.76604444 .64278761 -.64278761 -.76604444 92.950267 56.278554)"><g fill="#000" fill-opacity=".120952"><path d="m44.6097607 13.5550984c-1.7755564-1.8882082-4.1756165-2.5301624-5.3606843-1.4338448-1.1850679 1.0963176-.7063823 3.5157539 1.069174 5.4039621 1.7755564 1.8882082 4.1756165 2.5301623 5.3606843 1.4338447 1.1850679-1.0963176.7063823-3.5157538-1.069174-5.403962zm1.5879831-.9800056c-1.2111799-1.2880244-3.7403425-3.24881519-7.4707925-1.8250549 3.7743013-.404713 5.8638657 1.8174258 6.6152717 2.6165054s2.2062522 2.3462299 1.6822979 5.7510413c1.6449351-2.7752466.3844028-5.2544674-.8267771-6.5424918z"/><path d="m13.3255065 45.953787c-5.86683637-1.8726482-11.56667495-.53713-12.73094581 2.9829633-1.16427086 3.5200934 2.64791168 7.8917742 8.51474803 9.7644225 5.86683638 1.8726482 11.56667488.5371301 12.73094578-2.9829633s-2.6479117-7.8917742-8.514748-9.7644225zm9.8837602.4699007c-3.4440441-3.7807785-10.3442641-4.6996336-16.64069648-3.3338853 7.32901628-.2513048 12.54727228 3.108011 14.63588068 5.271095 2.0886083 2.163084 4.356807 5.4569367 1.6605287 10.8720296 4.6220068-5.9104844 3.7883311-9.0284608.3442871-12.8092393z"/><path d="m52.8202769 53.9464396c2.5119889-2.6707152 3.134426-6.0539231 1.3902522-7.5566064s-5.1944754-.5558064-7.7064643 2.1149088-3.134426 6.0539231-1.3902522 7.5566064 5.1944754.5558064 7.7064643-2.1149088zm4.1677203-9.7007738c-1.2161427-1.2307219-4.0942487-2.591402-8.1311612.6427532 4.8906794-1.5185343 6.9272277.165263 7.7460807 1.8107253.8188531 1.6454623.2572041 2.925434-1.1725824 5.7332329 3.7032583-3.8011817 2.7738056-6.9559895 1.5576629-8.1867114z"/><path d="m13.646101 11.6981473c2.5119889-2.72017288 3.134426-6.1660328 1.3902522-7.69654356-1.7441738-1.53051075-5.19447545-.56609905-7.70646435 2.15407382-2.51198889 2.72017288-3.134426 6.16603284-1.39025218 7.69654354 1.74417382 1.5305108 5.19447543.5660991 7.70646433-2.1540738zm4.1677203-9.88041777c-1.2161427-1.25351306-4.0942487-2.63939093-8.13116122.65465609 4.89067942-1.54665537 6.92722772.16832338 7.74608072 1.84425721.8188531 1.67593382.2572041 2.97960871-1.1725824 5.83940387 3.7032583-3.87157394 2.7738056-7.08480411 1.5576629-8.33831717z"/></g><g transform="matrix(-.95630476 .2923717 -.2923717 -.95630476 43.276976 68.623727)"><path d="m5.98149962 7.23897779c3.30349102 0 5.98149958-.53915533 5.98149958-2.82362263 0-2.28446729-.779316-4.13639394-5.98149958-4.13639394-5.20218362 0-5.98149962 1.85192665-5.98149962 4.13639394 0 2.2844673 2.6780086 2.82362263 5.98149962 2.82362263z" fill="#c98c81"/><ellipse cx="6.12739" cy="2.65911" fill="#000" fill-opacity=".129076" rx="4.376707" ry="1.181827"/></g></g></g><path d="m187.341086 23.5080345c19.19156 10.5139069 45.617083 69.0394163 12.169257 104.5367825-33.447826 35.497367-89.755522 10.404847-88.27905 42.041386 1.476471 31.636539-60.1187769 15.973901-60.1187769 15.973901" stroke="#47c4a9" stroke-linecap="square" stroke-width="3" transform="matrix(.93969262 -.34202014 .34202014 .93969262 1273.700352 153.913786)"/><g transform="matrix(.88294759 -.46947156 .46947156 .88294759 1302.738088 274.197015)"><use fill="#51e0c1" xlink:href="#f"/><g fill="#000"><path d="m24.3677779 83.4455301s-2.7113671-.5695056-3.422372.7587353c3.36604-.5513421-.9143616 8.1386955 5.5610035 8.3531889.2849636-3.4470857-2.1386315-9.1119242-2.1386315-9.1119242zm13.059099 8.8723323c-.2007135 2.3374662 0 3.7626337 0 3.7626337l-3.4716005 2.8296948-8.3057403 2.0582451-5.8913962-.923527-1.3440372-3.6392878s3.4801908 3.7727058 9.4745042 2.1249543c5.9943135-1.6477519 7.80057-3.8752469 9.53827-6.2127131zm8.0082217-4.7437883c-.2805033 3.5892556 0 7.3442938 0 7.3442938l.4567678 2.8224294.1774209 4.4609347-3.184159 5.454143-6.6162776 2.652023-10.7255358-1.445147 1.8013006-5.087903s3.4980319 5.645189 8.9242352 3.589586c5.4262034-2.055603 6.6463433-4.916836 6.1444769-10.5938933-.5018664-5.6770575.7157957-8.3853877 3.021771-9.1964666zm7.1463926-1.3777775c.4177814.2232448.9310464.5881643.9310464.5881643l2.222386 12.8953633.3698745 7.8868848-4.2830448 4.684509-7.2831751 4.20351-8.5072798-2.519431 2.1817478-3.356599s.382099 3.845525 7.6324001 2.05131c7.250301-1.794215 8.9911397-6.41829 8.4892733-12.095347-.5018664-5.677058-2.6715547-9.3341788-1.7532284-14.3383644zm8.5219822.0477202c.80781 1.5458716 1.8176551 3.9005106 1.8176551 3.9005106l4.3380552 23.6575166-13.803804 8.095103-7.4188013-4.738505 5.2314369-3.929737s-2.3094445 6.373542 4.247032 3.047821 7.9079476-7.041295 7.4060812-12.718352c-.5018664-5.677058-1.8176551-11.3336404-1.8176551-17.3143572zm3.6282067 10.0466795 5.1628804 19.4797657 20.7430403-12.951835-7.1746411-13.3233591-4.5840325 5.9420782s3.1336089-1.3612653 2.7918177 2.9959726c-.3417912 4.3572383-4.916331 5.5193883-8.9258872 5.0282933-4.8288596-.591444-8.0131776-7.1709157-8.0131776-7.1709157zm10.9391347-95.66026072 16.6481541-1.90715845 7.4609263 75.65524197s-18.2419681 8.1131015-25.7313082 23.1636365c-6.8779887-1.1053263 1.6365986-18.6432257-15.1263657-15.7919325-6.6303193 1.1277829-10.7549408 1.582859-14.9175576 2.0927555-4.5986576.5633091-5.8159014 2.0343024-7.0072972 3.066975-.997125-1.0326726-2.5149487-.5019707-2.5149487-.5019707s-18.9959241-4.2581647-24.61458118-8.3687104c7.20685438 0 4.42032298.6277937 12.01109358 0 4.3764261 2.4237862 14.1047917 4.4612647 32.3038088.7622029 18.1990172-3.6990617 29.0436659-7.4047037 31.2577858-17.7222079 3.42029-15.9380965-7.1652249-23.1672692-7.1652249-23.1672692s-1.487758-11.4274293-11.1047016-15.9682827c12.5741853-5.7984222 8.5002165-21.31328002 8.5002165-21.31328002zm-75.53287588 13.08013482 15.73048858-10.27652934 9.4176767 12.18253184s3.1233667 6.5363522-4.2802365 11.9287395c-.320646-17.59357798-20.86792878-13.834742-20.86792878-13.834742zm55.51525548-6.56904634s-4.5077548 8.75988424 8.4783275 13.95362984c-12.549138-3.4401506-9.636727-9.3734774-12.6137298-10.3680068-3.6021062-1.20335826-7.3375247-2.19793822-7.7688523-3.58562304 5.9554924-2.41887135 11.9042546 0 11.9042546 0z" mask="url(#j)" opacity=".224128"/><g fill-rule="nonzero" mask="url(#j)" opacity=".327106"><g transform="translate(16.797958 85.057472)"><path d="m28.1643502 8.41756286c.1814115.23916514.5226221.57315383 1.0309093.90154093 1.1084283.71611791 2.4979828 1.04318701 4.1542991.76947511 1.2558908-.20754016 2.2853981-.61877507 3.1063286-1.17663474.7552287-.51321234 1.2001866-1.03949487 1.4009138-1.41650102l-.872015-.46515173c-.0253189.04755393-.0963059.15404706-.2202129.30060049-.2174043.25713907-.5026553.51742535-.8637035.76277403-.702437.47733797-1.5974743.83485909-2.7122687 1.01908263-1.4044487.23208988-2.5481036-.03710009-3.4574815-.62461832-.2368439-.1530168-.4378995-.31619731-.6030184-.47782139-.0947197-.09271491-.1536746-.16037968-.1767591-.19081333z"/><path d="m20.2280747 10.7129003c.1220951.1382092.3587886.3006564.7364093.4456536.7920995.304147 1.9511979.4277978 3.5513587.2874205 1.3818637-.1212268 2.4985226-.5747942 3.3673038-1.2575379.6282753-.49373869 1.0069002-.99572338 1.1839478-1.35329357l-.8853483-.43919338c-.0235203.04750229-.0861527.15082372-.1923421.29161065-.1844945.2446047-.4217838.4913833-.7164547.72295445-.7202924.56605158-1.6557216.94600675-2.8433791 1.05019635-1.4599601.1280779-2.4710293.0202186-3.1111763-.2255823-.2308515-.0886414-.3345808-.1598327-.3500844-.1773825z"/><path d="m36.9607235 7.40305364c.1814116.23916513.5226221.57315383 1.0309093.90154093 1.1084283.71611794 2.4979829 1.043187 4.1542991.76947515 1.2558909-.2075402 2.2853981-.61877511 3.1063286-1.17663478.7552287-.51321235 1.2001866-1.03949487 1.4009138-1.41650102l-.872015-.46515173c-.0253188.04755393-.0963059.15404706-.2202129.30060049-.2174042.25713907-.5026553.51742535-.8637034.76277402-.7024371.47733798-1.5974744.8348591-2.7122688 1.01908264-1.4044486.23208988-2.5481036-.03710009-3.4574815-.62461832-.2368439-.1530168-.4378995-.31619731-.6030184-.47782139-.0947197-.09271491-.1536745-.16037968-.1767591-.19081333z"/><path d="m46.4337409 7.91030825c.1814116.23916513.5226222.57315383 1.0309093.90154093 1.1084283.71611794 2.4979829 1.043187 4.1542991.76947515 1.2558909-.2075402 2.2853982-.61877511 3.1063286-1.17663478.7552288-.51321234 1.2001866-1.03949487 1.4009138-1.41650102l-.8720149-.46515173c-.0253189.04755393-.096306.15404706-.220213.30060049-.2174042.25713907-.5026552.51742535-.8637034.76277402-.702437.47733798-1.5974744.8348591-2.7122688 1.01908264-1.4044486.23208988-2.5481036-.03710009-3.4574815-.62461832-.2368439-.1530168-.4378995-.31619731-.6030184-.47782139-.0947196-.09271491-.1536745-.16037968-.176759-.19081333z"/><path d="m46.602902 9.93932669c.1814115.23916511.5226221.57315381 1.0309092.90154091 1.1084283.716118 2.4979829 1.043187 4.1542992.7694752 1.2558908-.2075402 2.2853981-.6187751 3.1063286-1.1766348.7552287-.51321235 1.2001865-1.03949488 1.4009138-1.41650103l-.872015-.46515172c-.0253189.04755392-.0963059.15404705-.220213.30060049-.2174042.25713906-.5026552.51742534-.8637034.76277402-.702437.47733794-1.5974743.83485914-2.7122688 1.01908264-1.4044486.2320899-2.5481035-.0371001-3.4574814-.6246183-.2368439-.15301683-.4378995-.31619733-.6030184-.47782141-.0947197-.09271492-.1536746-.16037968-.1767591-.19081334z"/><path d="m65.6401596 17.3891177c.025622-.0622453.0576522-.1600755.0877439-.2895965.2332602-1.0039992-.0011455-2.1470105-1.0310756-3.1979066-.1722356-.1757417-.3648077-.3455595-.5783005-.5090351-1.3829807-1.0589751-2.6704867-1.2151687-3.7206076-.8143753-.1997014.0762188-.345973.1565245-.4354646.2194536l.5680171.8092916c.0257207-.0180863.1007958-.0593039.2194978-.1046082.7380284-.2816789 1.6645729-.1692753 2.7681795.6757776.1767954.1353757.334244.2742202.4732949.4161017.7725153.7882411.9358559 1.5847246.7740249 2.2812785-.0174064.0749205-.0328743.1221645-.0389178.1368462z"/><path d="m36.6163278 26.9042388c-.0587282.0926547-.1350935.2445287-.2081852.4499875-.4242308 1.1925014-.2094712 2.5886865 1.0593471 3.9705871 1.3264012 1.4446155 2.7079545 1.7943044 3.8824821 1.4893057.1420946-.0368989.2486838-.0762859.3162424-.1079465l-.4189871-.8957242c-.0147382.0069069-.064706.0253711-.1453923.0463235-.8344929.2166993-1.8381851-.0373481-2.9068085-1.2012116-1.0075737-1.0973729-1.1628744-2.1070061-.8560217-2.9695607.0468603-.1317231.090447-.2184077.1116869-.2519175z"/><path d="m35.2554406 28.0865234c-.0564232.0890181-.1293309.2340158-.1989651.4297556-.4031579 1.1332659-.199065 2.460105 1.0041379 3.7705422 1.2573663 1.369428 2.5701666 1.7017146 3.6867856 1.4117535.1356732-.0352313.2377497-.0729509.3029361-.1034998l-.4189871-.8957242c-.012366.0057952-.0578212.0225919-.1320859.0418768-.7765844.2016617-1.7115236-.0349834-2.711112-1.1236593-.9419584-1.0259096-1.0865924-1.9661969-.8008127-2.7695159.0434028-.1220041.083532-.2018124.1024668-.2316856z"/><path d="m26.7893723 22.5247311c-.238214.1246923-.5645986.3736779-.8850148.7715343-.7426957.9221953-1.0498449 2.1891589-.6904557 3.8006062.2626911 1.1778673.7500208 2.0571199 1.4025107 2.6679152.63925.5984016 1.2909953.8391357 1.7584626.8793393l.0845897-.9854096c-.049651-.0042702-.1668132-.0285749-.3285286-.0883075-.2834532-.1046986-.5696274-.2752758-.839586-.5279839-.5039176-.471717-.8927887-1.173328-1.1130697-2.1610347-.2931404-1.3143974-.0604374-2.2742769.495367-2.9644117.1334462-.1656982.2757084-.3014719.4162447-.4086815.07928-.0604795.1355338-.0956973.1573863-.1071359z"/><path d="m26.024805 22.6670093c-.3686086.0558492-.8784845.2571214-1.3824726.7012435-.672096.5922613-1.1224468 1.4709844-1.2563262 2.6626404-.1535802 1.3670127.1496135 2.4154401.7612706 3.1614811.3116997.3801816.6320543.6052061.8697944.710711l.400499-.9041576c-.1063222-.0471839-.3020611-.1846754-.5064548-.4339754-.4410736-.5379795-.6671799-1.319843-.543183-2.4235356.1066943-.9496823.4412553-1.6024767.9273399-2.030822.2020043-.1780092.4176564-.3051005.6316272-.3895649.1221577-.0482215.2100887-.0707104.2457935-.0761202z"/><path d="m17.621315 16.9719752c-.0717005-.0310453-.1868442-.070717-.3405547-.1083159-1.1875838-.2904933-2.5391967-.0052795-3.7829964 1.2603221-.1541591.1568613-.3045837.3275761-.4510703.5124624-1.2474221 1.5744196-1.4449487 3.0464511-1.0012729 4.2510437.080494.2185435.1649089.378172.2301422.474651l.8183247-.5543382c-.0226396-.0334836-.0700339-.1231064-.1213492-.2624288-.3275302-.8892537-.1787499-1.998012.8483622-3.2943697.1248604-.1575912.2520279-.3019118.381286-.4334355.9794175-.9965852 1.9728813-1.2062234 2.8440011-.9931399.0971185.023756.1600525.0454394.18282.0552974z"/><path d="m16.8721519 16.6433612c-.1078652-.0985604-.2907469-.2285827-.5456558-.3541037-1.0393139-.5117738-2.3200075-.4815394-3.7267775.4184125-.3465646.2217075-.647371.4592633-.9044302.7110583-.964084.944341-1.2353297 1.9647625-1.1074793 2.8320649.0104649.0709912.0220056.1256504.0319285.1624886l.9540473-.2574672c-.0001703-.0006322-.0037694-.0176781-.0084442-.0493908-.0293511-.1991099-.0210582-.4516928.0548243-.7371613.1119775-.4212572.3544847-.840342.7662309-1.2436562.2076558-.2034034.4551019-.3988189.7454564-.5845672 1.1049255-.7068532 2.019017-.7284329 2.7584612-.3643194.1648557.0811775.2727039.1578536.3156469.1970923z"/><path d="m7.375432 3.45333198c-.08566679-.20097104-.27083366-.46244398-.58863278-.7122907-.70727149-.55604137-1.75458322-.77738362-3.16961032-.51273244-1.00755778.18844257-1.8012516.52609584-2.40206328.97533306-.61255301.45801641-.92647083.93763196-1.03762549 1.29267076l.94290216.2957545c.00729972-.02331601.04076125-.0961519.11085445-.20324296.12916078-.19733673.31674639-.39954755.57522599-.5928172.47653667-.35631465 1.1296524-.63416318 1.99219838-.79548434 1.14602319-.21433962 1.90399867-.05414664 2.37776973.31832181.17584544.13824584.26551344.26486545.29013334.32262277z"/><path d="m7.55277097 2.04009061c-.1059795-.24271664-.32788462-.57317974-.69809868-.89758323-.76730573-.67235875-1.84234016-.99287663-3.23109562-.78304997-1.12570652.17008268-1.96615877.58948959-2.54796502 1.18868178-.48806205.50264666-.70806342 1.01655897-.76663588 1.39047818l.97618896.15320132c.00492525-.03144217.02768591-.114821.07810015-.23258616.08966634-.20945614.22651508-.42154302.42093675-.62177454.42824032-.44103729 1.07063111-.76160652 1.98685865-.90003908 1.09947641-.16611957 1.88291784.06746084 2.43274853.54925507.14683572.12866616.26470804.26582518.35561914.4012108.05095081.07587641.07953757.12908162.08792367.14828767z"/><path d="m67.7200248 16.2188296c.0139911-.0476054.0312282-.1217806.0472843-.2197968.1492604-.9111732-.0557307-1.9605848-.8815441-2.9440514-.3495388-.416268-.7977519-.7966699-1.3510258-1.1349195-1.6191168-.9898637-3.0411286-1.0506092-4.1680206-.5325055-.2647388.1217172-.4534749.2484875-.5641143.3450575l.6494204.7454287c.0431073-.0376257.1540578-.1121488.3271386-.1917251.8331909-.3830707 1.9074687-.3371797 3.2405214.4777957.4639852.2836621.8303503.594599 1.1096555.9272254.6204242.7388671.76903 1.4996258.6628742 2.1476635-.0092277.0563315-.0172745.0909588-.0201394.1007066z"/><path d="m28.0999065 10.6652855c.2192538.1862339.6139712.4492613 1.1698987.7081448 1.2745963.5935521 2.7623533.8486959 4.4180754.5750822 1.2106605-.2000657 2.1936455-.5604687 2.9699658-1.0388013.7733161-.4764815 1.2129786-.97139104 1.4010567-1.33233849l-.8761138-.45737008c-.0188776.03622873-.0806635.12729351-.1952665.25629726-.2057116.23156091-.4845645.46743515-.8476626.69115931-.6651555.409838-1.5267134.7257208-2.6129373.9052229-1.4469567.2391145-2.7367142.0179268-3.8403058-.4959922-.2756524-.1283654-.5165489-.2652878-.7203432-.40109-.1178781-.07855035-.1943271-.13664715-.2270269-.16442236z"/><path d="m19.3035332 12.1870493c.2192538.1862339.6139712.4492613 1.1698987.7081448 1.2745963.5935522 2.7623532.8486959 4.4180754.5750823 1.2106605-.2000658 2.1936455-.5604688 2.9699658-1.0388013.7733161-.4764815 1.2129786-.9713911 1.4010567-1.3323386l-.8761138-.45737c-.0188776.0362287-.0806635.1272935-.1952665.2562972-.2057116.2315609-.4845646.4674352-.8476626.6911593-.6651555.409838-1.5267135.7257208-2.6129373.905223-1.4469567.2391144-2.7367142.0179267-3.8403058-.4959922-.2756524-.1283654-.5165489-.2652879-.7203432-.4010901-.1178782-.0785503-.1943271-.1366471-.227027-.1644223z"/><path d="m37.0654409 9.65077629c.2192538.18623389.6139711.44926121 1.1698987.70814481 1.2745963.5935521 2.7623532.8486959 4.4180754.5750822 1.2106605-.2000657 2.1936455-.5604687 2.9699658-1.03880128.7733161-.47648152 1.2129785-.97139108 1.4010567-1.33233854l-.8761138-.45737007c-.0188777.03622873-.0806636.12729351-.1952665.25629726-.2057116.23156091-.4845646.46743515-.8476626.69115931-.6651555.40983795-1.5267135.72572078-2.6129373.90522294-1.4469567.23911448-2.7367142.01792673-3.8403059-.4959922-.2756524-.12836541-.5165488-.26528788-.7203431-.40109007-.1178782-.07855033-.1943271-.13664712-.227027-.16442233z"/></g></g><g mask="url(#j)" opacity=".332144"><g transform="translate(20.750419 86.541032)"><ellipse cx="6.653667" cy="7.554698" rx="1.184127" ry="1"/><ellipse cx="3.270446" cy="6.709274" rx="1.184127" ry="1" transform="matrix(.78801075 .61566148 -.61566148 .78801075 4.823941 -.591194)"/><ellipse cx="1.288988" cy="4.064055" rx="1.184127" ry="1" transform="matrix(.30901699 .95105652 -.95105652 .30901699 4.755815 1.582293)"/><ellipse cx="9.867726" cy="6.032934" rx="1.184127" ry="1" transform="matrix(.8571673 -.51503807 .51503807 .8571673 -1.697757 5.943955)"/><ellipse cx="12.405142" cy="3.834831" rx="1.184127" ry="1" transform="matrix(.7313537 -.68199836 .68199836 .7313537 .717247 9.4905)"/><ellipse cx="14.604235" cy="1.467643" rx="1.184127" ry="1" transform="matrix(.7313537 -.68199836 .68199836 .7313537 2.922444 10.354341)"/></g></g></g><g transform="translate(9.794778 28.078364)"><ellipse cx="56.073323" cy="23.881176" fill="#fff" rx="6.701653" ry="9.535593" transform="matrix(.98162718 -.190809 .190809 .98162718 -3.526518 11.138059)"/><ellipse cx="56.073323" cy="23.881176" fill="#000" rx="4.326384" ry="6.160162" transform="matrix(.98162718 -.190809 .190809 .98162718 -3.526518 11.138059)"/><ellipse cx="20.783607" cy="28.775552" fill="#fff" rx="6.701653" ry="9.535593" transform="matrix(.98162718 -.190809 .190809 .98162718 -5.108781 4.494387)"/><g fill="#000"><ellipse cx="20.783607" cy="28.60678" rx="4.326384" ry="6.160162" transform="matrix(.98162718 -.190809 .190809 .98162718 -5.076578 4.491286)"/><ellipse cx="38.85262" cy="34.429399" rx="1.696621" ry="1.687716"/><path d="m35.8358495 39.4171416c.7957723 1.1966013 2.1407222 1.9318916 3.6105883 1.9318916 1.8763123 0 3.521195-1.1989606 4.1052224-2.942026.0888851-.2652829-.0552484-.5520146-.3219311-.6404331-.2666827-.0884186-.5549274.0549584-.6438125.3202413-.4464799 1.3325466-1.7045914 2.2495884-3.1394788 2.2495884-1.1245822 0-2.1523679-.5618951-2.761579-1.4779648-.1550956-.2332169-.4708825-.2972067-.70533-.1429252-.2344474.1542815-.2987749.4684109-.1436793.7016278z" fill-rule="nonzero"/></g><path d="m38.8526204 48.9437535c19.6773758 0 35.6290406-1.3191972 35.6290406-21.5183744 0-11.88427-15.9516648-21.51837436-35.6290406-21.51837436-19.6773757 0-35.62904054 9.63410436-35.62904054 21.51837436 0 18.5040697 15.95166484 21.5183744 35.62904054 21.5183744z" fill="#c98c81" opacity=".772418" transform="matrix(.98480775 -.17364818 .17364818 .98480775 -4.172108 7.16334)"/><g fill="#fff"><path d="m64.7658549 15.1538405c6.9737087 6.8217334 4.8784481 17.741781.8542752 21.6756088-5.5395577 5.4151914-11.1773093 8.0983981-30.5467992 10.9942148 5.4209029-10.9942148 20.5529726-30.4187669 29.692524-32.6698236z" opacity=".154891"/><path d="m31.1353146 10.2535318c4.0775236-1.50773662 8.1013652-1.49817729 8.1013652-1.49817729s-16.4075179 14.65889809-24.7140019 37.37960509c-2.1280663-.6757455-3.9045478-2.9357022-3.9045478-2.9357022s3.5532943-14.9804541 20.5171845-32.9457256z" opacity=".54161"/><path d="m19.2417364 14.8410198c3.9138263-2.4043356 8.6663532-4.1896223 8.6663532-4.1896223s-12.8098197 10.6075565-18.42656302 30.7872956c-1.17802492-1.6979343-1.66679756-3.9974468-1.66679756-3.9974468s4.11596278-14.5156731 11.42700738-22.6002265z" opacity=".54161"/></g></g></g><g transform="translate(1150.769531 -154.004012)"><use fill="#c98c81" fill-rule="evenodd" xlink:href="#g"/><use fill="#000" filter="url(#h)" xlink:href="#g"/><path d="m15.6890326 178.528242c0-98.0460096 79.6079955-177.528242 177.8107234-177.528242 98.202728 0 177.810724 79.4822324 177.810724 177.528242 0 98.04601-79.607996 177.528243-177.810724 177.528243-98.2027279 0-177.8107234-79.482233-177.8107234-177.528243z" stroke="#000" stroke-opacity=".08" stroke-width="2"/><g transform="matrix(-.88294759 -.46947156 .46947156 -.88294759 146.905807 365.168236)"><path d="m40.9010682 46.8740902c22.5890363 0 40.9010683-3.6299456 40.9010683-19.0104705s-5.3289073-27.8489038-40.9010683-27.8489038c-35.57216092 0-40.9010682 12.4683789-40.9010682 27.8489038s18.312032 19.0104705 40.9010682 19.0104705z" fill="#c98c81"/><ellipse cx="41.898655" cy="14.6696" fill="#000" fill-opacity=".129076" rx="29.927611" ry="7.95683"/></g><g transform="matrix(-.12186934 -.99254615 .99254615 -.12186934 10.251172 243.791148)"><path d="m40.9010682 46.8740902c22.5890363 0 40.9010683-3.6299456 40.9010683-19.0104705s-5.3289073-27.8489038-40.9010683-27.8489038c-35.57216092 0-40.9010682 12.4683789-40.9010682 27.8489038s18.312032 19.0104705 40.9010682 19.0104705z" fill="#c98c81"/><ellipse cx="41.898655" cy="14.6696" fill="#000" fill-opacity=".129076" rx="29.927611" ry="7.95683"/></g><g fill="#000" fill-opacity=".120952" transform="translate(57.626205 32.202879)"><path d="m149.118192 273.402109c-15.947288 0-28.87512-7.901738-28.87512-17.649026s12.927832-17.649026 28.87512-17.649026c15.947289 0 28.875121 7.901738 28.875121 17.649026s-12.927832 17.649026-28.875121 17.649026zm-2.208871 11.038475c-10.878301 0-27.34301-4.709959-33.004614-23.424444 13.188999 16.38771 26.255806 16.38771 33.004614 16.38771 6.748807 0 25.516382 0 39.458905-18.275767-9.156635 22.297877-28.580605 25.312501-39.458905 25.312501z"/><path d="m18.0700094 241.889911c7.5833864 2.463019 14.9523036.702191 16.4589371-3.93292 1.5066336-4.635111-3.4195479-10.389282-11.0029343-12.852301s-14.9523036-.70219-16.45893718 3.932921c-1.50663359 4.63511 3.41954788 10.389281 11.00293438 12.8523zm-2.7565928 4.907952c5.1729394 1.680127 14.8755551 3.246571 22.6763655-5.94248-9.4549399 6.537256-18.3794522 3.638651-21.5887009 2.596314-3.2092486-1.042336-9.42288442-3.060472-13.16158601-12.890299-.20043631 9.773688 6.90098211 14.556339 12.07392141 16.236465z" transform="matrix(.94551858 .32556815 -.32556815 .94551858 77.968821 6.148786)"/><path d="m188.576449 158.831767c-.133766 7.5023 9.661659 13.689802 21.878695 13.820173s22.22934-5.845757 22.363107-13.348057c.133766-7.5023-9.661659-13.689802-21.878695-13.820173s-22.22934 5.845758-22.363107 13.348057zm18.809777 20.828929c9.17922.381907 25.297791-1.182666 29.333184-11.556773-13.555117 8.751472-27.564463 8.711824-36.694888 7.155544-9.130425-1.556279-11.566592-4.319766-16.140908-10.638037-.688646 10.843709 14.323392 14.657359 23.502612 15.039266z"/></g></g><g fill="#c98c81"><circle cx="321.171875" cy="86" opacity=".29512" r="3"/><circle cx="274.28125" cy="276.746094" opacity=".561424" r="3.5"/><circle cx="1882.30078" cy="86.5" opacity=".29512" r="3.5"/><circle cx="1900.30859" cy="333.113281" opacity=".935632" r="3"/><circle cx="428.460938" cy="284.246094" opacity=".186594" r="4"/><circle cx="1263" cy="47" opacity=".536005" r="3"/><circle cx="562.410156" cy="41" opacity=".536288" r="3"/><circle cx="1284.5" cy="250.5" opacity=".179178" r="2.5"/><circle cx="139.839844" cy="175.914062" r="2.5"/><circle cx="84.660156" cy="303" opacity=".153193" r="5"/><circle cx="1073.4375" cy="63.5" r="2.5"/><circle cx="48.5625" cy="52" opacity=".69486" r="3"/><circle cx="1678.20703" cy="127.480469" opacity=".331635" r="5.5"/><circle cx="1166.50391" cy="365.5" opacity=".228261" r="2"/></g><g fill="#51e0c1"><circle cx="1562.62891" cy="311.5" opacity=".46558" r="3.5"/><circle cx="646" cy="242" opacity=".441236" r="2"/><circle cx="963.5" cy="85.5" r="2.5"/><circle cx="1841.10938" cy="226.5" opacity=".1875" r="3.5"/><circle cx="1945.94141" cy="194.601562" r="2"/><circle cx="242.03125" cy="301" r="2"/><circle cx="1685.70703" cy="300" r="2"/></g></g></svg>