<svg height="237" viewBox="0 0 1423 237" width="1423" xmlns="http://www.w3.org/2000/svg"><g fill="none" fill-rule="evenodd"><g fill="#2e6974" transform="translate(70.854301 39.204149)"><path d="m173.587904 62.5166824 18.311465 11.4380354 44.443157-38.0765093 44.380416 30.7356827 30.203711-21.8259943 26.758242 29.1668209 12.358447-11.4380354 46.848446 47.5225896 16.281582-4.642136 14.088191 11.962729 19.064558-5.435462 38.838072 9.63145 26.327904-9.63145 16.293888 13.604364 24.577258-20.131631 26.14032 11.962729 48.579682-7.320593 28.282583 7.320593 26.403455-5.435462 18.14222 5.435462 46.098659-16.827939 65.694931 21.023927h33.75997l20.606419-21.023927 33.273438 24.996841 79.941259-35.2268195 30.617333 15.0951885 18.28388-15.0951885 38.58789 37.8267295 73.47198-16.204274 146.78906 55.410511h-1286.66015223l41.46484373-65.728353 32.7148438 23.922206 71.5179547-13.604364z"/><ellipse cx="906.23962" cy="68.091981" rx="19.773514" ry="19.803636"/><ellipse cx="936.959186" cy="67.738345" rx="29.307172" ry="29.351818"/><ellipse cx="1012.522256" cy="59.251072" rx="29.307172" ry="29.351818"/><ellipse cx="1227.559217" cy="36.264708" rx="21.892104" ry="21.925455"/><ellipse cx="1246.559217" cy="103.264708" rx="21.892104" ry="21.925455"/><ellipse cx="1175.300645" cy="26.36289" rx="26.129286" ry="26.169091"/><ellipse cx="1135.300645" cy="60.36289" rx="26.129286" ry="26.169091"/><ellipse cx="1239.785309" cy="67.290163" rx="21.870319" ry="21.903636"/><ellipse cx="1220.30128" cy="105.790163" rx="32.354348" ry="32.403636"/></g><g fill="#51e0c1"><g><path d="m147.624774 173.278844 54.493106-62.792151 47.313184 31.50853 53.631057-41.066146 16.276876 9.557616 24.398845-45.1316131 65.13574 74.6009271 24.243558-13.927978 35.501065 54.74359 186.020997-10 16.016496-5.289364 6.82007 5.289364h79.927196l11.568864-5.289364 29.351552 5.289364 107.898468 9 73.36409-28.972966 22.916012-1.115369 49.65098 28.038186 33.17804-20.670465 29.39469-6.563398 24.27218 14.994648 59.7895-15.798971 81.90797 15.798971 62.84295 25.289364 79.46174 46.228381h-1423l74.5273438-52.207031z"/><path d="m134.45178 228.722821c-46.2126196-11.308852-5.471247-63.116665 9.381694-127.034835 20.351327-90.2001384 81.021562-82.9449448 81.021562-82.9449448 40.311611 2.497092 58.372457-12.56751418 58.372457-12.56751418 30.74878-18.17364172 16.981393 10.36926888 16.981393 10.36926888-15.861965 28.5868297-51.422179 30.9518858-51.422179 30.9518858-57.302798 5.2394438-64.140813 53.9193563-64.440792 74.2278153.070843 36.169597-3.681516 118.307177-49.894135 106.998324zm34.433145-115.640129c2.635209.685343 5.533825-1.785256 6.5556-5.567015.967472-3.729442-.322086-7.36468-2.967798-8.0788092-2.566765-.6653712-5.530185 1.8287592-6.499945 5.5631062-.977557 3.802378.332588 7.393466 2.912143 8.082718zm6.678244-24.3523025c2.427046 1.1317504 5.744521-.8389461 7.315882-4.3883184 1.587711-3.5716091.880203-7.287796-1.59106-8.4401653-2.425695-1.0833417-5.746471.8559539-7.31453 4.436727-1.598214 3.5428229-.895879 7.3342372 1.589708 8.3917567zm13.078475-23.4163106c2.043263 1.8008503 5.770244.863198 8.342413-2.0104607 2.627485-2.8896698 3.091956-6.7461643 1.073257-8.5355597-2.027849-1.769773-5.772194-.8461903-8.351563 2.030083-2.552179 2.8949248-3.046803 6.7134691-1.064107 8.5159374zm19.879145-17.6053676c.971033 2.5610078 4.751604 3.3683555 8.338 1.9112558 3.621464-1.4168584 5.744438-4.6612309 4.71749-7.1408113-1.03381-2.4648637-4.769904-3.3291109-8.365451-1.8523889-3.627052 1.3903631-5.726137 4.6219863-4.690039 7.0819444zm23.97461-8.3019643c.427454 2.456839 3.591458 3.9322383 7.118074 3.3729625 3.480707-.6404054 5.988803-3.0303277 5.579051-5.4609949-.402888-2.4453841-3.571805-3.9230743-7.056491-3.3382741-3.493836.6044226-6.061823 3.0201671-5.640634 5.4263065zm22.52923-3.7143962c.642896 2.0974376 3.560516 2.9980821 6.557041 2.0363422 2.974247-.9781004 4.837357-3.370171 4.209876-5.4365313-.663484-2.0532873-3.598807-2.9801035-6.570766-2.0069087-2.947135.9071313-4.84422 3.3848878-4.196151 5.4070978zm20.461613-11.2480264c-1.995717 1.6374534-2.633246 4.1590748-1.458657 5.5011053 1.131127 1.4352364 3.732093 1.1550222 5.70418-.5472003 2.011729-1.6717925 2.671198-4.1891555 1.455355-5.5325062-1.154002-1.3861806-3.726166-1.1164248-5.700878.5786012z"/></g><g><ellipse cx="1113.090909" cy="122.703017" rx="28.636364" ry="28.566125"/><ellipse cx="1155.8229" cy="160.907193" rx="43.105728" ry="43"/><ellipse cx="1255.361012" cy="150.397382" rx="54.64384" ry="54.509811"/><ellipse cx="1069.8229" cy="165.907193" rx="43.105728" ry="43"/><ellipse cx="1054.757576" cy="114.591648" rx="48.787879" ry="48.668214"/><ellipse cx="1063.59596" cy="65.570766" rx="21.565657" ry="21.512761"/><ellipse cx="1004.555556" cy="57.459397" rx="15.555556" ry="15.517401"/><ellipse cx="1001.373738" cy="134.693736" rx="40.656566" ry="40.556845"/><ellipse cx="1244.217172" cy="96.250315" rx="29.5" ry="29.427643"/><ellipse cx="1281.217172" cy="80.354459" rx="21.5" ry="21.447266"/><ellipse cx="1303.384104" cy="162.773285" rx="33.333068" ry="33.251309"/><ellipse cx="1257.686869" cy="21.487239" rx="10.606061" ry="10.580046"/><ellipse cx="1301.39394" cy="116.042626" rx="28.323232" ry="28.253762"/><ellipse cx="1185.964979" cy="130.088167" rx="27.247807" ry="27.180975"/></g></g></g></svg>