<svg height="163" viewBox="0 0 164 163" width="164" xmlns="http://www.w3.org/2000/svg" xmlns:xlink="http://www.w3.org/1999/xlink"><defs><path id="a" d="m7 83.5c0 45.011309 35.81712 81.5 80 81.5s80-36.488691 80-81.5-35.81712-81.5-80-81.5-80 36.488691-80 81.5z"/><filter id="b" height="108%" width="108.1%" x="-4.1%" y="-4%"><feOffset dx="4" dy="-13" in="SourceAlpha" result="shadowOffsetInner1"/><feComposite in="shadowOffsetInner1" in2="SourceAlpha" k2="-1" k3="1" operator="arithmetic" result="shadowInnerInner1"/><feColorMatrix in="shadowInnerInner1" type="matrix" values="0 0 0 0 0   0 0 0 0 0   0 0 0 0 0  0 0 0 0.169299139 0"/></filter></defs><g fill="none" fill-rule="evenodd" transform="translate(-3 -2)"><use fill="#51e0c1" fill-rule="evenodd" xlink:href="#a"/><use fill="#000" filter="url(#b)" xlink:href="#a"/><path d="m9 83.5c0-43.91497 34.9300908-79.5 78-79.5 43.069909 0 78 35.58503 78 79.5s-34.930091 79.5-78 79.5c-43.0699092 0-78-35.58503-78-79.5z" stroke="#000" stroke-opacity=".08" stroke-width="4"/><g fill="#000" fill-opacity=".120952" transform="translate(24 13)"><path d="m5.16087968 39.8195484c-.31979675 5.3258348 2.14549817 9.8594415 5.50639032 10.1260941 3.3608921.2666527 6.34468-3.8346248 6.6644768-9.1604596.3197967-5.3258347-2.1454982-9.8594415-5.5063903-10.1260941-3.36089218-.2666526-6.34468007 3.8346249-6.66447682 9.1604596zm4.39656918 15.0596192c2.51448354.4019973 7.01417704-.4794211 8.51718494-7.7890722-4.0645076 6.0217021-7.9226047 5.7939391-10.37935448 4.5586595-2.45674974-1.2352796-3.02369393-3.2324741-4.0456347-7.784555-.5986858 7.6908224 3.39332073 10.6129703 5.90780424 11.0149677z" transform="matrix(.95630476 .2923717 -.2923717 .95630476 12.987764 -1.29666)"/><path d="m104.712503 66.1902794c-.079767 10.8564186 5.761366 19.8102217 13.046536 19.9988789 7.285169.1886572 13.25563-8.4592721 13.335396-19.3156908.079767-10.8564187-5.761366-19.8102217-13.046536-19.9988789-7.285169-.1886572-13.25563 8.4592721-13.335396 19.3156908zm11.216502 30.1411002c5.473682.55265 15.085385-1.7114104 17.49174-16.7235604-8.083084 12.6640687-16.43703 12.6066949-21.881615 10.3546361s-6.897302-6.2510417-9.625023-15.3940776c-.410648 15.6917004 8.541215 21.2103519 14.014898 21.7630019z"/><path d="m68.6977295 124.847416c-8.4723841 0-15.3406084-4.272535-15.3406084-9.542974s6.8682243-9.542974 15.3406084-9.542974c8.472384 0 15.3406084 4.272535 15.3406084 9.542974s-6.8682244 9.542974-15.3406084 9.542974zm-1.1735167 5.968595c-5.7793611 0-14.5266373-2.546713-17.5345018-12.66579 7.006976 8.86097 13.9490341 8.86097 17.5345018 8.86097s13.5561973 0 20.9635007-9.881858c-4.8646841 12.056646-15.1841396 13.686678-20.9635007 13.686678z"/><path d="m57.0176671 20.6258345c8.6314402-4.2637273 13.3562798-11.69050314 10.5532247-16.58816809-2.8030552-4.89766495-12.0725452-5.41157296-20.7039854-1.14784567-8.6314402 4.2637273-13.3562798 11.69050306-10.5532246 16.58816806 2.8030552 4.8976649 12.0725451 5.411573 20.7039853 1.1478457zm-11.4256563 9.9782019c8.178546.2886178 16.8407867-6.0624747 22.1872981-14.1525449-7.7764179 8.0234211-17.4190111 10.0525527-22.2282706 10.0125844-4.8092595-.0399684-11.1283649-1.0669445-14.4438954-9.5598988 1.770476 11.0481319 6.3063219 13.4112415 14.4848679 13.6998593z"/></g><g transform="matrix(-.25881905 -.96592583 .96592583 -.25881905 8.818363 118.301222)"><path d="m15.5 18c8.5604136 0 15.5-1.3943639 15.5-7.3024549 0-5.90809103-2.0194598-10.6975451-15.5-10.6975451-13.48054021 0-15.5 4.78945407-15.5 10.6975451 0 5.908091 6.93958638 7.3024549 15.5 7.3024549z" fill="#51e0c1"/><ellipse cx="15.253065" cy="5.130306" fill="#000" fill-opacity=".129076" rx="11.326923" ry="3"/></g><g transform="matrix(.83867057 .54463904 -.54463904 .83867057 117.409273 .234827)"><path d="m19.3018184 22.872834c10.6601 0 19.3018184-1.7528223 19.3018184-9.1797456 0-7.42692321-2.51479-13.44763408-19.3018184-13.44763408-16.78702832 0-19.3018184 6.02071087-19.3018184 13.44763408 0 7.4269233 8.64171846 9.1797456 19.3018184 9.1797456z" fill="#51e0c1"/><ellipse cx="19.772595" cy="7.321981" fill="#000" fill-opacity=".129076" rx="14.123282" ry="3.842181"/></g></g></svg>