<svg height="1508" viewBox="0 0 1898 1508" width="1898" xmlns="http://www.w3.org/2000/svg"><g fill="none" fill-rule="evenodd"><g fill="#c98c81"><circle cx="149.5" cy="401.5" opacity=".29512" r="4.5"/><circle cx="72.5" cy="645.5" opacity=".687613" r="3.5"/><circle cx="92.5" cy="131.5" opacity=".40291" r="2.5"/><circle cx="260" cy="835" opacity=".502321" r="4"/><circle cx="181.5" cy="789.5" r="2.5"/><circle cx="1170" cy="1433" opacity=".29512" r="3"/><circle cx="1895.5" cy="1410.5" r="2.5"/><circle cx="305.5" cy="1469.5" opacity=".29512" r="4.5"/><circle cx="215" cy="458" opacity=".495414" r="3"/><circle cx="1282" cy="108" r="2"/><circle cx="1313.5" cy="78.5" opacity=".519531" r="3.5"/><circle cx="654" cy="6" opacity=".179178" r="6"/><circle cx="1410" cy="326" opacity=".452049" r="3"/><circle cx="359.5" cy="170.5" opacity=".846411" r="2.5"/><circle cx="5" cy="1453" opacity=".153193" r="5"/><circle cx="214" cy="1327" opacity=".572124" r="4"/><circle cx="527" cy="1290" opacity=".992074" r="3"/><circle cx="121" cy="1085" opacity=".472147" r="4"/><circle cx="1658" cy="700" r="2"/><circle cx="1805" cy="1174" opacity=".228261" r="5"/></g><circle cx="1806.5" cy="623.5" fill="#51e0c1" opacity=".558537" r="3.5"/><circle cx="548" cy="222" fill="#51e0c1" opacity=".707994" r="3"/><circle cx="981.5" cy="40.5" fill="#51e0c1" opacity=".551687" r="3.5"/><circle cx="1635" cy="410" fill="#51e0c1" opacity=".471694" r="4"/><circle cx="1538.5" cy="1412.5" fill="#51e0c1" r="2.5"/><circle cx="1499" cy="1493" fill="#51e0c1" opacity=".23279" r="5"/><circle cx="782" cy="1503" fill="#51e0c1" opacity=".109149" r="5"/><circle cx="1759.5" cy="976.5" fill="#51e0c1" opacity=".536062" r="3.5"/></g></svg>