<svg height="124" viewBox="0 0 123 124" width="123" xmlns="http://www.w3.org/2000/svg" xmlns:xlink="http://www.w3.org/1999/xlink"><defs><path id="a" d="m20.0857631 76.959813c0 34.117422 27.3133649 61.774917 61.0062783 61.774917 33.6929136 0 61.0062786-27.657495 61.0062786-61.774917 0-34.1174219-27.313365-61.7749172-61.0062786-61.7749172-33.6929134 0-61.0062783 27.6574953-61.0062783 61.7749172z"/><filter id="b" height="108.1%" width="108.2%" x="-4.1%" y="-4%"><feOffset dx="-1" dy="-10" in="SourceAlpha" result="shadowOffsetInner1"/><feComposite in="shadowOffsetInner1" in2="SourceAlpha" k2="-1" k3="1" operator="arithmetic" result="shadowInnerInner1"/><feColorMatrix in="shadowInnerInner1" type="matrix" values="0 0 0 0 0   0 0 0 0 0   0 0 0 0 0  0 0 0 0.16553442 0"/></filter></defs><g fill="none" fill-rule="evenodd" transform="translate(-20 -15)"><use fill="#c98c81" fill-rule="evenodd" xlink:href="#a"/><use fill="#000" filter="url(#b)" xlink:href="#a"/><path d="m21.0857631 76.959813c0-33.5679204 26.8684717-60.7749172 60.0062783-60.7749172s60.0062786 27.2069968 60.0062786 60.7749172c0 33.56792-26.868472 60.774917-60.0062786 60.774917s-60.0062783-27.206997-60.0062783-60.774917z" stroke="#000" stroke-opacity=".08" stroke-width="2"/><g transform="matrix(-.76604444 .64278761 -.64278761 -.76604444 144.229617 88.276354)"><g fill="#000" fill-opacity=".120952"><path d="m69.9731382 21.2620009c-2.7850688-2.96177-6.5497098-3.9687144-8.4085612-2.2490732-1.8588514 1.7196413-1.1080038 5.5146749 1.6770649 8.476445 2.7850688 2.9617701 6.5497099 3.9687144 8.4085613 2.2490732 1.8588513-1.7196412 1.1080038-5.5146749-1.677065-8.476445zm2.4908487-1.5371987c-1.8998098-2.020345-5.866956-5.0959653-11.7183951-2.8627102 5.9202226-.6348172 9.1978322 2.8507435 10.3764584 4.1041487 1.1786263 1.2534053 3.4606415 3.6802051 2.6387872 9.0208601 2.5801813-4.3531441.6029593-8.2419536-1.2968505-10.2622986z"/><path d="m20.901872 72.0813258c-9.2024917-2.9373633-18.14303713-.8425214-19.96926719 4.6789604-1.82623006 5.5214817 4.15341143 12.3787305 13.35590309 15.3160938 9.2024917 2.9373633 18.1430371.8425214 19.9692672-4.6789604 1.82623-5.5214817-4.1534115-12.3787305-13.3559031-15.3160938zm15.5032824.737068c-5.4021938-5.9303824-16.2256109-7.3716628-26.1019502-5.229403 11.4960102-.3941871 19.681164 4.8751052 22.957274 8.2680348 3.2761099 3.3929296 6.8339184 8.5595391 2.6046408 17.0534435 7.2499004-9.2709563 5.9422291-14.161693.5400354-20.0920753z"/><path d="m82.8518351 84.6182902c3.9402083-4.1891801 4.9165389-9.4959487 2.1806956-11.8529993-2.7358433-2.3570507-8.1478524-.8718163-12.0880606 3.3173638-3.9402083 4.1891802-4.916539 9.4959487-2.1806956 11.8529994 2.7358433 2.3570506 8.1478524.8718162 12.0880606-3.3173639zm6.5373243-15.2162571c-1.9075942-1.9304626-6.4220795-4.0647725-12.7542238 1.0081978 7.6713299-2.381914 10.8657804.2592251 12.1502015 2.8402333 1.2844211 2.5810083.4034403 4.5887222-1.8392672 8.9929265 5.808787-5.962386 4.3508837-10.910895 2.4432895-12.8413576z"/><path d="m21.4047441 18.3492596c3.9402082-4.2667576 4.9165389-9.67179963 2.1806956-12.07249937-2.7358434-2.40069973-8.1478525-.88796099-12.0880607 3.37879654-3.94020823 4.26675753-4.9165389 9.67179963-2.18069558 12.07249933 2.73584328 2.4006997 8.14785238.887961 12.08806068-3.3787965zm6.5373243-15.49803965c-1.9075943-1.96621191-6.4220796-4.14004611-12.7542238 1.02686813 7.6713299-2.42602356 10.8657804.26402551 12.1502015 2.89283023 1.284421 2.62880471.4034403 4.67369849-1.8392673 9.15946209 5.8087871-6.07280048 4.3508838-11.11294855 2.4432896-13.07916045z"/></g><g transform="matrix(-.95630476 .2923717 -.2923717 -.95630476 67.882584 107.640513)"><path d="m9.38234802 11.3547794c5.18172768 0 9.38234798-.8456981 9.38234798-4.42902476 0-3.58332668-1.2224048-6.4881869-9.38234798-6.4881869-8.15994321 0-9.38234802 2.90486022-9.38234802 6.4881869 0 3.58332666 4.20062029 4.42902476 9.38234802 4.42902476z" fill="#c98c81"/><ellipse cx="9.611186" cy="4.170977" fill="#000" fill-opacity=".129076" rx="6.865133" ry="1.853768"/></g></g></g></svg>