<svg height="1357" viewBox="0 0 562 1357" width="562" xmlns="http://www.w3.org/2000/svg" xmlns:xlink="http://www.w3.org/1999/xlink"><defs><circle id="a" cx="15.416673" cy="16.076453" r="15.242121"/><mask id="b" fill="#fff"><use fill="#fff" fill-rule="evenodd" xlink:href="#a"/></mask></defs><g fill="none" fill-rule="evenodd" transform="translate(2 -59)"><g transform="translate(0 171)"><path d="m558.070312 1242.01953s-372.515624-219.96484-517.648437-670.628905c-145.132813-450.664063 155.785156-562.80859375 155.785156-562.80859375" stroke="#2e6974" stroke-width="5"/><path d="m129.676094 32.8319256c17.358649-5.3561249 68.711099-36.43345143 71.139764-14.0020208 2.428664 22.4314307-15.699996.6123014-71.031371 19.3156992-4.525178 1.4470851-4.772504-1.559016-.108393-5.3136784z" fill="#2e6974" transform="matrix(.95630476 -.2923717 .2923717 .95630476 -.057233 48.925474)"/></g><g transform="matrix(.42261826 .90630779 -.90630779 .42261826 425.125188 .031574)"><path d="m67.5325224 46.9750317c5.8894191 12.2158439 22.409387 73.7191023 22.409387 138.0417783s-15.3118568 90.162603-15.3118568 90.162603h-17.019034s-14.781538-26.527399-14.781538-90.162603 12.651473-109.7780721 21.6922862-138.0417783c0-11.9445765 3.0107556-11.7565501 3.0107556 0z" fill="#31c0a1"/><path d="m65.8670967 0s1.6654257 35.2184816 1.6654257 46.9750317c2.25346 4.6741311 6.0632817 16.5641679 9.9085311 33.0670386-8.0648235 2.0407967-14.1671879 1.8839504-22.3252183.1639285 3.1443232-12.9587156 6.4660281-24.0401383 9.4059316-33.2309671 0-11.9445765 1.3453299-46.9750317 1.3453299-46.9750317z" fill="#51e0c1"/><path d="m34.7102958 182.025293-3.0746508 51.86542 34.75005-2.725595s-.3597273 6.253928-.3597273 13.899464c-44.1611381-7.645536-49.6695238 46.313642-59.9338735 74.487572l-6.0920942 1.668951 31.917678-135.798054z" fill="#24b394"/><path d="m34.7102958 182.025293-34.7102958 139.195812 28.705467-139.010265z" fill="#47d6b7"/><path d="m88.7603343 216.623483s-1.4513505 25.523834-8.1309092 44.567337c-14.1333489 0-20.8124507 0-28.1591287 0-7.8611337-19.043503-8.3159878-44.567337-8.3159878-44.567337z" fill="#008064"/><path d="m55.8956883 193.513086c0 .618886.5096708 1.110355 1.1103543 1.110355.618886 0 1.1103543-.491469 1.1103543-1.110355v-10.775897c0-.618886-.4732658-1.110354-1.1103543-1.110354h-.0364051c-.3276455 0-.655291.07281-1.0921517.200227l-1.9294681.618886c-.4550633.127418-.7463037.491469-.7463037.964734 0 .509671.4550632.946532.9829366.946532.1092151 0 .2730379-.018203.4004556-.054608l1.3105821-.400455zm5.1331133-.327645v.182025c0 .709899.5460758 1.255975 1.2923795 1.255975.7281012 0 1.2741771-.546076 1.2741771-1.255975v-.182025c0-.709899-.5460759-1.255975-1.2741771-1.255975-.7463037 0-1.2923795.546076-1.2923795 1.255975zm6.0614422.327645c0 .618886.5096708 1.110355 1.1103543 1.110355.618886 0 1.1103543-.491469 1.1103543-1.110355v-10.775897c0-.618886-.4732658-1.110354-1.1103543-1.110354h-.0364051c-.3276455 0-.655291.07281-1.0921517.200227l-1.9294681.618886c-.4550632.127418-.7463037.491469-.7463037.964734 0 .509671.4550632.946532.9829366.946532.1092151 0 .2730379-.018203.4004556-.054608l1.3105821-.400455zm9.7019481 1.201367c-2.784987 0-4.8600753-1.456202-4.8600753-3.658708v-.036405c0-1.529013.8555189-2.493747 2.2935187-3.09443-1.0739492-.564279-1.856658-1.419798-1.856658-2.839595v-.036405c0-1.947671 1.8748605-3.440278 4.4232146-3.440278s4.4232146 1.474405 4.4232146 3.440278v.036405c0 1.419797-.7827087 2.275316-1.856658 2.839595 1.4015948.637088 2.2935187 1.547215 2.2935187 3.058025v.036405c0 2.275316-2.0750883 3.695113-4.8600753 3.695113zm0-7.535847c1.3105821 0 2.2753162-.782709 2.2753162-1.87486v-.036406c0-.982936-.9101265-1.783847-2.2753162-1.783847s-2.2753161.800911-2.2753161 1.765645v.036405c0 1.110354.964734 1.893063 2.2753161 1.893063zm0 5.660987c1.6746327 0 2.6757718-.855519 2.6757718-1.911266v-.036405c0-1.164962-1.1649618-1.929468-2.6757718-1.929468-1.5108099 0-2.6575693.764506-2.6575693 1.929468v.036405c0 1.037544.9829366 1.911266 2.6575693 1.911266z" fill="#363d4f" transform="matrix(0 -1 1 0 -120.734552 255.588534)"/><g transform="matrix(0 -1 1 0 50.311924 144.761392)"><use fill="#51e0c1" xlink:href="#a"/><path d="m9.76385253 36.129065c.84059147.15471 1.14691747-.3640845 1.14691747-.8096495 0-.399152-.0144396-1.4553063-.0226908-2.8569797-4.67327611 1.0148982-5.65929507-2.2525789-5.65929507-2.2525789-.76426784-1.9410959-1.86580368-2.4578276-1.86580368-2.4578276-1.52544147-1.0417146.11551687-1.0210865.11551687-1.0210865 1.68633997.118611 2.57334448 1.7317215 2.57334448 1.7317215 1.49862506 2.5671561 3.93273046 1.8255791 4.8898702 1.395485.1526473-1.0850334.5868669-1.825579 1.0664682-2.245359-3.73057592-.4239057-7.65299238-1.8658037-7.65299238-8.3038062 0-1.8338303.65493938-3.3345181 1.7296588-4.508252-.1732753-.424937-.74982823-2.1339678.16502409-4.446368 0 0 1.40992461-.45175342 4.61964329 1.722439 1.3397893-.373367 2.7775618-.5590191 4.2060516-.5662389 1.4274584.0072198 2.8641994.1928719 4.2060516.5662389 3.2076558-2.17419242 4.6155177-1.722439 4.6155177-1.722439.9169151 2.3124002.3403621 4.021431.1681183 4.446368 1.0767822 1.1737339 1.7265645 2.6744217 1.7265645 4.508252 0 6.4545049-3.9286048 7.8747435-7.6705262 8.2903979.602338.5187945 1.1396977 1.5440067 1.1396977 3.1107042 0 2.2463905-.020628 4.0585614-.020628 4.6093293 0 .4496906.3032318.9726107 1.1551686.8086181-4.2457916.9610625-5.7897031.9935814-10.63167727.0010314z" fill="#005442" mask="url(#b)"/></g><path d="m67.5325224 46.9750317c5.8894191 12.2158439 22.409387 73.7191023 22.409387 138.0417783 0 38.244302-5.4129392 62.884456-9.8020802 76.577831-14.4442577 0-17.0374489 0-27.2711434-.556485 18.5366118-4.181521 15.6569148-41.952717 15.6569148-79.696713 0-40.314336.5975842-78.638001-1.7267465-99.8383843-1.5462425 0-3.7852226.2053379-11.612765-1.2610438 21.3012882-2.1315404 13.5809136-27.3528948 11.612765-33.2669832z" fill="#000" fill-opacity=".107478"/><path d="m115.480933 182.025293-3.07465 51.86542s0 0 14.981943-1.175098c1.316192 0 4.501739.630291 5.186111 5.46377.684373 4.833478-.473152 7.147317-2.554319 7.147317-29.066407 7.072111-34.3683684 50.101337-43.1572862 74.225452l-6.0920942 1.668951 30.8469414-134.727317z" fill="#31c0a1" transform="matrix(-1 0 0 1 213.542028 0)"/><path d="m132.77139 182.025293-34.7102958 139.195812 28.7054668-139.010265z" fill="#039273" transform="matrix(-1 0 0 1 230.832484 0)"/></g></g></svg>