<svg height="500" viewBox="0 0 500 500" width="500" xmlns="http://www.w3.org/2000/svg"><g fill="none" fill-rule="evenodd"><path d="m31 425.5 42-41.5v41.5l-42 41.5z" fill="#6b0f9c"/><path d="m216.579486 180.527941 40-40v40l-40 40z" fill="#6b0f9c" transform="matrix(-.37460659 -.92718385 .92718385 -.37460659 157.821129 467.507578)"/><path d="m432.657823 235.154023 33.523327-33.523326v33.523326l-33.523327 33.523327z" fill="#6b0f9c" transform="matrix(.4539905 -.89100652 .89100652 .4539905 35.863541 528.832026)"/><path d="m363 396.5 31-30.5v30.5l-31 30.5z" fill="#4a078e"/><path d="m90.6727626 288.421939 36.9252334-36.925233v36.925233l-36.9252334 36.925234z" fill="#4a078e" transform="matrix(-.1391731 .99026807 -.99026807 -.1391731 409.939125 220.489234)"/><path d="m263.899335 45.0831387 34-34v34l-34 34z" fill="#4a078e" transform="matrix(-.51503807 .8571673 -.8571673 -.51503807 464.21698 -172.475053)"/><g fill="#9c47cd" fill-rule="nonzero"><path d="m79.9092537 150.955693c-6.8510742 0-11.8374189-13.048378-11.8374189-29.046439s4.9863447-29.04644 11.8374189-29.04644c6.8510741 0 11.8374189 13.048379 11.8374189 29.04644s-4.9863448 29.046439-11.8374189 29.046439zm0-2.387378c2.2245872 0 4.5857416-2.613379 6.4112076-7.390299 1.9276525-5.044325 3.0388327-11.919045 3.0388327-19.268762 0-7.349718-1.1111802-14.224438-3.0388327-19.268762-1.825466-4.7769205-4.1866204-7.3902994-6.4112076-7.3902994-2.2245873 0-4.5857416 2.6133789-6.4112076 7.3902994-1.9276526 5.044324-3.0388327 11.919044-3.0388327 19.268762 0 7.349717 1.1111801 14.224437 3.0388327 19.268762 1.825466 4.77692 4.1866203 7.390299 6.4112076 7.390299z" transform="matrix(.70710678 -.70710678 .70710678 .70710678 -62.797982 92.210769)"/><path d="m386.366694 147.540132c-8.321359 0-14.377806-15.848646-14.377806-35.279994 0-19.4313476 6.056447-35.2799928 14.377806-35.2799928 8.321358 0 14.377805 15.8486452 14.377805 35.2799928 0 19.431348-6.056447 35.279994-14.377805 35.279994zm0-2.899726c2.701998 0 5.569871-3.174227 7.787094-8.976305 2.341339-6.126869 3.690986-14.476948 3.690986-23.403963 0-8.927014-1.349647-17.2770932-3.690986-23.4039622-2.217223-5.8020782-5.085096-8.9763051-7.787094-8.9763051s-5.569872 3.1742269-7.787095 8.9763051c-2.341339 6.126869-3.690985 14.4769482-3.690985 23.4039622 0 8.927015 1.349646 17.277094 3.690985 23.403963 2.217223 5.802078 5.085097 8.976305 7.787095 8.976305z" transform="matrix(.70710678 .70710678 -.70710678 .70710678 192.544089 -240.322276)"/><path d="m276.389997 317.964708c-5.984731 0-10.340534-11.398363-10.340534-25.37341s4.355803-25.37341 10.340534-25.37341c5.98473 0 10.340533 11.398363 10.340533 25.37341s-4.355803 25.37341-10.340533 25.37341zm0-2.085486c1.94328 0 4.005857-2.282907 5.600486-6.455768 1.683894-4.406451 2.654562-10.411837 2.654562-16.832156s-.970668-12.425705-2.654562-16.832156c-1.594629-4.172861-3.657206-6.455768-5.600486-6.455768s-4.005858 2.282907-5.600487 6.455768c-1.683894 4.406451-2.654561 10.411837-2.654561 16.832156s.970667 12.425705 2.654561 16.832156c1.594629 4.172861 3.657207 6.455768 5.600487 6.455768z" transform="matrix(.9781476 -.20791169 .20791169 .9781476 -54.793367 63.858533)"/><path d="m210.962625 435.519314c-7.424972 0-12.82901-14.141409-12.82901-31.479588s5.404038-31.479588 12.82901-31.479588 12.82901 14.141409 12.82901 31.479588-5.404038 31.479588-12.82901 31.479588zm0-2.587363c2.410935 0 4.969878-2.832295 6.948259-8.009366 2.089127-5.466875 3.293388-12.917473 3.293388-20.882859 0-7.965385-1.204261-15.415983-3.293388-20.882858-1.978381-5.177071-4.537324-8.009367-6.948259-8.009367s-4.969878 2.832296-6.948259 8.009367c-2.089127 5.466875-3.293388 12.917473-3.293388 20.882858 0 7.965386 1.204261 15.415984 3.293388 20.882859 1.978381 5.177071 4.537324 8.009366 6.948259 8.009366z" transform="matrix(.35836795 .93358043 -.93358043 .35836795 512.563961 62.29426)"/></g></g></svg>