<svg height="106" viewBox="0 0 116 106" width="116" xmlns="http://www.w3.org/2000/svg"><g fill="none" fill-rule="evenodd"><g stroke="#eed9b7" stroke-linecap="round" stroke-width="3.5"><path d="m78.19 46.086c13.033 26.764 15.722 51.986 5.844 57.028-10.185 5.2-29.874-13.021-43.976-40.699-14.103-27.677-17.278-54.33-7.092-59.529 4.435-2.265 10.674-.087 17.465 5.376"/><path d="m13.776 64.477c-7.596-3.94-12.02-8.685-11.766-13.588.593-11.372 26.141-19.287 57.063-17.682 30.922 1.606 55.509 12.126 54.917 23.498-.257 4.904-5.15 9.163-13.114 12.295"/><path d="m45.826 94.462c-8.28 6.011-15.649 8.206-20.258 5.198-9.541-6.225-3.652-32.386 13.156-58.433 16.806-26.045 38.166-42.114 47.708-35.887 4.436 2.893 5.536 10.094 3.756 19.587"/></g><path d="m66.84 51.522a6.998 6.998 0 1 1 -13.682 2.956 6.998 6.998 0 0 1 13.683-2.956" fill="#eed9b7"/></g></svg>