<svg height="669" viewBox="0 0 1200 669" width="1200" xmlns="http://www.w3.org/2000/svg"><g fill="none" fill-rule="evenodd"><g opacity=".244735" transform="translate(0 589)"><path d="m475 64h24v16h-24zm-152 0h120v16h-120zm-64 0h32v16h-32zm-96 0h64v16h-64zm-48 0h16v16h-16z" fill="#659cc8"/><path d="m320 0h48v32h-48zm-80 0h48v32h-48zm-112 0h80v32h-80zm-48 0h16v32h-16zm-80 0h48v32h-48z" fill="#78af9f"/></g><g opacity=".067482" transform="translate(51)"><path d="m474 112h24v48h-24zm-208 0h176v48h-176zm-128 0h96v48h-96zm-56 0h24v48h-24z" fill="#dda032"/><path d="m288 48h24v32h-24zm-128 0h96v32h-96zm-96 0h64v32h-64zm-64 0h32v32h-32z" fill="#d36e2d"/><path d="m416 0h32v16h-32zm-192 0h160v16h-160zm-48 0h16v16h-16zm-96 0h64v16h-64z" fill="#c13f21"/></g><g transform="translate(184 252)"><path d="m312 128h226v8h-226zm-76 0h60v8h-60zm-32 0h16v8h-16zm-48 0h32v8h-32zm-24 0h8v8h-8z" fill="#659cc8"/><path d="m224 96h314v16h-314zm-40 0h24v16h-24zm-56 0h40v16h-40zm-24 0h8v16h-8zm-40 0h24v16h-24z" fill="#78af9f"/><path d="m196 56h342v24h-342zm-104 0h88v24h-88zm-64 0h48v24h-48zm-28 0h12v24h-12z" fill="#dda032"/><path d="m228 24h310v16h-310zm-64 0h48v16h-48zm-48 0h32v16h-32zm-32 0h16v16h-16z" fill="#d36e2d"/><path d="m218 0h320v8h-320zm-96 0h80v8h-80zm-24 0h8v8h-8zm-48 0h32v8h-32z" fill="#c13f21"/></g><g opacity=".244735" transform="matrix(-1 0 0 1 1034 589)"><path d="m323 64h60v16h-60zm-64 0h32v16h-32zm-96 0h64v16h-64zm-48 0h16v16h-16z" fill="#659cc8"/><path d="m320 0h48v32h-48zm-80 0h48v32h-48zm-112 0h80v32h-80zm-48 0h16v32h-16zm-80 0h48v32h-48z" fill="#78af9f"/></g><g opacity=".067482" transform="matrix(-1 0 0 1 1049 0)"><path d="m266 112h70v48h-70zm-128 0h96v48h-96zm-56 0h24v48h-24z" fill="#dda032"/><path d="m288 48h24v32h-24zm-128 0h96v32h-96zm-96 0h64v32h-64zm-64 0h32v32h-32z" fill="#d36e2d"/><path d="m224 0h160v16h-160zm-48 0h16v16h-16zm-96 0h64v16h-64z" fill="#c13f21"/></g><g transform="matrix(-1 0 0 1 1200 252)"><path d="m312 128h226v8h-226zm-76 0h60v8h-60zm-32 0h16v8h-16zm-48 0h32v8h-32zm-24 0h8v8h-8z" fill="#659cc8"/><path d="m224 96h314v16h-314zm-40 0h24v16h-24zm-56 0h40v16h-40zm-24 0h8v16h-8zm-40 0h24v16h-24z" fill="#78af9f"/><path d="m196 56h342v24h-342zm-104 0h88v24h-88zm-64 0h48v24h-48zm-28 0h12v24h-12z" fill="#dda032"/><path d="m228 24h310v16h-310zm-64 0h48v16h-48zm-48 0h32v16h-32zm-32 0h16v16h-16z" fill="#d36e2d"/><path d="m218 0h320v8h-320zm-96 0h80v8h-80zm-24 0h8v8h-8zm-48 0h32v8h-32z" fill="#c13f21"/></g></g></svg>