<svg height="90" viewBox="0 0 90 90" width="90" xmlns="http://www.w3.org/2000/svg"><g fill="none" fill-rule="evenodd" transform="translate(1 1)"><ellipse cx="44" cy="44" opacity=".226038" rx="44" ry="44" stroke="#c98c81" stroke-width="2"/><path d="m11 44c0 18.2244016 14.774562 32.9981234 33 32.9981234s33-14.7737218 33-32.9981234-14.774562-32.9981234-33-32.9981234-33 14.7737218-33 32.9981234z" fill="#e34b30"/><path d="m73 69c0 4.418288 3.581712 8 8 8s8-3.581712 8-8-3.581712-8-8-8-8 3.581712-8 8z" fill="#79a69f"/><path d="m31.8419811 50.656c0 .816.672 1.464 1.464 1.464.816 0 1.464-.648 1.464-1.464v-14.208c0-.816-.624-1.464-1.464-1.464h-.048c-.432 0-.864.096-1.44.264l-2.544.816c-.6.168-.984.648-.984 1.272 0 .672.6 1.248 1.296 1.248.144 0 .36-.024.528-.072l1.728-.528zm6.768-.432v.24c0 .936.72 1.656 1.704 1.656.96 0 1.68-.72 1.68-1.656v-.24c0-.936-.72-1.656-1.68-1.656-.984 0-1.704.72-1.704 1.656zm13.104 2.064c4.416 0 7.344-3.888 7.344-8.688v-.048c0-4.8-2.904-8.64-7.296-8.64-4.416 0-7.344 3.888-7.344 8.688v.048c0 4.8 2.88 8.64 7.296 8.64zm.048-2.664c-2.616 0-4.296-2.712-4.296-6.024v-.048c0-3.336 1.656-5.976 4.248-5.976s4.296 2.712 4.296 6.024v.048c0 3.288-1.632 5.976-4.248 5.976z" fill="#efeae2"/></g></svg>