<svg height="180" viewBox="0 0 248 180" width="248" xmlns="http://www.w3.org/2000/svg"><g fill="none" fill-rule="evenodd"><g transform="translate(48 140)"><path d="m30 10h-28c-1.09999997 0-2 .9000001-2 2v18c0 1.1000002.90000003 2 2 2h10.6800003c-.5 1.2199992-1.7200003 2.7800006-4.6800003 4h16c-2.9599992-1.2199994-4.1800003-2.7800008-4.6800003-4h10.6800003c1.1000002 0 2-.8999998 2-2v-18c0-1.0999999-.8999998-2-2-2zm0 18h-28v-16h28z" fill="#dda032"/><path d="m89 0h-28c-1.1 0-2 .90000008-2 2v18c0 1.1000002.9 2 2 2h10.6800003c-.5 1.2199992-1.7200003 2.7800006-4.6800003 4h16c-2.9599992-1.2199994-4.1800003-2.7800008-4.6800003-4h10.6800003c1.1000002 0 2-.8999998 2-2v-18c0-1.09999992-.8999998-2-2-2zm0 18h-28v-16h28z" fill="#78af9f"/><path d="m150 14h-28c-1.1 0-2 .9000001-2 2v18c0 1.1000002.9 2 2 2h10.68c-.5 1.2199992-1.72 2.7800006-4.68 4h16c-2.959999-1.2199994-4.18-2.7800008-4.68-4h10.68c1.1 0 2-.8999998 2-2v-18c0-1.0999999-.9-2-2-2zm0 18h-28v-16h28z" fill="#659cc8"/><path d="m6 22h12v1h-12zm0-3h8v1h-8zm0-3h16v1h-16z" fill="#dda032"/><path d="m65 12h12v1h-12zm0-3h8v1h-8zm0-3h16v1h-16z" fill="#78af9f"/><path d="m126 26h12v1h-12zm0-3h8v1h-8zm0-3h16v1h-16z" fill="#659cc8"/></g><g stroke-linejoin="round" stroke-width="2" transform="translate(64 115)"><g stroke-dasharray="2"><path d="m16 1h10" stroke="#dda032" transform="matrix(-1 0 0 1 42 0)"/><path d="m28 1h10" stroke="#78af9f" transform="matrix(-1 0 0 1 66 0)"/><path d="m82 1h10" stroke="#78af9f" transform="matrix(-1 0 0 1 174 0)"/><path d="m94 1h10" stroke="#659cc8" transform="matrix(-1 0 0 1 198 0)"/></g><path d="m0 1h10c2.209139 0 4 1.790861 4 4v26" stroke="#dda032" transform="matrix(-1 0 0 1 14 0)"/><path d="m106 1h10c2.209139 0 4 1.790861 4 4v30" stroke="#659cc8"/><path d="m40 1h13c2.209139 0 4 1.790861 4 4v16" stroke="#78af9f"/><path d="m63 1h13c2.209139 0 4 1.790861 4 4v16" stroke="#78af9f" transform="matrix(-1 0 0 1 143 0)"/></g><g fill="#5d5b5c" transform="translate(57 31)"><path d="m82 39h-30c-1.6499999 0-3 1.3499994-3 3v6c0 1.6500006 1.3500001 3 3 3h30c1.6500003 0 3-1.3499994 3-3v-6c0-1.6500006-1.3499997-3-3-3zm-27 9h-3v-6h3zm6 0h-3v-6h3zm6 0h-3v-6h3zm6 0h-3v-6h3zm9-23h-30c-1.6499999 0-3 1.3500001-3 3v6c0 1.6500006 1.3500001 3 3 3h30c1.6500003 0 3-1.3499994 3-3v-6c0-1.6499999-1.3499997-3-3-3zm-27 9h-3v-6h3zm6 0h-3v-6h3zm6 0h-3v-6h3zm6 0h-3v-6h3zm9-3h-3v-3h3z"/><g transform="translate(65)"><path d="m.78613281 17.8888889v-.9775391l3.57519531-4.8466797v-.0820312h-3.55468749v-1.3330078h5.52343749v1.0595703l-3.5 4.7646484v.0751953h3.56835938v1.3398438z" transform="matrix(.9961947 -.08715574 .08715574 .9961947 -1.229978 .367387)"/><path d="m8.56391059 13.6773563v-1.2490486l4.56819881-6.19283546v-.10481527h-4.54199499v-1.70324812h7.05756149v1.3538639l-4.4721182 6.08802025v.0960806h4.5594642v1.7119827z"/><path d="m18.6750217 11.7949636v-1.5199919l5.5591313-7.53618372v-.12755177h-5.5272434v-2.07271624h8.5884858v1.64754368l-5.4422088 7.40863193v.11692245h5.548502v2.08334557z" transform="matrix(.9961947 .08715574 -.08715574 .9961947 .625135 -1.984459)"/></g></g><g><circle cx="20" cy="20" opacity=".146116" r="19" stroke="#eed9b7" stroke-width="2"/><path d="m14.47 27h9.78v-1.44h-7.42l3.74-3.32c2.46-2.14 3.54-3.4 3.54-5.44v-.04c0-2.28-1.82-3.96-4.34-3.96-2.46 0-3.78 1.1-5.04 2.98l1.16.84c1.12-1.56 2.16-2.4 3.76-2.4 1.52 0 2.82 1.04 2.82 2.68 0 1.4-.78 2.48-2.92 4.4l-5.08 4.48z" fill="#eed9b7"/></g></g></svg>