<svg height="180" viewBox="0 0 248 180" width="248" xmlns="http://www.w3.org/2000/svg"><g fill="none" fill-rule="evenodd"><g transform="translate(48 140)"><path d="m30 10h-28c-1.09999997 0-2 .9000001-2 2v18c0 1.1000002.90000003 2 2 2h10.6800003c-.5 1.2199992-1.7200003 2.7800006-4.6800003 4h16c-2.9599992-1.2199994-4.1800003-2.7800008-4.6800003-4h10.6800003c1.1000002 0 2-.8999998 2-2v-18c0-1.0999999-.8999998-2-2-2zm0 18h-28v-16h28z" fill="#dda032"/><path d="m89 0h-28c-1.1 0-2 .90000008-2 2v18c0 1.1000002.9 2 2 2h10.6800003c-.5 1.2199992-1.7200003 2.7800006-4.6800003 4h16c-2.9599992-1.2199994-4.1800003-2.7800008-4.6800003-4h10.6800003c1.1000002 0 2-.8999998 2-2v-18c0-1.09999992-.8999998-2-2-2zm0 18h-28v-16h28z" fill="#78af9f"/><path d="m150 14h-28c-1.1 0-2 .9000001-2 2v18c0 1.1000002.9 2 2 2h10.68c-.5 1.2199992-1.72 2.7800006-4.68 4h16c-2.959999-1.2199994-4.18-2.7800008-4.68-4h10.68c1.1 0 2-.8999998 2-2v-18c0-1.0999999-.9-2-2-2zm0 18h-28v-16h28z" fill="#659cc8"/></g><g stroke-width="2" transform="translate(64 86)"><path d="m60 0v50" stroke="#78af9f"/><g stroke-linejoin="round"><path d="m66 0v26c0 2.209139 1.790861 4 4 4h46c2.209139 0 4 1.790861 4 4v30" stroke="#659cc8"/><path d="m0 0v26c0 2.209139 1.790861 4 4 4h46c2.209139 0 4 1.790861 4 4v26" stroke="#dda032" transform="matrix(-1 0 0 1 54 0)"/></g></g><g transform="translate(64 20)"><path d="m75 50h-30c-1.6499999 0-3 1.3499994-3 3v6c0 1.6500006 1.3500001 3 3 3h30c1.6500003 0 3-1.3499994 3-3v-6c0-1.6500006-1.3499997-3-3-3zm-27 9h-3v-6h3zm6 0h-3v-6h3zm6 0h-3v-6h3zm6 0h-3v-6h3zm9-23h-30c-1.6499999 0-3 1.3500001-3 3v6c0 1.6500006 1.3500001 3 3 3h30c1.6500003 0 3-1.3499994 3-3v-6c0-1.6499999-1.3499997-3-3-3zm-27 9h-3v-6h3zm6 0h-3v-6h3zm6 0h-3v-6h3zm6 0h-3v-6h3zm9-3h-3v-3h3z" fill="#5d5b5c"/><path d="m72 39h3v3h-3z" fill="#7ed321"/><g transform="translate(84 14)"><path d="m9 0h20c1.1045695 0 2 .8954305 2 2v16c0 1.1045695-.8954305 2-2 2h-20c-1.1045695 0-2-.8954305-2-2v-16c0-1.1045695.8954305-2 2-2zm-2 6v8h-5.58578644c-.55228475 0-1-.4477153-1-1 0-.2652165.10535684-.5195704.29289322-.7071068z" fill="#659cc8"/><path d="m13.304 14h1.476v-3.54h4.008v3.54h1.476v-8.4h-1.476v3.492h-4.008v-3.492h-1.476zm8.976-7.308h1.56v-1.38h-1.56zm.06 7.308h1.452v-6.336h-1.452z" fill="#343233"/></g><g transform="translate(0 35)"><path d="m2 0h20c1.1045695 0 2 .8954305 2 2v16c0 1.1045695-.8954305 2-2 2h-20c-1.1045695 0-2-.8954305-2-2v-16c0-1.1045695.8954305-2 2-2zm22 14v-8h5.5857864c.5522848 0 1 .44771525 1 1 0 .26521649-.1053568.5195704-.2928932.70710678z" fill="#dda032"/><path d="m6.304 14h1.476v-3.54h4.008v3.54h1.476v-8.4h-1.476v3.492h-4.008v-3.492h-1.476zm8.976-7.308h1.56v-1.38h-1.56zm.06 7.308h1.452v-6.336h-1.452z" fill="#343233"/></g><g transform="translate(38)"><path d="m2 0h20c1.1045695 0 2 .8954305 2 2v16c0 1.1045695-.8954305 2-2 2h-20c-1.1045695 0-2-.8954305-2-2v-16c0-1.1045695.8954305-2 2-2zm7 20h8v5.5857864c0 .5522848-.4477153 1-1 1-.2652165 0-.5195704-.1053568-.7071068-.2928932z" fill="#78af9f"/><path d="m6.304 14h1.476v-3.54h4.008v3.54h1.476v-8.4h-1.476v3.492h-4.008v-3.492h-1.476zm8.976-7.308h1.56v-1.38h-1.56zm.06 7.308h1.452v-6.336h-1.452z" fill="#343233"/></g></g><circle cx="20" cy="20" opacity=".146116" r="19" stroke="#eed9b7" stroke-width="2"/><path d="m20.5 27h1.56v-14.1h-1.16l-3.42 1.18.38 1.28 2.64-.82z" fill="#eed9b7"/></g></svg>