<svg height="290" viewBox="0 0 504 290" width="504" xmlns="http://www.w3.org/2000/svg"><g fill="none" fill-rule="evenodd"><g stroke-width="2" transform="translate(123 124)"><path d="m132 104h120c3.313708 0 6-2.686292 6-6v-34" stroke="#659cc8" transform="matrix(-1 0 0 1 390 0)"/><path d="m0 104h120c3.313708 0 6-2.686292 6-6v-34" stroke="#dda032"/><path d="m126 30v-30" stroke="#78af9f"/><path d="m132 30v-30" stroke="#78af9f"/><g stroke-dasharray="2"><path d="m126 48v14" stroke="#dda032"/><path d="m132 48v14" stroke="#659cc8"/><path d="m126 32v14" stroke="#78af9f"/><path d="m132 32v14" stroke="#78af9f"/></g></g><g transform="translate(292 166)"><rect fill="#343233" fill-rule="evenodd" height="124" rx="5" width="212"/><rect height="122" rx="5" stroke="#4d4b4c" stroke-width="2" width="210" x="1" y="1"/><g><path d="m112 18h100v101c0 2.761424-2.238576 5-5 5h-155v-105-19h60z" fill="#3d3b3c" fill-rule="evenodd"/><path d="m111 1h-58v122h154c2.209139 0 4-1.790861 4-4v-100h-100z" stroke="#4d4b4c" stroke-width="2"/></g></g><g transform="translate(356 204)"><path d="m0 30h30v4h-30zm34-2h2v8h-2z" fill="#78af9f"/><path d="m0 50h80v4h-80zm0 10h100v4h-100zm0 10h50v4h-50zm104-12h2v8h-2z" fill="#659cc8"/><path d="m0 0h70v4h-70zm0 10h50v4h-50zm54-2h2v8h-2z" fill="#dda032"/></g><g transform="translate(303 178)"><path d="m0 66h14v4h-14zm0-10h28v4h-28zm0-10h30v4h-30zm0-10h18v4h-18zm0-10h28v4h-28z" fill="#5d5b5c"/><path d="m7.04882812 6.49804688h-1.18359375c-.06640658-.49609624-.2705061-.87597525-.61230468-1.13964844-.34179859-.2636732-.75488039-.39550782-1.23925781-.39550782-.60547178 0-1.09667781.20800574-1.47363282.62402344-.37695501.41601771-.56542968 1.0400349-.56542968 1.87207032v1.04296874c0 .79297272.17089672 1.41503681.51269531 1.86621098.34179858.4511741.84667635.6767578 1.51464843.6767578.55859655 0 1.01562323-.1513657 1.37109375-.4541016.35547053-.3027359.53320313-.6865211.53320313-1.15136718v-.64453124h-1.92773438v-1.03125h3.09375v1.62304687c0 .24218871-.03124968.48535034-.09375.72949215-.06250031.2441419-.17089766.4912097-.32519531.741211-.15429764.2500012-.34472543.4707021-.57128906.6621093-.22656363.1914073-.51952945.3466791-.87890625.4658204-.3593768.1191412-.75976342.1787109-1.20117188.1787109-.71094105 0-1.31249753-.1552719-1.8046875-.4658203-.49218996-.3105484-.85449102-.7353489-1.08691406-1.2744141-.23242303-.53906517-.34863281-1.17773066-.34863281-1.9160156v-1.06054688c0-1.11719308.29491893-1.99706709.88476563-2.63964843.58984669-.64258134 1.38671373-.96386719 2.390625-.96386719.46484607 0 .88671685.07324146 1.265625.21972656.37890814.14648511.69042846.34374876.93457031.59179688.24414184.24804811.43554618.5292953.57421875.84375.13867257.31445469.21777334.64745918.23730468.99902344zm6.97265628-.68554688v6.1875h-1.1660156v-1.03125h-.0644532c-.101563.2968765-.3085922.5595692-.6210937.7880859-.3125016.2285168-.7148413.3427735-1.2070313.3427735-.652347 0-1.16601373-.166014-1.5410156-.4980469s-.5625-.8456996-.5625-1.5410156v-4.2480469h1.1835938v3.9140625c0 .4609398.1181628.7910146.3544921.9902344.2363293.1992197.5478497.2988281.9345703.2988281.4257834 0 .7841783-.1328112 1.0751954-.3984375.291017-.2656263.4365234-.593748.4365234-.984375v-3.8203125zm4.4179687 6.2929688c-.8398479 0-1.4980445-.2460913-1.9746093-.7382813-.4765649-.49219-.7148438-1.1718707-.7148438-2.0390625v-.84960938c0-.85547302.2431616-1.53124751.7294922-2.02734374.4863305-.49609624 1.1123008-.74414063 1.8779297-.74414063.7695351 0 1.3964819.25195061 1.8808593.75585937.4843775.50390877.7265626 1.17577706.7265626 2.015625v.73242188h-4.0429688v.3046875c0 .4609398.1328112.8369126.3984375 1.1279297s.6347633.4365234 1.1074219.4365234c.3398454 0 .6249988-.0683587.8554687-.2050781s.3710935-.3046865.421875-.5039062h1.1835938c-.0195314.1484382-.0634762.2998039-.131836.4541015-.0683597.1542977-.1699212.308593-.3046875.4628906-.1347663.1542977-.2939444.2910151-.477539.4101563-.1835947.1191412-.4082018.2167965-.6738282.2929687-.2656263.0761723-.5527328.1142579-.8613281.1142579zm-1.5175781-3.73242192h2.8769531v-.08789063c0-.47265861-.130858-.85253763-.3925781-1.13964844s-.6093728-.43066406-1.0429688-.43066406c-.4335959 0-.7822252.14355325-1.0458984.43066406s-.3955078.66698983-.3955078 1.13964844zm5.4609375-.76757813c0-.32422037.0634759-.61035032.1904297-.85839844.1269537-.24804811.3017567-.44628832.524414-.59472656.2226574-.14843824.4716784-.25976525.7470704-.33398437.275392-.07421913.5712874-.11132813.8876953-.11132813.6757846 0 1.2197245.16015465 1.6318359.48046875s.6181641.7499973.6181641 1.2890625h-1.078125c-.0234376-.22656363-.1386709-.42187418-.3457032-.5859375-.2070322-.16406332-.4941387-.24609375-.8613281-.24609375-.3515642 0-.6357411.07519456-.852539.22558594-.216798.15039137-.3251954.35839711-.3251954.62402343 0 .15234452.0361325.28124948.1083985.38671876.072266.10546927.1914054.19042936.3574219.25488281.1660164.06445344.3037104.11035142.4130859.13769531s.2792957.06054668.5097656.09960938c.0742191.0117188.1289061.02148433.1640625.02929687.3164079.05468777.5878895.11914025.8144531.19335937.2265637.07421913.4414053.17578061.6445313.3046875.203126.1289069.3564448.29687397.4599609.50390626.1035162.20703228.1552735.45117046.1552735.73242192 0 .6171905-.2265603 1.0996076-.6796875 1.4472656-.4531273.347658-1.0644493.5214844-1.8339844.5214844-.7187536 0-1.2929666-.157225-1.7226563-.4716797-.4296896-.3144547-.6445312-.7451145-.6445312-1.2919922h1.1542969c.0820316.5546902.5058555.8320312 1.2714843.8320312.4375022 0 .7636709-.0820304.9785157-.2460937s.3222656-.3789049.3222656-.6445313c0-.1484382-.0351559-.2744135-.1054688-.37792966-.0703128-.10351615-.1777336-.18652313-.3222656-.24902344-.1445319-.06250031-.292968-.11328105-.4453125-.15234375s-.3417957-.08007791-.5683594-.12304687l-.1054687-.01757813c-.2578138-.0507815-.4765616-.10156225-.65625-.15234375s-.3652334-.12206985-.5566406-.21386719c-.1914072-.09179733-.3437495-.19628847-.4570313-.31347656s-.2070309-.26660065-.28125-.44824219c-.0742191-.18164153-.1113281-.39160037-.1113281-.62988281zm6.7910156-1.7578125v-1.546875h1.1660156v1.546875h1.3886719v1.00195313h-1.3886719v3.31640622c0 .3359392.0693353.5644525.2080079.6855469.1386725.1210944.3915997.1816406.758789.1816406.1992198 0 .3652337-.0078124.4980469-.0234375v.9785156c-.1562508.0390627-.41992.0585938-.7910156.0585938s-.6767566-.0332028-.9169922-.0996094-.4296868-.176757-.5683594-.3310547c-.1386726-.1542976-.2343747-.3378895-.2871094-.5507812-.0527346-.2128917-.0791015-.4814437-.0791015-.8056641v-3.41015622h-.9433594v-1.00195313z" fill="#eed9b7"/></g><path d="m354 176h40v4h-40z" fill="#5d5b5c"/><rect fill="#343233" fill-rule="evenodd" height="124" rx="5" transform="translate(0 166)" width="212"/><rect height="122" rx="5" stroke="#4d4b4c" stroke-width="2" transform="translate(0 166)" width="210" x="1" y="1"/><g transform="translate(0 166)"><path d="m112 18h100v101c0 2.761424-2.238576 5-5 5h-155v-105-19h60z" fill="#3d3b3c" fill-rule="evenodd"/><path d="m111 1h-58v122h154c2.209139 0 4-1.790861 4-4v-100h-100z" stroke="#4d4b4c" stroke-width="2"/></g><g transform="translate(64 204)"><path d="m0 30h30v4h-30zm34-2h2v8h-2z" fill="#78af9f"/><path d="m0 50h80v4h-80zm0 10h100v4h-100zm0 10h50v4h-50zm104-12h2v8h-2z" fill="#659cc8"/><path d="m0 0h70v4h-70zm0 10h50v4h-50zm54-2h2v8h-2z" fill="#dda032"/></g><g transform="translate(11 178)"><path d="m0 66h14v4h-14zm0-10h28v4h-28zm0-10h30v4h-30zm0-10h18v4h-18zm0-10h28v4h-28z" fill="#5d5b5c"/><path d="m7.04882812 6.49804688h-1.18359375c-.06640658-.49609624-.2705061-.87597525-.61230468-1.13964844-.34179859-.2636732-.75488039-.39550782-1.23925781-.39550782-.60547178 0-1.09667781.20800574-1.47363282.62402344-.37695501.41601771-.56542968 1.0400349-.56542968 1.87207032v1.04296874c0 .79297272.17089672 1.41503681.51269531 1.86621098.34179858.4511741.84667635.6767578 1.51464843.6767578.55859655 0 1.01562323-.1513657 1.37109375-.4541016.35547053-.3027359.53320313-.6865211.53320313-1.15136718v-.64453124h-1.92773438v-1.03125h3.09375v1.62304687c0 .24218871-.03124968.48535034-.09375.72949215-.06250031.2441419-.17089766.4912097-.32519531.741211-.15429764.2500012-.34472543.4707021-.57128906.6621093-.22656363.1914073-.51952945.3466791-.87890625.4658204-.3593768.1191412-.75976342.1787109-1.20117188.1787109-.71094105 0-1.31249753-.1552719-1.8046875-.4658203-.49218996-.3105484-.85449102-.7353489-1.08691406-1.2744141-.23242303-.53906517-.34863281-1.17773066-.34863281-1.9160156v-1.06054688c0-1.11719308.29491893-1.99706709.88476563-2.63964843.58984669-.64258134 1.38671373-.96386719 2.390625-.96386719.46484607 0 .88671685.07324146 1.265625.21972656.37890814.14648511.69042846.34374876.93457031.59179688.24414184.24804811.43554618.5292953.57421875.84375.13867257.31445469.21777334.64745918.23730468.99902344zm6.97265628-.68554688v6.1875h-1.1660156v-1.03125h-.0644532c-.101563.2968765-.3085922.5595692-.6210937.7880859-.3125016.2285168-.7148413.3427735-1.2070313.3427735-.652347 0-1.16601373-.166014-1.5410156-.4980469s-.5625-.8456996-.5625-1.5410156v-4.2480469h1.1835938v3.9140625c0 .4609398.1181628.7910146.3544921.9902344.2363293.1992197.5478497.2988281.9345703.2988281.4257834 0 .7841783-.1328112 1.0751954-.3984375.291017-.2656263.4365234-.593748.4365234-.984375v-3.8203125zm4.4179687 6.2929688c-.8398479 0-1.4980445-.2460913-1.9746093-.7382813-.4765649-.49219-.7148438-1.1718707-.7148438-2.0390625v-.84960938c0-.85547302.2431616-1.53124751.7294922-2.02734374.4863305-.49609624 1.1123008-.74414063 1.8779297-.74414063.7695351 0 1.3964819.25195061 1.8808593.75585937.4843775.50390877.7265626 1.17577706.7265626 2.015625v.73242188h-4.0429688v.3046875c0 .4609398.1328112.8369126.3984375 1.1279297s.6347633.4365234 1.1074219.4365234c.3398454 0 .6249988-.0683587.8554687-.2050781s.3710935-.3046865.421875-.5039062h1.1835938c-.0195314.1484382-.0634762.2998039-.131836.4541015-.0683597.1542977-.1699212.308593-.3046875.4628906-.1347663.1542977-.2939444.2910151-.477539.4101563-.1835947.1191412-.4082018.2167965-.6738282.2929687-.2656263.0761723-.5527328.1142579-.8613281.1142579zm-1.5175781-3.73242192h2.8769531v-.08789063c0-.47265861-.130858-.85253763-.3925781-1.13964844s-.6093728-.43066406-1.0429688-.43066406c-.4335959 0-.7822252.14355325-1.0458984.43066406s-.3955078.66698983-.3955078 1.13964844zm5.4609375-.76757813c0-.32422037.0634759-.61035032.1904297-.85839844.1269537-.24804811.3017567-.44628832.524414-.59472656.2226574-.14843824.4716784-.25976525.7470704-.33398437.275392-.07421913.5712874-.11132813.8876953-.11132813.6757846 0 1.2197245.16015465 1.6318359.48046875s.6181641.7499973.6181641 1.2890625h-1.078125c-.0234376-.22656363-.1386709-.42187418-.3457032-.5859375-.2070322-.16406332-.4941387-.24609375-.8613281-.24609375-.3515642 0-.6357411.07519456-.852539.22558594-.216798.15039137-.3251954.35839711-.3251954.62402343 0 .15234452.0361325.28124948.1083985.38671876.072266.10546927.1914054.19042936.3574219.25488281.1660164.06445344.3037104.11035142.4130859.13769531s.2792957.06054668.5097656.09960938c.0742191.0117188.1289061.02148433.1640625.02929687.3164079.05468777.5878895.11914025.8144531.19335937.2265637.07421913.4414053.17578061.6445313.3046875.203126.1289069.3564448.29687397.4599609.50390626.1035162.20703228.1552735.45117046.1552735.73242192 0 .6171905-.2265603 1.0996076-.6796875 1.4472656-.4531273.347658-1.0644493.5214844-1.8339844.5214844-.7187536 0-1.2929666-.157225-1.7226563-.4716797-.4296896-.3144547-.6445312-.7451145-.6445312-1.2919922h1.1542969c.0820316.5546902.5058555.8320312 1.2714843.8320312.4375022 0 .7636709-.0820304.9785157-.2460937s.3222656-.3789049.3222656-.6445313c0-.1484382-.0351559-.2744135-.1054688-.37792966-.0703128-.10351615-.1777336-.18652313-.3222656-.24902344-.1445319-.06250031-.292968-.11328105-.4453125-.15234375s-.3417957-.08007791-.5683594-.12304687l-.1054687-.01757813c-.2578138-.0507815-.4765616-.10156225-.65625-.15234375s-.3652334-.12206985-.5566406-.21386719c-.1914072-.09179733-.3437495-.19628847-.4570313-.31347656s-.2070309-.26660065-.28125-.44824219c-.0742191-.18164153-.1113281-.39160037-.1113281-.62988281zm6.7910156-1.7578125v-1.546875h1.1660156v1.546875h1.3886719v1.00195313h-1.3886719v3.31640622c0 .3359392.0693353.5644525.2080079.6855469.1386725.1210944.3915997.1816406.758789.1816406.1992198 0 .3652337-.0078124.4980469-.0234375v.9785156c-.1562508.0390627-.41992.0585938-.7910156.0585938s-.6767566-.0332028-.9169922-.0996094-.4296868-.176757-.5683594-.3310547c-.1386726-.1542976-.2343747-.3378895-.2871094-.5507812-.0527346-.2128917-.0791015-.4814437-.0791015-.8056641v-3.41015622h-.9433594v-1.00195313z" fill="#eed9b7"/></g><path d="m62 176h40v4h-40z" fill="#5d5b5c"/><rect fill="#343233" fill-rule="evenodd" height="124" rx="5" transform="translate(146)" width="212"/><rect height="122" rx="5" stroke="#4d4b4c" stroke-width="2" transform="translate(146)" width="210" x="1" y="1"/><g transform="translate(146)"><path d="m112 18h100v101c0 2.761424-2.238576 5-5 5h-155v-105-19h60z" fill="#3d3b3c" fill-rule="evenodd"/><path d="m111 1h-58v122h154c2.209139 0 4-1.790861 4-4v-100h-100z" stroke="#4d4b4c" stroke-width="2"/></g><g transform="translate(210 38)"><path d="m0 30h30v4h-30zm34-2h2v8h-2z" fill="#78af9f"/><path d="m0 50h80v4h-80zm0 10h100v4h-100zm0 10h50v4h-50zm104-12h2v8h-2z" fill="#659cc8"/><path d="m0 0h70v4h-70zm0 10h50v4h-50zm54-2h2v8h-2z" fill="#dda032"/></g><g transform="translate(157 12)"><path d="m0 66h14v4h-14zm0-10h28v4h-28zm0-10h30v4h-30zm0-10h18v4h-18zm0-10h28v4h-28z" fill="#5d5b5c"/><path d="m8.51757812 13h-1.40820312v-4.14941406h-4.44335938v4.14941406h-1.40820312v-9.33105469h1.40820312v3.8828125h4.44335938v-3.8828125h1.40820312zm5.26367188-7.34179688c.9342495 0 1.6941702.29166375 2.2797852.875.5856149.58333626.8784179 1.37401845.8784179 2.37207032v.95019531c0 1.02083845-.2916637 1.82063515-.875 2.39941405-.5833362.5787789-1.3443963.8681641-2.2832031.8681641-.9524787 0-1.7180961-.2871065-2.296875-.8613281-.5787789-.5742217-.8681641-1.376297-.8681641-2.40625005v-.95019531c0-.9752653.2950817-1.76025094.8852539-2.35498047.5901723-.59472954 1.3500931-.89208985 2.2797852-.89208985zm.0068359 1.203125c-.5468777 0-.9809554.19824021-1.3022461.59472657-.3212906.39648635-.4819336.90461929-.4819336 1.52441406v.8203125c0 .62890935.1560857 1.13932095.4682618 1.53124995.312176.3919291.7508109.5878907 1.3159179.5878907.5605497 0 .9946274-.1948223 1.3022461-.5844727.3076188-.3896504.4614258-.9012012.4614258-1.53466795v-.8203125c0-.62435208-.157225-1.13362433-.4716797-1.52783203s-.7451144-.5913086-1.2919922-.5913086zm4.8398438 1.01171876c0-.3782571.0740552-.71207538.222168-1.00146485.1481127-.28938947.3520494-.52066971.6118164-.69384765.2597669-.17317795.5502913-.30305947.871582-.38964844.3212907-.08658898.6665021-.12988282 1.0356445-.12988282.7884154 0 1.4230119.18684709 1.9038086.56054688s.7211914.87499686.7211914 1.50390625h-1.2578125c-.0273439-.26432424-.1617826-.49218654-.4033203-.68359375s-.5764952-.28710938-1.0048828-.28710938c-.4101583 0-.741698.08772699-.9946289.2631836-.252931.17545661-.3793945.41812996-.3793945.72802734 0 .17773527.0421545.32812439.1264648.45117188s.2233063.22216759.4169922.29736328.3543288.12874333.4819336.16064453.325845.07063779.5947266.11621094c.0865889.01367194.1503904.02506506.1914062.03417969.3691425.0638024.6858711.13899696.9501953.22558593.2643243.08658898.5149728.20507738.7519531.35546875.2369804.15039138.4158523.34635296.5366211.58789063.1207689.24153771.1811524.52636551.1811524.85449221 0 .7200557-.2643203 1.2828756-.7929688 1.6884765-.5286485.405601-1.2418575.6083985-2.1396484.6083985-.8385459 0-1.508461-.1834292-2.0097656-.550293s-.7519532-.8693002-.7519532-1.5073242h1.3466797c.0957036.6471386.5901648.9707031 1.4833985.9707031.5104192 0 .8909492-.0957022 1.1416015-.2871094s.3759766-.4420557.3759766-.7519531c0-.1731779-.0410152-.3201491-.1230469-.440918-.0820316-.1207688-.2073559-.2176103-.3759765-.2905273-.1686207-.072917-.341796-.1321612-.5195313-.1777344-.1777353-.0455731-.3987617-.0934242-.6630859-.14355466l-.1230469-.02050782c-.3007828-.05924508-.5559885-.11848928-.765625-.17773437s-.4261057-.14241483-.6494141-.24951172-.401041-.22900322-.5332031-.36572265c-.1321621-.13671944-.241536-.3110341-.328125-.52294922-.086589-.21191513-.1298828-.4568671-.1298828-.73486328zm7.9228515-2.05078126v-1.8046875h1.3603516v1.8046875h1.6201172v1.16894532h-1.6201172v3.86914066c0 .391929.0808911.6585279.2426758.7998046.1617847.1412768.4568663.2119141.8852539.2119141.232423 0 .426106-.0091145.5810547-.0273437v1.1416015c-.1822926.0455732-.4899067.0683594-.9228516.0683594-.4329448 0-.7895494-.0387366-1.0698242-.1162109-.2802748-.0774744-.5013013-.2062166-.6630859-.3862305-.1617847-.1800139-.2734372-.3942045-.334961-.6425781-.0615237-.2483737-.0922851-.5616843-.0922851-.9399414v-3.97851566h-1.100586v-1.16894532z" fill="#eed9b7"/></g><path d="m208 10h40v4h-40z" fill="#5d5b5c"/></g></svg>