<svg height="680" viewBox="0 0 750 680" width="750" xmlns="http://www.w3.org/2000/svg"><g fill="none" fill-rule="evenodd"><g opacity=".244735" transform="translate(0 600)"><path d="m475 64h24v16h-24zm-152 0h120v16h-120zm-64 0h32v16h-32zm-96 0h64v16h-64zm-48 0h16v16h-16z" fill="#659cc8"/><path d="m320 0h48v32h-48zm-80 0h48v32h-48zm-112 0h80v32h-80zm-48 0h16v32h-16zm-80 0h48v32h-48z" fill="#78af9f"/></g><g opacity=".067482" transform="translate(252)"><path d="m474 112h24v48h-24zm-208 0h176v48h-176zm-128 0h96v48h-96zm-56 0h24v48h-24z" fill="#dda032"/><path d="m288 48h24v32h-24zm-128 0h96v32h-96zm-96 0h64v32h-64zm-64 0h32v32h-32z" fill="#d36e2d"/><path d="m416 0h32v16h-32zm-192 0h160v16h-160zm-48 0h16v16h-16zm-96 0h64v16h-64z" fill="#c13f21"/></g></g></svg>