<?xml version="1.0" encoding="UTF-8"?>
<svg width="2000px" height="400px" viewBox="0 0 2000 400" version="1.1" xmlns="http://www.w3.org/2000/svg" xmlns:xlink="http://www.w3.org/1999/xlink">
    <!-- Generator: Sketch 43.2 (39069) - http://www.bohemiancoding.com/sketch -->
    <title>github-login</title>
    <desc>Created with Sketch.</desc>
    <defs>
        <circle id="path-1" cx="10.0272028" cy="10.4563317" r="9.91367151"></circle>
        <path d="M9.16295676,109.300984 C9.16295676,168.22051 56.0473456,215.983981 113.882463,215.983981 C171.71758,215.983981 218.601968,168.22051 218.601968,109.300984 C218.601968,50.3814588 171.71758,2.61798765 113.882463,2.61798765 C56.0473456,2.61798765 9.16295676,50.3814588 9.16295676,109.300984 Z" id="path-3"></path>
        <filter x="-1.9%" y="-1.9%" width="103.8%" height="103.7%" filterUnits="objectBoundingBox" id="filter-4">
            <feOffset dx="4" dy="-8" in="SourceAlpha" result="shadowOffsetInner1"></feOffset>
            <feComposite in="shadowOffsetInner1" in2="SourceAlpha" operator="arithmetic" k2="-1" k3="1" result="shadowInnerInner1"></feComposite>
            <feColorMatrix values="0 0 0 0 0   0 0 0 0 0   0 0 0 0 0  0 0 0 0.169299139 0" type="matrix" in="shadowInnerInner1"></feColorMatrix>
        </filter>
        <path d="M13.8052151,49.063954 C13.8052151,70.8147296 31.218221,88.4471279 52.698361,88.4471279 C74.178501,88.4471279 91.5915069,70.8147296 91.5915069,49.063954 C91.5915069,27.3131785 74.178501,9.68078017 52.698361,9.68078017 C31.218221,9.68078017 13.8052151,27.3131785 13.8052151,49.063954 Z" id="path-5"></path>
        <filter x="-6.4%" y="-6.3%" width="112.9%" height="112.7%" filterUnits="objectBoundingBox" id="filter-6">
            <feOffset dx="-1" dy="-10" in="SourceAlpha" result="shadowOffsetInner1"></feOffset>
            <feComposite in="shadowOffsetInner1" in2="SourceAlpha" operator="arithmetic" k2="-1" k3="1" result="shadowInnerInner1"></feComposite>
            <feColorMatrix values="0 0 0 0 0   0 0 0 0 0   0 0 0 0 0  0 0 0 0.16553442 0" type="matrix" in="shadowInnerInner1"></feColorMatrix>
        </filter>
        <path d="M2.33257195,13.4481916 C-0.839527668,22.1872705 2.68163177,31.7078715 3.62242477,33.7628141 C-1.17983207,41.2558828 -0.356163253,50.6356348 1.63313076,58.3554159 C3.62242477,66.075197 8.2525836,73.8612718 14.3699318,78.1158891 C23.5403096,84.4938893 37.5788575,83.9445286 37.5788575,83.9445286 L37.5788575,85.3307273 C37.5788575,85.3307273 35.0659241,86.2448361 31.3838305,90.0545359 C28.5852398,92.9501143 26.6564076,93.0343265 24.7784559,92.2232475 C23.2020157,91.54239 23.4480877,89.3244206 23.1912497,85.5131871 C23.0049083,82.748055 19.6948698,83.9445286 18.5603015,86.7857819 C16.3728555,92.2637141 18.4548204,97.2695694 22.7851972,99.2026218 C29.802241,102.334985 37.5788575,94.352495 37.5788575,94.352495 C37.5788575,94.352495 38.5008196,100.106065 36.8609143,101.896091 C35.2367056,103.668984 32.9001128,103.326579 30.5968353,101.154693 C29.3130947,99.9441845 27.4739642,100.963647 27.7189503,102.706509 C28.1862964,106.031269 30.6214496,109.196132 34.5955773,109.196132 C39.4787431,109.196132 44.5897306,106.517826 44.3486025,99.6126196 C43.9526269,88.2730352 45.3792623,87.5478197 45.3792623,87.5478197 C45.3792623,87.5478197 45.9228946,92.0329462 47.9946503,100.101711 C49.4282239,105.684979 44.9718882,108.323463 41.7264414,109.449429 C38.9833015,110.401127 37.444514,112.89673 40.8727068,113.674404 C46.2511684,114.89449 50.6988075,113.393224 53.8487121,108.024097 C56.5209277,103.469208 55.0887235,100.65583 53.4652914,92.7920926 C52.7891429,89.5168988 52.7204213,86.1041585 52.7204213,86.1041585 L53.8487121,86.0123507 C53.8487121,86.0123507 53.664353,88.157615 55.5431307,95.2986437 C57.0649735,101.083002 57.8761982,106.006472 55.0790942,111.542515 C54.1034445,113.473526 49.0458059,117.083942 51.9539104,117.823919 C55.0187976,118.60379 59.3279521,117.598869 61.9481222,113.160215 C65.3847098,107.338522 64.2437061,102.519771 62.3938218,94.352495 C61.185576,89.0180655 61.2138246,86.0826927 61.2138246,86.0826927 C61.2138246,86.0826927 64.0800944,87.3638549 64.4130164,90.7949427 C64.9634505,96.4677071 66.3157475,101.154693 70.2424639,103.270401 C75.8917733,106.314238 79.9890464,104.511623 81.7738274,101.896091 C83.0109149,100.083184 83.1672583,96.1666898 81.5965718,95.2986437 C80.4055574,94.640425 79.185944,98.3298412 77.1068663,98.6413723 C74.3518874,99.0541812 71.3960298,97.804039 71.3960298,90.0545359 C71.3960298,82.7588269 67.6962931,78.9180515 67.6962931,78.9180515 C67.6962931,78.9180515 87.6223126,73.8538658 91.7080729,59.651458 C93.9762183,51.7672154 93.7352007,42.3260384 90.8227859,32.5344719 C88.0212216,23.115586 81.1768079,18.2994743 81.1768079,18.2994743 C81.1768079,18.2994743 81.5529599,8.8183374 75.5370058,0.547214121 C67.5317576,-2.09655332 56.5799027,8.42105401 55.0790942,9.65236834 C38.874327,8.88207447 25.2799919,15.4161149 25.2799919,15.4161149 C25.2799919,15.4161149 10.1266992,8.09279158 2.33257195,13.4481916 Z" id="path-7"></path>
        <path d="M14.6890326,178.528242 C14.6890326,277.126891 94.7450969,357.056485 193.499756,357.056485 C292.254416,357.056485 372.31048,277.126891 372.31048,178.528242 C372.31048,79.9295935 292.254416,0 193.499756,0 C94.7450969,0 14.6890326,79.9295935 14.6890326,178.528242 Z" id="path-9"></path>
        <filter x="-2.1%" y="-2.1%" width="104.2%" height="104.2%" filterUnits="objectBoundingBox" id="filter-10">
            <feOffset dx="2" dy="-15" in="SourceAlpha" result="shadowOffsetInner1"></feOffset>
            <feComposite in="shadowOffsetInner1" in2="SourceAlpha" operator="arithmetic" k2="-1" k3="1" result="shadowInnerInner1"></feComposite>
            <feColorMatrix values="0 0 0 0 0   0 0 0 0 0   0 0 0 0 0  0 0 0 0.0543195199 0" type="matrix" in="shadowInnerInner1"></feColorMatrix>
        </filter>
    </defs>
    <g id="Illu-login" stroke="none" stroke-width="1" fill="none" fill-rule="evenodd">
        <g id="BG" transform="translate(45.000000, -155.000000)">
            <g id="Rocket" transform="translate(490.324219, 172.657496)">
                <g id="Path" transform="translate(0.000000, 111.220601)">
                    <path d="M24.1796875,303.610185 C-75.5390625,122.09456 165.647825,5.58186358 165.647825,5.58186358" id="Path-2" stroke="#2E6974" stroke-width="3"></path>
                    <path d="M122.375247,21.354307 C133.665536,17.8706144 167.06583,-2.34247875 168.645465,12.2472124 C170.2251,26.8369036 158.433986,12.6454612 122.445747,24.8103918 C119.502514,25.7515946 119.341649,23.7963877 122.375247,21.354307 Z" id="Warp" fill="#2E6974" transform="translate(144.475810, 16.035419) rotate(-17.000000) translate(-144.475810, -16.035419) "></path>
                </g>
                <g transform="translate(238.213871, 83.608533) rotate(65.000000) translate(-238.213871, -83.608533) translate(194.713871, -20.891467)">
                    <path d="M43.9240217,30.5531652 C47.7545757,38.4985073 58.4993754,78.501018 58.4993754,120.337314 C58.4993754,162.17361 48.5403467,178.980232 48.5403467,178.980232 L37.470948,178.980232 C37.470948,178.980232 27.8568454,161.72647 27.8568454,120.337314 C27.8568454,78.9481585 36.0855262,48.9362434 41.9657875,30.5531652 C41.9657875,22.7842589 43.9240217,22.9065537 43.9240217,30.5531652 Z" id="Base" fill="#31C0A1"></path>
                    <path d="M42.8408074,0 C42.8408074,0 43.9240217,22.9065537 43.9240217,30.5531652 C45.3897011,33.5932802 47.8676582,41.3267132 50.3686579,52.0603927 C45.1231929,53.3877531 41.1541365,53.2857383 35.8480486,52.1670139 C37.8931568,43.7384985 40.0536365,36.5309985 41.9657875,30.5531652 C41.9657875,22.7842589 42.8408074,0 42.8408074,0 Z" id="Path-24" fill="#51E0C1"></path>
                    <path d="M22.5760231,118.391593 L20.5762307,152.12553 L43.1781104,150.352768 C43.1781104,150.352768 42.9441391,154.420403 42.9441391,159.393158 C14.2211666,154.420403 10.6384416,189.516147 3.96237648,207.840833 L0,208.926341 L20.7596686,120.601539 L22.5760231,118.391593 Z" id="Path-25" fill="#24B394"></path>
                    <polygon id="Path-25" fill="#47D6B7" points="22.5760231 118.391593 0 208.926341 18.6704052 118.512276"></polygon>
                    <path d="M57.7308638,140.894701 C57.7308638,140.894701 56.7868867,157.495732 52.4424158,169.881871 C43.2499038,169.881871 38.90573,169.881871 34.1273561,169.881871 C29.0143735,157.495732 28.7185306,140.894701 28.7185306,140.894701 L57.7308638,140.894701 Z" id="Path-24" fill="#008064"></path>
                    <path d="M36.3552751,125.863402 C36.3552751,126.265933 36.6867715,126.585591 37.0774638,126.585591 C37.4799952,126.585591 37.7996525,126.265933 37.7996525,125.863402 L37.7996525,118.85462 C37.7996525,118.452088 37.4918344,118.132431 37.0774638,118.132431 L37.0537855,118.132431 C36.8406806,118.132431 36.6275757,118.179787 36.3434359,118.262662 L35.088485,118.665193 C34.792506,118.748067 34.6030795,118.98485 34.6030795,119.292668 C34.6030795,119.624165 34.8990585,119.908305 35.2423941,119.908305 C35.313429,119.908305 35.4199815,119.896466 35.5028556,119.872787 L36.3552751,119.612326 L36.3552751,125.863402 Z M39.693918,125.650297 L39.693918,125.768689 C39.693918,126.230416 40.0490928,126.585591 40.5344983,126.585591 C41.0080647,126.585591 41.3632395,126.230416 41.3632395,125.768689 L41.3632395,125.650297 C41.3632395,125.18857 41.0080647,124.833395 40.5344983,124.833395 C40.0490928,124.833395 39.693918,125.18857 39.693918,125.650297 Z M43.636358,125.863402 C43.636358,126.265933 43.9678545,126.585591 44.3585468,126.585591 C44.7610782,126.585591 45.0807355,126.265933 45.0807355,125.863402 L45.0807355,118.85462 C45.0807355,118.452088 44.7729173,118.132431 44.3585468,118.132431 L44.3348684,118.132431 C44.1217636,118.132431 43.9086587,118.179787 43.6245189,118.262662 L42.369568,118.665193 C42.073589,118.748067 41.8841625,118.98485 41.8841625,119.292668 C41.8841625,119.624165 42.1801414,119.908305 42.5234771,119.908305 C42.594512,119.908305 42.7010645,119.896466 42.7839386,119.872787 L43.636358,119.612326 L43.636358,125.863402 Z M49.94663,126.644786 C48.1352386,126.644786 46.7855744,125.697654 46.7855744,124.265115 L46.7855744,124.241437 C46.7855744,123.246948 47.3420149,122.619472 48.2773085,122.22878 C47.5787981,121.861766 47.0697142,121.305325 47.0697142,120.381871 L47.0697142,120.358193 C47.0697142,119.091403 48.2891476,118.120592 49.94663,118.120592 C51.6041123,118.120592 52.8235457,119.079564 52.8235457,120.358193 L52.8235457,120.381871 C52.8235457,121.305325 52.3144618,121.861766 51.6159514,122.22878 C52.5275667,122.64315 53.1076855,123.235108 53.1076855,124.217759 L53.1076855,124.241437 C53.1076855,125.721332 51.7580213,126.644786 49.94663,126.644786 Z M49.94663,121.743374 C50.7990494,121.743374 51.4265249,121.234291 51.4265249,120.523941 L51.4265249,120.500263 C51.4265249,119.860948 50.8345669,119.340025 49.94663,119.340025 C49.058693,119.340025 48.466735,119.860948 48.466735,120.488423 L48.466735,120.512102 C48.466735,121.234291 49.0942105,121.743374 49.94663,121.743374 Z M49.94663,125.425353 C51.0358326,125.425353 51.6869864,124.868912 51.6869864,124.182241 L51.6869864,124.158563 C51.6869864,123.400857 50.9292802,122.903612 49.94663,122.903612 C48.9639797,122.903612 48.2181127,123.400857 48.2181127,124.158563 L48.2181127,124.182241 C48.2181127,124.857073 48.8574273,125.425353 49.94663,125.425353 Z" id="1.18" fill="#363D4F" transform="translate(43.855382, 122.382689) rotate(-90.000000) translate(-43.855382, -122.382689) "></path>
                    <g id="Window" transform="translate(43.223523, 84.154672) rotate(-90.000000) translate(-43.223523, -84.154672) translate(33.223523, 73.654672)">
                        <mask id="mask-2" fill="white">
                            <use xlink:href="#path-1"></use>
                        </mask>
                        <use fill="#51E0C1" xlink:href="#path-1"></use>
                        <path d="M6.35053535,23.4988088 C6.89726687,23.5994343 7.09650523,23.2620036 7.09650523,22.9722024 C7.09650523,22.7125888 7.08711352,22.0256525 7.08174683,21.1139861 C4.04218792,21.7740889 3.40086849,19.6488798 3.40086849,19.6488798 C2.90377885,18.386366 2.18732577,18.0502771 2.18732577,18.0502771 C1.195159,17.3727325 2.26245943,17.3861492 2.26245943,17.3861492 C3.35927665,17.4632954 3.93619579,18.5124832 3.93619579,18.5124832 C4.91092082,20.1821946 6.4940943,19.6998633 7.11663031,19.4201246 C7.21591407,18.7144049 7.49833612,18.2327445 7.81027496,17.9597142 C5.38386036,17.6840005 2.83267021,16.7461714 2.83267021,12.5588118 C2.83267021,11.366065 3.25865121,10.3899983 3.95766255,9.62658664 C3.84496207,9.35020212 3.46996462,8.2386265 4.06499635,6.7346117 C4.06499635,6.7346117 4.98202946,6.44078544 7.06967178,7.85490819 C7.94108803,7.61206547 8.87623372,7.49131496 9.80534188,7.4866191 C10.7337792,7.49131496 11.6682541,7.61206547 12.541012,7.85490819 C14.6273126,6.44078544 15.5430041,6.7346117 15.5430041,6.7346117 C16.1393775,8.2386265 15.76438,9.35020212 15.6523504,9.62658664 C16.3527034,10.3899983 16.7753302,11.366065 16.7753302,12.5588118 C16.7753302,16.7569048 14.220115,17.6806463 11.7863212,17.9509933 C12.1780896,18.2884239 12.5275953,18.9552351 12.5275953,19.9742353 C12.5275953,21.4353166 12.5141785,22.6139759 12.5141785,22.9722024 C12.5141785,23.264687 12.7114044,23.604801 13.2655151,23.498138 C10.5039976,24.1232255 9.49981764,24.1443762 6.35053535,23.4988088 Z" id="Fill-50" fill="#005442" mask="url(#mask-2)"></path>
                    </g>
                    <path d="M43.9240217,30.5531652 C47.7545757,38.4985073 58.4993754,78.501018 58.4993754,120.337314 C58.4993754,145.211901 54.9787301,161.238174 52.1239764,170.144521 C42.7292452,170.144521 41.0426003,170.144521 34.3864737,169.782576 C46.4429245,167.062861 44.5699325,142.495989 44.5699325,117.946809 C44.5699325,91.7258451 44.958609,66.7996408 43.4468344,53.0106383 C42.4411384,53.0106383 40.9848769,53.1441927 35.8937426,52.1904392 C49.7483746,50.8040579 44.7269436,34.3997644 43.4468344,30.5531652 C43.4468344,30.5531652 43.9240217,30.5531652 43.9240217,30.5531652 Z" id="Shadow" fill-opacity="0.107478487" fill="#000000"></path>
                    <path d="M75.1102853,118.391593 L73.1104929,152.12553 C73.1104929,152.12553 73.1104929,152.12553 82.8549419,151.361231 C83.7110098,151.361231 85.7829307,151.771181 86.2280553,154.914937 C86.67318,158.058694 85.9203106,159.563644 84.5666928,159.563644 C65.6615281,164.163436 62.213064,192.150199 56.4966387,207.840833 L52.5342622,208.926341 L72.5975097,121.29796 L75.1102853,118.391593 Z" id="Path-25" fill="#31C0A1" transform="translate(69.445242, 163.658967) scale(-1, 1) translate(-69.445242, -163.658967) "></path>
                    <polygon id="Path-25" fill="#039273" transform="translate(75.068209, 163.658967) scale(-1, 1) translate(-75.068209, -163.658967) " points="86.3562209 118.391593 63.7801978 208.926341 82.4506029 118.512276"></polygon>
                </g>
            </g>
            <g id="Planet" transform="translate(458.016335, 452.625000)">
                <g>
                    <use fill="#51E0C1" fill-rule="evenodd" xlink:href="#path-3"></use>
                    <use fill="black" fill-opacity="1" filter="url(#filter-4)" xlink:href="#path-3"></use>
                    <path stroke-opacity="0.08" stroke="#000000" stroke-width="2" d="M10.1629568,109.300984 C10.1629568,50.9296283 56.603831,3.61798765 113.882463,3.61798765 C171.161094,3.61798765 217.601968,50.9296283 217.601968,109.300984 C217.601968,167.67234 171.161094,214.983981 113.882463,214.983981 C56.603831,214.983981 10.1629568,167.67234 10.1629568,109.300984 Z"></path>
                </g>
                <g id="Craters-2" transform="translate(31.415852, 17.016920)" fill-opacity="0.120952219" fill="#000000">
                    <path d="M6.75555963,52.1235429 C6.33694766,59.0950277 9.56400348,65.029491 13.9633905,65.3785376 C18.3627776,65.7275842 22.2685375,60.3590373 22.6871495,53.3875526 C23.1057615,46.4160678 19.8787056,40.4816045 15.4793186,40.1325579 C11.0799315,39.7835113 7.17417159,45.1520581 6.75555963,52.1235429 L6.75555963,52.1235429 L6.75555963,52.1235429 Z M12.5106415,71.8364914 C15.8020849,72.3627034 21.6921559,71.2089321 23.659584,61.640644 C18.3391687,69.5230148 13.2889433,69.2248745 10.0730731,67.6079011 C6.85720286,65.9909277 6.11507642,63.3766126 4.77736226,57.4179668 C3.99368626,67.4852058 9.21919814,71.3102794 12.5106415,71.8364914 L12.5106415,71.8364914 Z" id="Crater-4" transform="translate(14.178968, 56.029188) rotate(17.000000) translate(-14.178968, -56.029188) "></path>
                    <path d="M137.068019,86.6426668 C136.963605,100.853652 144.609612,112.574125 154.145854,112.821076 C163.682096,113.068027 171.497392,101.747941 171.601806,87.5369559 C171.70622,73.3259709 164.060213,61.605498 154.523971,61.3585469 C144.987729,61.1115958 137.172433,72.4316819 137.068019,86.6426668 L137.068019,86.6426668 L137.068019,86.6426668 Z M151.750351,126.097181 C158.915368,126.820596 171.497027,123.856955 174.64693,104.206144 C164.066224,120.783331 153.13096,120.708229 146.004032,117.760298 C138.877104,114.812367 136.975507,109.577723 133.404937,97.6095458 C132.8674,118.149885 144.585335,125.373765 151.750351,126.097181 L151.750351,126.097181 Z" id="Crater-6"></path>
                    <path d="M74.6357741,26.9990899 C85.934276,21.4178972 92.1190619,11.6962936 88.44988,5.28528039 C84.780698,-1.12573277 72.6469929,-1.79843518 61.348491,3.7827575 C50.0499891,9.36395019 43.8652032,19.0855538 47.5343851,25.496567 C51.2035671,31.9075802 63.3372722,32.5802826 74.6357741,26.9990899 L74.6357741,26.9990899 Z M59.6796605,40.0604946 C70.3853267,40.4382936 81.7241463,32.1247527 88.7226967,21.5349008 C78.5434136,32.0375095 65.9213187,34.6936302 59.6260277,34.6413118 C53.3307368,34.5889935 45.0590669,33.2446881 40.7190579,22.1274634 C43.0366001,36.5893998 48.9739943,39.6826956 59.6796605,40.0604946 L59.6796605,40.0604946 Z" id="Crater"></path>
                </g>
                <g id="Pump-4" transform="translate(166.904527, 26.775741) rotate(33.000000) translate(-166.904527, -26.775741) translate(141.404527, 11.775741)">
                    <path d="M25.2659611,29.9403984 C39.2199661,29.9403984 50.5319222,27.6459648 50.5319222,17.9241682 C50.5319222,8.20237152 47.2400775,0.321298187 25.2659611,0.321298187 C3.29184468,0.321298187 1.93732147e-13,8.20237152 1.93732147e-13,17.9241682 C1.93732147e-13,27.6459648 11.3119561,29.9403984 25.2659611,29.9403984 Z" id="Oval-27" fill="#51E0C1"></path>
                    <ellipse id="Oval-28" fill-opacity="0.129076087" fill="#000000" cx="25.882204" cy="9.58442804" rx="18.4872886" ry="5.02939142"></ellipse>
                </g>
            </g>
            <g id="Planet" transform="translate(416.753906, 257.529266)">
                <g>
                    <use fill="#C98C81" fill-rule="evenodd" xlink:href="#path-5"></use>
                    <use fill="black" fill-opacity="1" filter="url(#filter-6)" xlink:href="#path-5"></use>
                    <path stroke-opacity="0.08" stroke="#000000" stroke-width="2" d="M14.8052151,49.063954 C14.8052151,27.8626799 31.7733278,10.6807802 52.698361,10.6807802 C73.6233941,10.6807802 90.5915069,27.8626799 90.5915069,49.063954 C90.5915069,70.2652281 73.6233941,87.4471279 52.698361,87.4471279 C31.7733278,87.4471279 14.8052151,70.2652281 14.8052151,49.063954 Z"></path>
                </g>
                <g id="Craters-4" transform="translate(46.890208, 47.280166) rotate(-220.000000) translate(-46.890208, -47.280166) translate(17.390208, 10.780166)">
                    <path d="M44.6097607,13.5550984 C42.8342043,11.6668902 40.4341442,11.024936 39.2490764,12.1212536 C38.0640085,13.2175712 38.5426941,15.6370075 40.3182504,17.5252157 C42.0938068,19.4134239 44.4938669,20.055378 45.6789347,18.9590604 C46.8640026,17.8627428 46.385317,15.4433066 44.6097607,13.5550984 L44.6097607,13.5550984 L44.6097607,13.5550984 Z M46.1977438,12.5750928 C44.9865639,11.2870684 42.4574013,9.32627761 38.7269513,10.7500379 C42.5012526,10.3453249 44.590817,12.5674637 45.342223,13.3665433 C46.093629,14.1656229 47.5484752,15.7127732 47.0245209,19.1175846 C48.669456,16.342338 47.4089237,13.8631172 46.1977438,12.5750928 L46.1977438,12.5750928 L46.1977438,12.5750928 Z" id="Crater-3" fill-opacity="0.120952219" fill="#000000"></path>
                    <path d="M13.3255065,45.953787 C7.45867013,44.0811388 1.75883155,45.416657 0.59456069,48.9367503 C-0.569710172,52.4568437 3.24247237,56.8285245 9.10930872,58.7011728 C14.9761451,60.573821 20.6759836,59.2383029 21.8402545,55.7182095 C23.0045254,52.1981161 19.1923428,47.8264353 13.3255065,45.953787 L13.3255065,45.953787 Z M23.2092667,46.4236877 C19.7652226,42.6429092 12.8650026,41.7240541 6.56857022,43.0898024 C13.8975865,42.8384976 19.1158425,46.1978134 21.2044509,48.3608974 C23.2930592,50.5239814 25.5612579,53.8178341 22.8649796,59.232927 C27.4869864,53.3224426 26.6533107,50.2044662 23.2092667,46.4236877 L23.2092667,46.4236877 Z" id="Crater-21" fill-opacity="0.120952219" fill="#000000"></path>
                    <path d="M52.8202769,53.9464396 C55.3322658,51.2757244 55.9547029,47.8925165 54.2105291,46.3898332 C52.4663553,44.8871499 49.0160537,45.8340268 46.5040648,48.504742 C43.9920759,51.1754572 43.3696388,54.5586651 45.1138126,56.0613484 C46.8579864,57.5640317 50.308288,56.6171548 52.8202769,53.9464396 L52.8202769,53.9464396 L52.8202769,53.9464396 Z M56.9879972,44.2456658 C55.7718545,43.0149439 52.8937485,41.6542638 48.856836,44.888419 C53.7475154,43.3698847 55.7840637,45.053682 56.6029167,46.6991443 C57.4217698,48.3446066 56.8601208,49.6245783 55.4303343,52.4323772 C59.1335926,48.6311955 58.2041399,45.4763877 56.9879972,44.2456658 L56.9879972,44.2456658 Z" id="Crater-10" fill-opacity="0.120952219" fill="#000000"></path>
                    <path d="M13.646101,11.6981473 C16.1580899,8.97797442 16.780527,5.5321145 15.0363532,4.00160374 C13.2921794,2.47109299 9.84187775,3.43550469 7.32988885,6.15567756 C4.81789996,8.87585044 4.19546285,12.3217104 5.93963667,13.8522211 C7.68381049,15.3827319 11.1341121,14.4183202 13.646101,11.6981473 L13.646101,11.6981473 L13.646101,11.6981473 Z M17.8138213,1.81772953 C16.5976786,0.564216469 13.7195726,-0.821661395 9.68266008,2.47238562 C14.5733395,0.925730247 16.6098878,2.640709 17.4287408,4.31664283 C18.2475939,5.99257665 17.6859449,7.29625154 16.2561584,10.1560467 C19.9594167,6.28447276 19.029964,3.07124259 17.8138213,1.81772953 L17.8138213,1.81772953 Z" id="Crater-11" fill-opacity="0.120952219" fill="#000000"></path>
                    <g id="Pump-2" transform="translate(36.369661, 66.552738) rotate(163.000000) translate(-36.369661, -66.552738) translate(30.369661, 62.552738)">
                        <path d="M5.98149962,7.23897779 C9.28499064,7.23897779 11.9629992,6.69982246 11.9629992,4.41535516 C11.9629992,2.13088787 11.1836832,0.278961219 5.98149962,0.278961219 C0.779315999,0.278961219 -4.84330368e-15,2.13088787 -4.84330368e-15,4.41535516 C-4.84330368e-15,6.69982246 2.6780086,7.23897779 5.98149962,7.23897779 Z" id="Oval-27" fill="#C98C81"></path>
                        <ellipse id="Oval-28" fill-opacity="0.129076087" fill="#000000" cx="6.12738985" cy="2.65911039" rx="4.37670704" ry="1.18182684"></ellipse>
                    </g>
                </g>
            </g>
            <g id="Octonaut" transform="translate(1257.162109, 256.883253)">
                <path d="M187.341086,23.5080345 C206.532646,34.0219414 232.958169,92.5474508 199.510343,128.044817 C166.062517,163.542184 109.754821,138.449664 111.231293,170.086203 C112.707764,201.722742 51.1125161,186.060104 51.1125161,186.060104" id="Line" stroke="#47C4A9" stroke-width="3" stroke-linecap="square" transform="translate(133.309030, 106.722589) rotate(-20.000000) translate(-133.309030, -106.722589) "></path>
                <g id="Octocat" transform="translate(70.008074, 202.783980) rotate(-28.000000) translate(-70.008074, -202.783980) translate(23.008074, 143.283980)">
                    <g id="Body">
                        <mask id="mask-8" fill="white">
                            <use xlink:href="#path-7"></use>
                        </mask>
                        <use id="Path-2" fill="#51E0C1" xlink:href="#path-7"></use>
                        <path d="M24.3677779,83.4455301 C24.3677779,83.4455301 21.6564108,82.8760245 20.9454059,84.2042654 C24.3114459,83.6529233 20.0310443,92.3429609 26.5064094,92.5574543 C26.791373,89.1103686 24.3677779,83.4455301 24.3677779,83.4455301 Z M37.4268769,92.3178624 C37.2261634,94.6553286 37.4268769,96.0804961 37.4268769,96.0804961 L33.9552764,98.9101909 L25.6495361,100.968436 L19.7581399,100.044909 L18.4141027,96.4056212 C18.4141027,96.4056212 21.8942935,100.178327 27.8886069,98.5305755 C33.8829204,96.8828236 35.6891769,94.6553286 37.4268769,92.3178624 Z M45.4350986,87.5740741 C45.1545953,91.1633297 45.4350986,94.9183679 45.4350986,94.9183679 L45.8918664,97.7407973 L46.0692873,102.201732 L42.8851283,107.655875 L36.2688507,110.307898 L25.5433149,108.862751 L27.3446155,103.774848 C27.3446155,103.774848 30.8426474,109.420037 36.2688507,107.364434 C41.6950541,105.308831 42.915194,102.447598 42.4133276,96.7705407 C41.9114612,91.0934832 43.1291233,88.385153 45.4350986,87.5740741 Z M52.5814912,86.1962966 C52.9992726,86.4195414 53.5125376,86.7844609 53.5125376,86.7844609 L55.7349236,99.6798242 L56.1047981,107.566709 L51.8217533,112.251218 L44.5385782,116.454728 L36.0312984,113.935297 L38.2130462,110.578698 C38.2130462,110.578698 38.5951452,114.424223 45.8454463,112.630008 C53.0957473,110.835793 54.836586,106.211718 54.3347196,100.534661 C53.8328532,94.857603 51.6631649,91.2004822 52.5814912,86.1962966 Z M61.1034734,86.2440168 C61.9112834,87.7898884 62.9211285,90.1445274 62.9211285,90.1445274 L67.2591837,113.802044 L53.4553797,121.897147 L46.0365784,117.158642 L51.2680153,113.228905 C51.2680153,113.228905 48.9585708,119.602447 55.5150473,116.276726 C62.0715238,112.951005 63.4229949,109.235431 62.9211285,103.558374 C62.4192621,97.881316 61.1034734,92.2247336 61.1034734,86.2440168 Z M64.7316801,96.2906963 L69.8945605,115.770462 L90.6376008,102.818627 L83.4629597,89.4952679 L78.8789272,95.4373461 C78.8789272,95.4373461 82.0125361,94.0760808 81.6707449,98.4333187 C81.3289537,102.790557 76.7544139,103.952707 72.7448577,103.461612 C67.9159981,102.870168 64.7316801,96.2906963 64.7316801,96.2906963 Z M75.6708148,0.630435581 L92.3189689,-1.27672287 L99.7798952,74.3785191 C99.7798952,74.3785191 81.5379271,82.4916206 74.048587,97.5421556 C67.1705983,96.4368293 75.6851856,78.8989299 58.9222213,81.7502231 C52.291902,82.878006 48.1672805,83.3330821 44.0046637,83.8429786 C39.4060061,84.4062877 38.1887623,85.877281 36.9973665,86.9099536 C36.0002415,85.877281 34.4824178,86.4079829 34.4824178,86.4079829 C34.4824178,86.4079829 15.4864937,82.1498182 9.86783662,78.0392725 C17.074691,78.0392725 14.2881596,78.6670662 21.8789302,78.0392725 C26.2553563,80.4630587 35.9837219,82.5005372 54.182739,78.8014754 C72.3817562,75.1024137 83.2264049,71.3967717 85.4405248,61.0792675 C88.8608148,45.141171 78.2752999,37.9119983 78.2752999,37.9119983 C78.2752999,37.9119983 76.7875419,26.484569 67.1705983,21.9437156 C79.7447836,16.1452934 75.6708148,0.630435581 75.6708148,0.630435581 Z M0.137938922,13.7105704 L15.8684275,3.43404106 L25.2861042,15.6165729 C25.2861042,15.6165729 28.4094709,22.1529251 21.0058677,27.5453124 C20.6852217,9.95173442 0.137938922,13.7105704 0.137938922,13.7105704 Z M55.6531944,7.14152406 C55.6531944,7.14152406 51.1454396,15.9014083 64.1315219,21.0951539 C51.5823839,17.6550033 54.4947949,11.7216765 51.5177921,10.7271471 C47.9156859,9.52378884 44.1802674,8.52920888 43.7489398,7.14152406 C49.7044322,4.72265271 55.6531944,7.14152406 55.6531944,7.14152406 Z" id="Path-4" fill="#000000" opacity="0.22412817" mask="url(#mask-8)"></path>
                        <g id="Lines" mask="url(#mask-8)" fill-rule="nonzero" fill="#000000" opacity="0.327105978">
                            <g transform="translate(16.797958, 85.057472)" id="Line">
                                <path d="M28.1643502,8.41756286 C28.3457617,8.656728 28.6869723,8.99071669 29.1952595,9.31910379 C30.3036878,10.0352217 31.6932423,10.3622908 33.3495586,10.0885789 C34.6054494,9.88103874 35.6349567,9.46980383 36.4558872,8.91194416 C37.2111159,8.39873182 37.6560738,7.87244929 37.856801,7.49544314 L36.984786,7.03029141 C36.9594671,7.07784534 36.8884801,7.18433847 36.7645731,7.3308919 C36.5471688,7.58803097 36.2619178,7.84831725 35.9008696,8.09366593 C35.1984326,8.5710039 34.3033953,8.92852502 33.1886009,9.11274856 C31.7841522,9.34483844 30.6404973,9.07564847 29.7311194,8.48813024 C29.4942755,8.33511344 29.2932199,8.17193293 29.128101,8.01030885 C29.0333813,7.91759394 28.9744264,7.84992917 28.9513419,7.81949552 L28.1643502,8.41756286 Z"></path>
                                <path d="M20.2280747,10.7129003 C20.3501698,10.8511095 20.5868633,11.0135567 20.964484,11.1585539 C21.7565835,11.4627009 22.9156819,11.5863517 24.5158427,11.4459744 C25.8977064,11.3247476 27.0143653,10.8711802 27.8831465,10.1884365 C28.5114218,9.69469781 28.8900467,9.19271312 29.0670943,8.83514293 L28.181746,8.39594955 C28.1582257,8.44345184 28.0955933,8.54677327 27.9894039,8.6875602 C27.8049094,8.9321649 27.5676201,9.1789435 27.2729492,9.41051465 C26.5526568,9.97656623 25.6172276,10.3565214 24.4295701,10.460711 C22.96961,10.5887889 21.9585408,10.4809296 21.3183938,10.2351287 C21.0875423,10.1464873 20.983813,10.075296 20.9683094,10.0577462 L20.2280747,10.7129003 Z"></path>
                                <path d="M36.9607235,7.40305364 C37.1421351,7.64221877 37.4833456,7.97620747 37.9916328,8.30459457 C39.1000611,9.02071251 40.4896157,9.34778157 42.1459319,9.07406972 C43.4018228,8.86652952 44.43133,8.45529461 45.2522605,7.89743494 C46.0074892,7.38422259 46.4524471,6.85794007 46.6531743,6.48093392 L45.7811593,6.01578219 C45.7558405,6.06333612 45.6848534,6.16982925 45.5609464,6.31638268 C45.3435422,6.57352175 45.0582911,6.83380803 44.697243,7.0791567 C43.9948059,7.55649468 43.0997686,7.9140158 41.9849742,8.09823934 C40.5805256,8.33032922 39.4368706,8.06113925 38.5274927,7.47362102 C38.2906488,7.32060422 38.0895932,7.15742371 37.9244743,6.99579963 C37.8297546,6.90308472 37.7707998,6.83541995 37.7477152,6.8049863 L36.9607235,7.40305364 Z"></path>
                                <path d="M46.4337409,7.91030825 C46.6151525,8.14947338 46.9563631,8.48346208 47.4646502,8.81184918 C48.5730785,9.52796712 49.9626331,9.85503618 51.6189493,9.58132433 C52.8748402,9.37378413 53.9043475,8.96254922 54.7252779,8.40468955 C55.4805067,7.89147721 55.9254645,7.36519468 56.1261917,6.98818853 L55.2541768,6.5230368 C55.2288579,6.57059073 55.1578708,6.67708386 55.0339638,6.82363729 C54.8165596,7.08077636 54.5313086,7.34106264 54.1702604,7.58641131 C53.4678234,8.06374929 52.572786,8.42127041 51.4579916,8.60549395 C50.053543,8.83758383 48.909888,8.56839386 48.0005101,7.98087563 C47.7636662,7.82785883 47.5626106,7.66467832 47.3974917,7.50305424 C47.3027721,7.41033933 47.2438172,7.34267456 47.2207327,7.31224091 L46.4337409,7.91030825 Z"></path>
                                <path d="M46.602902,9.93932669 C46.7843135,10.1784918 47.1255241,10.5124805 47.6338112,10.8408676 C48.7422395,11.5569856 50.1317941,11.8840546 51.7881104,11.6103428 C53.0440012,11.4028026 54.0735085,10.9915677 54.894439,10.433708 C55.6496677,9.92049565 56.0946255,9.39421312 56.2953528,9.01720697 L55.4233378,8.55205525 C55.3980189,8.59960917 55.3270319,8.7061023 55.2031248,8.85265574 C54.9857206,9.1097948 54.7004696,9.37008108 54.3394214,9.61542976 C53.6369844,10.0927677 52.7419471,10.4502889 51.6271526,10.6345124 C50.222704,10.8666023 49.0790491,10.5974123 48.1696712,10.0098941 C47.9328273,9.85687727 47.7317717,9.69369677 47.5666528,9.53207269 C47.4719331,9.43935777 47.4129782,9.37169301 47.3898937,9.34125935 L46.602902,9.93932669 Z"></path>
                                <path d="M65.6401596,17.3891177 C65.6657816,17.3268724 65.6978118,17.2290422 65.7279035,17.0995212 C65.9611637,16.095522 65.726758,14.9525107 64.6968279,13.9016146 C64.5245923,13.7258729 64.3320202,13.5560551 64.1185274,13.3925795 C62.7355467,12.3336044 61.4480407,12.1774108 60.3979198,12.5782042 C60.1982184,12.654423 60.0519468,12.7347287 59.9624552,12.7976578 L60.5304723,13.6069494 C60.556193,13.5888631 60.6312681,13.5476455 60.7499701,13.5023412 C61.4879985,13.2206623 62.414543,13.3330659 63.5181496,14.1781188 C63.694945,14.3134945 63.8523936,14.452339 63.9914445,14.5942205 C64.7639598,15.3824616 64.9273004,16.1789451 64.7654694,16.875499 C64.748063,16.9504195 64.7325951,16.9976635 64.7265516,17.0123452 L65.6401596,17.3891177 Z"></path>
                                <path d="M36.6163278,26.9042388 C36.5575996,26.9968935 36.4812343,27.1487675 36.4081426,27.3542263 C35.9839118,28.5467277 36.1986714,29.9429128 37.4674897,31.3248134 C38.7938909,32.7694289 40.1754442,33.1191178 41.3499718,32.8141191 C41.4920664,32.7772202 41.5986556,32.7378332 41.6662142,32.7061726 L41.2472271,31.8104484 C41.2324889,31.8173553 41.1825211,31.8358195 41.1018348,31.8567719 C40.2673419,32.0734712 39.2636497,31.8194238 38.1950263,30.6555603 C37.1874526,29.5581874 37.0321519,28.5485542 37.3390046,27.6859996 C37.3858649,27.5542765 37.4294516,27.4675919 37.4506915,27.4340821 L36.6163278,26.9042388 Z"></path>
                                <path d="M35.2554406,28.0865234 C35.1990174,28.1755415 35.1261097,28.3205392 35.0564755,28.516279 C34.6533176,29.6495449 34.8574105,30.976384 36.0606134,32.2868212 C37.3179797,33.6562492 38.63078,33.9885358 39.747399,33.6985747 C39.8830722,33.6633434 39.9851487,33.6256238 40.0503351,33.5950749 L39.631348,32.6993507 C39.618982,32.7051459 39.5735268,32.7219426 39.4992621,32.7412275 C38.7226777,32.9428892 37.7877385,32.7062441 36.7881501,31.6175682 C35.8461917,30.5916586 35.7015577,29.6513713 35.9873374,28.8480523 C36.0307402,28.7260482 36.0708694,28.6462399 36.0898042,28.6163667 L35.2554406,28.0865234 Z"></path>
                                <path d="M26.7893723,22.5247311 C26.5511583,22.6494234 26.2247737,22.898409 25.9043575,23.2962654 C25.1616618,24.2184607 24.8545126,25.4854243 25.2139018,27.0968716 C25.4765929,28.2747389 25.9639226,29.1539915 26.6164125,29.7647868 C27.2556625,30.3631884 27.9074078,30.6039225 28.3748751,30.6441261 L28.4594648,29.6587165 C28.4098138,29.6544463 28.2926516,29.6301416 28.1309362,29.570409 C27.847483,29.4657104 27.5613088,29.2951332 27.2913502,29.0424251 C26.7874326,28.5707081 26.3985615,27.8690971 26.1782805,26.8813904 C25.8851401,25.566993 26.1178431,24.6071135 26.6736475,23.9169787 C26.8070937,23.7512805 26.9493559,23.6155068 27.0898922,23.5082972 C27.1691722,23.4478177 27.225426,23.4125999 27.2472785,23.4011613 L26.7893723,22.5247311 Z"></path>
                                <path d="M26.024805,22.6670093 C25.6561964,22.7228585 25.1463205,22.9241307 24.6423324,23.3682528 C23.9702364,23.9605141 23.5198856,24.8392372 23.3860062,26.0308932 C23.232426,27.3979059 23.5356197,28.4463333 24.1472768,29.1923743 C24.4589765,29.5725559 24.7793311,29.7975804 25.0170712,29.9030853 L25.4175702,28.9989277 C25.311248,28.9517438 25.1155091,28.8142523 24.9111154,28.5649523 C24.4700418,28.0269728 24.2439355,27.2451093 24.3679324,26.1414167 C24.4746267,25.1917344 24.8091877,24.53894 25.2952723,24.1105947 C25.4972766,23.9325855 25.7129287,23.8054942 25.9268995,23.7210298 C26.0490572,23.6728083 26.1369882,23.6503194 26.172693,23.6449096 L26.024805,22.6670093 Z"></path>
                                <path d="M17.621315,16.9719752 C17.5496145,16.9409299 17.4344708,16.9012582 17.2807603,16.8636593 C16.0931765,16.573166 14.7415636,16.8583798 13.4977639,18.1239814 C13.3436048,18.2808427 13.1931802,18.4515575 13.0466936,18.6364438 C11.7992715,20.2108634 11.6017449,21.6828949 12.0454207,22.8874875 C12.1259147,23.106031 12.2103296,23.2656595 12.2755629,23.3621385 L13.0938876,22.8078003 C13.071248,22.7743167 13.0238537,22.6846939 12.9725384,22.5453715 C12.6450082,21.6561178 12.7937885,20.5473595 13.8209006,19.2510018 C13.945761,19.0934106 14.0729285,18.94909 14.2021866,18.8175663 C15.1816041,17.8209811 16.1750679,17.6113429 17.0461877,17.8244264 C17.1433062,17.8481824 17.2062402,17.8698658 17.2290077,17.8797238 L17.621315,16.9719752 Z"></path>
                                <path d="M16.8721519,16.6433612 C16.7642867,16.5448008 16.581405,16.4147785 16.3264961,16.2892575 C15.2871822,15.7774837 14.0064886,15.8077181 12.5997186,16.70767 C12.253154,16.9293775 11.9523476,17.1669333 11.6952884,17.4187283 C10.7312044,18.3630693 10.4599587,19.3834908 10.5878091,20.2507932 C10.598274,20.3217844 10.6098147,20.3764436 10.6197376,20.4132818 L11.5737849,20.1558146 C11.5736146,20.1551824 11.5700155,20.1381365 11.5653407,20.1064238 C11.5359896,19.9073139 11.5442825,19.654731 11.620165,19.3692625 C11.7321425,18.9480053 11.9746497,18.5289205 12.3863959,18.1256063 C12.5940517,17.9222029 12.8414978,17.7267874 13.1318523,17.5410391 C14.2367778,16.8341859 15.1508693,16.8126062 15.8903135,17.1767197 C16.0551692,17.2578972 16.1630174,17.3345733 16.2059604,17.373812 L16.8721519,16.6433612 Z"></path>
                                <path d="M7.375432,3.45333198 C7.28976521,3.25236094 7.10459834,2.990888 6.78679922,2.74104128 C6.07952773,2.18499991 5.032216,1.96365766 3.6171889,2.22830884 C2.60963112,2.41675141 1.8159373,2.75440468 1.21512562,3.2036419 C0.602572609,3.66165831 0.28865479,4.14127386 0.177500133,4.49631266 L1.12040229,4.79206716 C1.12770201,4.76875115 1.16116354,4.69591526 1.23125674,4.5888242 C1.36041752,4.39148747 1.54800313,4.18927665 1.80648273,3.996007 C2.2830194,3.63969235 2.93613513,3.36184382 3.79868111,3.20052266 C4.9447043,2.98618304 5.70267978,3.14637602 6.17645084,3.51884447 C6.35229628,3.65709031 6.44196428,3.78370992 6.46658418,3.84146724 L7.375432,3.45333198 Z"></path>
                                <path d="M7.55277097,2.04009061 C7.44679147,1.79737397 7.22488635,1.46691087 6.85467229,1.14250738 C6.08736656,0.470148631 5.01233213,0.149630753 3.62357667,0.359457414 C2.49787015,0.529540086 1.6574179,0.948946996 1.07561165,1.54813919 C0.5875496,2.05078585 0.367548232,2.56469816 0.308975767,2.93861737 L1.28516473,3.09181869 C1.29008998,3.06037652 1.31285064,2.97699769 1.36326488,2.85923253 C1.45293122,2.64977639 1.58977996,2.43768951 1.78420163,2.23745799 C2.21244195,1.7964207 2.85483274,1.47585147 3.77106028,1.33741891 C4.87053669,1.17129934 5.65397812,1.40487975 6.20380881,1.88667398 C6.35064453,2.01534014 6.46851685,2.15249916 6.55942795,2.28788478 C6.61037876,2.36376119 6.63896552,2.4169664 6.64735162,2.43617245 L7.55277097,2.04009061 Z"></path>
                                <path d="M67.7200248,16.2188296 C67.7340159,16.1712242 67.751253,16.097049 67.7673091,15.9990328 C67.9165695,15.0878596 67.7115784,14.038448 66.885765,13.0549814 C66.5362262,12.6387134 66.0880131,12.2583115 65.5347392,11.9200619 C63.9156224,10.9301982 62.4936106,10.8694527 61.3667186,11.3875564 C61.1019798,11.5092736 60.9132437,11.6360439 60.8026043,11.7326139 L61.4520247,12.4780426 C61.495132,12.4404169 61.6060825,12.3658938 61.7791633,12.2863175 C62.6123542,11.9032468 63.686632,11.9491378 65.0196847,12.7641132 C65.4836699,13.0477753 65.850035,13.3587122 66.1293402,13.6913386 C66.7497644,14.4302057 66.8983702,15.1909644 66.7922144,15.8390021 C66.7829867,15.8953336 66.7749399,15.9299609 66.772075,15.9397087 L67.7200248,16.2188296 Z"></path>
                                <path d="M28.0999065,10.6652855 C28.3191603,10.8515194 28.7138777,11.1145468 29.2698052,11.3734303 C30.5444015,11.9669824 32.0321585,12.2221262 33.6878806,11.9485125 C34.8985411,11.7484468 35.8815261,11.3880438 36.6578464,10.9097112 C37.4311625,10.4332297 37.870825,9.93832016 38.0589031,9.57737271 L37.1827893,9.12000263 C37.1639117,9.15623136 37.1021258,9.24729614 36.9875228,9.37629989 C36.7818112,9.6078608 36.5029583,9.84373504 36.1398602,10.0674592 C35.4747047,10.4772972 34.6131468,10.79318 33.5269229,10.9726821 C32.0799662,11.2117966 30.7902087,10.9906089 29.6866171,10.4766899 C29.4109647,10.3483245 29.1700682,10.2114021 28.9662739,10.0755999 C28.8483958,9.99704955 28.7719468,9.93895275 28.739247,9.91117754 L28.0999065,10.6652855 Z"></path>
                                <path d="M19.3035332,12.1870493 C19.522787,12.3732832 19.9175044,12.6363106 20.4734319,12.8951941 C21.7480282,13.4887463 23.2357851,13.74389 24.8915073,13.4702764 C26.1021678,13.2702106 27.0851528,12.9098076 27.8614731,12.4314751 C28.6347892,11.9549936 29.0744517,11.460084 29.2625298,11.0991365 L28.386416,10.6417665 C28.3675384,10.6779952 28.3057525,10.76906 28.1911495,10.8980637 C27.9854379,11.1296246 27.7065849,11.3654989 27.3434869,11.589223 C26.6783314,11.999061 25.8167734,12.3149438 24.7305496,12.494446 C23.2835929,12.7335604 21.9938354,12.5123727 20.8902438,11.9984538 C20.6145914,11.8700884 20.3736949,11.7331659 20.1699006,11.5973637 C20.0520224,11.5188134 19.9755735,11.4607166 19.9428736,11.4329414 L19.3035332,12.1870493 Z"></path>
                                <path d="M37.0654409,9.65077629 C37.2846947,9.83701018 37.679412,10.1000375 38.2353396,10.3589211 C39.5099359,10.9524732 40.9976928,11.207617 42.653415,10.9340033 C43.8640755,10.7339376 44.8470605,10.3735346 45.6233808,9.89520202 C46.3966969,9.4187205 46.8363593,8.92381094 47.0244375,8.56286348 L46.1483237,8.10549341 C46.129446,8.14172214 46.0676601,8.23278692 45.9530572,8.36179067 C45.7473456,8.59335158 45.4684926,8.82922582 45.1053946,9.05294998 C44.4402391,9.46278793 43.5786811,9.77867076 42.4924573,9.95817292 C41.0455006,10.1972874 39.7557431,9.97609965 38.6521514,9.46218072 C38.376499,9.33381531 38.1356026,9.19689284 37.9318083,9.06109065 C37.8139301,8.98254032 37.7374812,8.92444353 37.7047813,8.89666832 L37.0654409,9.65077629 Z"></path>
                            </g>
                        </g>
                        <g id="Dots" mask="url(#mask-8)" fill="#000000" opacity="0.332144475">
                            <g transform="translate(20.750419, 86.541032)" id="Oval-4">
                                <ellipse cx="6.65366701" cy="7.55469786" rx="1.18412718" ry="1"></ellipse>
                                <ellipse transform="translate(3.270446, 6.709274) rotate(38.000000) translate(-3.270446, -6.709274) " cx="3.27044649" cy="6.70927351" rx="1.18412718" ry="1"></ellipse>
                                <ellipse transform="translate(1.288988, 4.064055) rotate(72.000000) translate(-1.288988, -4.064055) " cx="1.2889876" cy="4.06405547" rx="1.18412718" ry="1"></ellipse>
                                <ellipse transform="translate(9.867726, 6.032934) rotate(-31.000000) translate(-9.867726, -6.032934) " cx="9.86772649" cy="6.03293402" rx="1.18412718" ry="1"></ellipse>
                                <ellipse transform="translate(12.405142, 3.834831) rotate(-43.000000) translate(-12.405142, -3.834831) " cx="12.4051419" cy="3.83483071" rx="1.18412718" ry="1"></ellipse>
                                <ellipse transform="translate(14.604235, 1.467643) rotate(-43.000000) translate(-14.604235, -1.467643) " cx="14.6042352" cy="1.46764253" rx="1.18412718" ry="1"></ellipse>
                            </g>
                        </g>
                    </g>
                    <g id="Window" transform="translate(9.794778, 28.078364)">
                        <ellipse id="Oval-2" fill="#FFFFFF" transform="translate(56.073323, 23.881176) rotate(-11.000000) translate(-56.073323, -23.881176) " cx="56.0733234" cy="23.8811763" rx="6.70165287" ry="9.53559336"></ellipse>
                        <ellipse id="Oval-2" fill="#000000" transform="translate(56.073323, 23.881176) rotate(-11.000000) translate(-56.073323, -23.881176) " cx="56.0733234" cy="23.8811763" rx="4.3263835" ry="6.16016208"></ellipse>
                        <ellipse id="Oval-2" fill="#FFFFFF" transform="translate(20.783607, 28.775552) rotate(-11.000000) translate(-20.783607, -28.775552) " cx="20.783607" cy="28.7755516" rx="6.70165287" ry="9.53559336"></ellipse>
                        <ellipse id="Oval-2" fill="#000000" transform="translate(20.783607, 28.606780) rotate(-11.000000) translate(-20.783607, -28.606780) " cx="20.783607" cy="28.6067801" rx="4.3263835" ry="6.16016208"></ellipse>
                        <ellipse id="Oval-3" fill="#000000" cx="38.8526204" cy="34.429399" rx="1.69662098" ry="1.68771564"></ellipse>
                        <path d="M35.8358495,39.4171416 C36.6316218,40.6137429 37.9765717,41.3490332 39.4464378,41.3490332 C41.3227501,41.3490332 42.9676328,40.1500726 43.5516602,38.4070072 C43.6405453,38.1417243 43.4964118,37.8549926 43.2297291,37.7665741 C42.9630464,37.6781555 42.6748017,37.8215325 42.5859166,38.0868154 C42.1394367,39.419362 40.8813252,40.3364038 39.4464378,40.3364038 C38.3218556,40.3364038 37.2940699,39.7745087 36.6848588,38.858439 C36.5297632,38.6252221 36.2139763,38.5612323 35.9795288,38.7155138 C35.7450814,38.8697953 35.6807539,39.1839247 35.8358495,39.4171416 Z" id="Oval-3" fill="#000000" fill-rule="nonzero"></path>
                        <path d="M38.8526204,48.9437535 C58.5299962,48.9437535 74.481661,47.6245563 74.481661,27.4253791 C74.481661,15.5411091 58.5299962,5.90700474 38.8526204,5.90700474 C19.1752447,5.90700474 3.22357986,15.5411091 3.22357986,27.4253791 C3.22357986,45.9294488 19.1752447,48.9437535 38.8526204,48.9437535 Z" id="Oval" fill="#C98C81" opacity="0.772418478" transform="translate(38.852620, 27.425379) rotate(-10.000000) translate(-38.852620, -27.425379) "></path>
                        <path d="M64.7658549,15.1538405 C71.7395636,21.9755739 69.644303,32.8956215 65.6201301,36.8294493 C60.0805724,42.2446407 54.4428208,44.9278474 35.0733309,47.8236641 C40.4942338,36.8294493 55.6263035,17.4048972 64.7658549,15.1538405 Z" id="Rectangle-2" fill="#FFFFFF" opacity="0.154891304"></path>
                        <path d="M31.1353146,10.2535318 C35.2128382,8.74579518 39.2366798,8.75535451 39.2366798,8.75535451 C39.2366798,8.75535451 22.8291619,23.4142526 14.5226779,46.1349596 C12.3946116,45.4592141 10.6181301,43.1992574 10.6181301,43.1992574 C10.6181301,43.1992574 14.1714244,28.2188033 31.1353146,10.2535318 Z" id="Rectangle-2" fill="#FFFFFF" opacity="0.541610054"></path>
                        <path d="M19.2417364,14.8410198 C23.1555627,12.4366842 27.9080896,10.6513975 27.9080896,10.6513975 C27.9080896,10.6513975 15.0982699,21.258954 9.48152658,41.4386931 C8.30350166,39.7407588 7.81472902,37.4412463 7.81472902,37.4412463 C7.81472902,37.4412463 11.9306918,22.9255732 19.2417364,14.8410198 Z" id="Rectangle-2" fill="#FFFFFF" opacity="0.541610054"></path>
                    </g>
                </g>
            </g>
            <g id="Planet" transform="translate(1105.769531, 0.995988)">
                <g>
                    <use fill="#C98C81" fill-rule="evenodd" xlink:href="#path-9"></use>
                    <use fill="black" fill-opacity="1" filter="url(#filter-10)" xlink:href="#path-9"></use>
                    <path stroke-opacity="0.08" stroke="#000000" stroke-width="2" d="M15.6890326,178.528242 C15.6890326,80.4822324 95.2970281,1 193.499756,1 C291.702484,1 371.31048,80.4822324 371.31048,178.528242 C371.31048,276.574252 291.702484,356.056485 193.499756,356.056485 C95.2970281,356.056485 15.6890326,276.574252 15.6890326,178.528242 Z"></path>
                </g>
                <g id="Pump-5" transform="translate(121.737537, 325.170633) rotate(208.000000) translate(-121.737537, -325.170633) translate(80.737537, 301.670633)">
                    <path d="M40.9010682,46.8740902 C63.4901045,46.8740902 81.8021365,43.2441446 81.8021365,27.8636197 C81.8021365,12.4830948 76.4732292,0.0147158986 40.9010682,0.0147158986 C5.32890728,0.0147158986 3.48872763e-13,12.4830948 3.48872763e-13,27.8636197 C3.48872763e-13,43.2441446 18.312032,46.8740902 40.9010682,46.8740902 Z" id="Oval-27" fill="#C98C81"></path>
                    <ellipse id="Oval-28" fill-opacity="0.129076087" fill="#000000" cx="41.8986553" cy="14.6695996" rx="29.9276109" ry="7.95682966"></ellipse>
                </g>
                <g id="Pump-9" transform="translate(28.579363, 200.232826) rotate(-97.000000) translate(-28.579363, -200.232826) translate(-12.420637, 176.732826)">
                    <path d="M40.9010682,46.8740902 C63.4901045,46.8740902 81.8021365,43.2441446 81.8021365,27.8636197 C81.8021365,12.4830948 76.4732292,0.0147158986 40.9010682,0.0147158986 C5.32890728,0.0147158986 3.10109123e-13,12.4830948 3.10109123e-13,27.8636197 C3.10109123e-13,43.2441446 18.312032,46.8740902 40.9010682,46.8740902 Z" id="Oval-27" fill="#C98C81"></path>
                    <ellipse id="Oval-28" fill-opacity="0.129076087" fill="#000000" cx="41.8986553" cy="14.6695996" rx="29.9276109" ry="7.95682966"></ellipse>
                </g>
                <g id="Craters-7" transform="translate(57.626205, 32.202879)" fill-opacity="0.120952219" fill="#000000">
                    <path d="M149.118192,273.402109 C133.170904,273.402109 120.243072,265.500371 120.243072,255.753083 C120.243072,246.005795 133.170904,238.104057 149.118192,238.104057 C165.065481,238.104057 177.993313,246.005795 177.993313,255.753083 C177.993313,265.500371 165.065481,273.402109 149.118192,273.402109 Z M146.909321,284.440584 C136.03102,284.440584 119.566311,279.730625 113.904707,261.01614 C127.093706,277.40385 140.160513,277.40385 146.909321,277.40385 C153.658128,277.40385 172.425703,277.40385 186.368226,259.128083 C177.211591,281.42596 157.787621,284.440584 146.909321,284.440584 Z" id="Crater"></path>
                    <path d="M18.0700094,241.889911 C25.6533958,244.35293 33.022313,242.592102 34.5289465,237.956991 C36.0355801,233.32188 31.1093986,227.567709 23.5260122,225.10469 C15.9426258,222.641671 8.5737086,224.4025 7.06707502,229.037611 C5.56044143,233.672721 10.4866229,239.426892 18.0700094,241.889911 L18.0700094,241.889911 Z M15.3134166,246.797863 C20.486356,248.47799 30.1889717,250.044434 37.9897821,240.855383 C28.5348422,247.392639 19.6103299,244.494034 16.4010812,243.451697 C13.1918326,242.409361 6.97819678,240.391225 3.23949519,230.561398 C3.03905888,240.335086 10.1404773,245.117737 15.3134166,246.797863 L15.3134166,246.797863 Z" id="Crater-15" transform="translate(20.612563, 236.036043) rotate(19.000000) translate(-20.612563, -236.036043) "></path>
                    <path d="M188.576449,158.831767 C188.442683,166.334067 198.238108,172.521569 210.455144,172.65194 C222.67218,172.782311 232.684484,166.806183 232.818251,159.303883 C232.952017,151.801583 223.156592,145.614081 210.939556,145.48371 C198.72252,145.353339 188.710216,151.329468 188.576449,158.831767 L188.576449,158.831767 L188.576449,158.831767 Z M207.386226,179.660696 C216.565446,180.042603 232.684017,178.47803 236.71941,168.103923 C223.164293,176.855395 209.154947,176.815747 200.024522,175.259467 C190.894097,173.703188 188.45793,170.939701 183.883614,164.62143 C183.194968,175.465139 198.207006,179.278789 207.386226,179.660696 L207.386226,179.660696 Z" id="Crater-23"></path>
                </g>
            </g>
            <g id="Stars" transform="translate(0.000000, 157.000000)">
                <circle id="Oval-3" fill="#C98C81" opacity="0.295120018" cx="276.171875" cy="84" r="3"></circle>
                <circle id="Oval-3" fill="#C98C81" opacity="0.561424366" cx="229.28125" cy="274.746094" r="3.5"></circle>
                <circle id="Oval-3" fill="#C98C81" opacity="0.295120018" cx="1837.30078" cy="84.5" r="3.5"></circle>
                <circle id="Oval-3" fill="#C98C81" opacity="0.935631793" cx="1855.30859" cy="331.113281" r="3"></circle>
                <circle id="Oval-3" fill="#C98C81" opacity="0.186594203" cx="383.460938" cy="282.246094" r="4"></circle>
                <circle id="Oval-3" fill="#C98C81" opacity="0.536005435" cx="1218" cy="45" r="3"></circle>
                <circle id="Oval-3" fill="#C98C81" opacity="0.536288496" cx="517.410156" cy="39" r="3"></circle>
                <circle id="Oval-3" fill="#C98C81" opacity="0.179177989" cx="1239.5" cy="248.5" r="2.5"></circle>
                <circle id="Oval-3" fill="#C98C81" cx="94.8398438" cy="173.914062" r="2.5"></circle>
                <circle id="Oval-3" fill="#C98C81" opacity="0.153192935" cx="39.6601562" cy="301" r="5"></circle>
                <circle id="Oval-3" fill="#C98C81" cx="1028.4375" cy="61.5" r="2.5"></circle>
                <circle id="Oval-3" fill="#C98C81" opacity="0.694859601" cx="3.5625" cy="50" r="3"></circle>
                <circle id="Oval-3" fill="#C98C81" opacity="0.331634964" cx="1633.20703" cy="125.480469" r="5.5"></circle>
                <circle id="Oval-3" fill="#C98C81" opacity="0.22826087" cx="1121.50391" cy="363.5" r="2"></circle>
                <circle id="Oval-3" fill="#51E0C1" opacity="0.46557971" cx="1517.62891" cy="309.5" r="3.5"></circle>
                <circle id="Oval-3" fill="#51E0C1" opacity="0.441236413" cx="601" cy="240" r="2"></circle>
                <circle id="Oval-3" fill="#51E0C1" cx="918.5" cy="83.5" r="2.5"></circle>
                <circle id="Oval-3" fill="#51E0C1" opacity="0.1875" cx="1796.10938" cy="224.5" r="3.5"></circle>
                <circle id="Oval-3" fill="#51E0C1" cx="1900.94141" cy="192.601562" r="2"></circle>
                <circle id="Oval-3" fill="#51E0C1" cx="197.03125" cy="299" r="2"></circle>
                <circle id="Oval-3" fill="#51E0C1" cx="1640.70703" cy="298" r="2"></circle>
            </g>
        </g>
    </g>
</svg>