<?xml version="1.0" encoding="UTF-8"?>
<svg width="1423px" height="237px" viewBox="0 0 1423 237" version="1.1" xmlns="http://www.w3.org/2000/svg" xmlns:xlink="http://www.w3.org/1999/xlink">
    <!-- Generator: Sketch 43.2 (39069) - http://www.bohemiancoding.com/sketch -->
    <title>Bottom</title>
    <desc>Created with Sketch.</desc>
    <defs></defs>
    <g id="Illu" stroke="none" stroke-width="1" fill="none" fill-rule="evenodd">
        <g id="BG" transform="translate(-118.000000, -2747.000000)">
            <g id="Bottom" transform="translate(118.000000, 2245.000000)">
                <g transform="translate(0.000000, 502.000000)">
                    <g id="Planet">
                        <g id="Back" transform="translate(70.854301, 39.204149)" fill="#2E6974">
                            <polygon id="Mountains-Back" points="173.587904 62.5166824 191.899369 73.9547178 236.342526 35.8782085 280.722942 66.6138912 310.926653 44.7878969 337.684895 73.9547178 350.043342 62.5166824 396.891788 110.039272 413.17337 105.397136 427.261561 117.359865 446.326119 111.924403 485.164191 121.555853 511.492095 111.924403 527.785983 125.528767 552.363241 105.397136 578.503561 117.359865 627.083243 110.039272 655.365826 117.359865 681.769281 111.924403 699.911501 117.359865 746.01016 100.531926 811.705091 121.555853 845.465061 121.555853 866.07148 100.531926 899.344918 125.528767 979.286177 90.3019475 1009.90351 105.397136 1028.18739 90.3019475 1066.77528 128.128677 1140.24726 111.924403 1287.03632 167.334914 0.376167767 167.334914 41.8410115 101.606561 74.5558553 125.528767 146.07381 111.924403"></polygon>
                            <g id="Smoke-Back" transform="translate(886.466106, 0.193799)">
                                <ellipse id="Oval-2" cx="19.7735137" cy="67.8981818" rx="19.7735137" ry="19.8036364"></ellipse>
                                <ellipse id="Oval-2" cx="50.4930796" cy="67.5445455" rx="29.3071721" ry="29.3518182"></ellipse>
                                <ellipse id="Oval-2" cx="126.05615" cy="59.0572727" rx="29.3071721" ry="29.3518182"></ellipse>
                                <ellipse id="Oval-2" cx="341.093111" cy="36.0709091" rx="21.8921044" ry="21.9254545"></ellipse>
                                <ellipse id="Oval-2" cx="360.093111" cy="103.070909" rx="21.8921044" ry="21.9254545"></ellipse>
                                <ellipse id="Oval-2" cx="288.834539" cy="26.1690909" rx="26.1292859" ry="26.1690909"></ellipse>
                                <ellipse id="Oval-2" cx="248.834539" cy="60.1690909" rx="26.1292859" ry="26.1690909"></ellipse>
                                <ellipse id="Oval-2" cx="353.319203" cy="67.0963636" rx="21.8703194" ry="21.9036364"></ellipse>
                                <ellipse id="Oval-2" cx="333.835174" cy="105.596364" rx="32.3543482" ry="32.4036364"></ellipse>
                            </g>
                        </g>
                        <g id="Front" fill="#51E0C1">
                            <path d="M147.624774,173.278844 L202.11788,110.486693 L249.431064,141.995223 L303.062121,100.929077 L319.338997,110.486693 L343.737842,65.3550799 L408.873582,139.956007 L433.11714,126.028029 L468.618205,180.771619 L654.639202,170.771619 L670.655698,165.482255 L677.475768,170.771619 L757.402964,170.771619 L768.971828,165.482255 L798.32338,170.771619 L906.221848,179.771619 L979.585938,150.798653 L1002.50195,149.683284 L1052.15293,177.72147 L1085.33097,157.051005 L1114.72566,150.487607 L1138.99784,165.482255 L1198.78734,149.683284 L1280.69531,165.482255 L1343.53826,190.771619 L1423,237 L0,237 L74.5273438,184.792969 L147.624774,173.278844 Z" id="Mountains"></path>
                            <path d="M134.45178,228.722821 C88.2391604,217.413969 128.980533,165.606156 143.833474,101.687986 C164.184801,11.4878476 224.855036,18.7430412 224.855036,18.7430412 C265.166647,21.2401332 283.227493,6.17552702 283.227493,6.17552702 C313.976273,-11.9981147 300.208886,16.5447959 300.208886,16.5447959 C284.346921,45.1316256 248.786707,47.4966817 248.786707,47.4966817 C191.483909,52.7361255 184.645894,101.416038 184.345915,121.724497 C184.416758,157.894094 180.664399,240.031674 134.45178,228.722821 Z M168.884925,113.082692 C171.520134,113.768035 174.41875,111.297436 175.440525,107.515677 C176.407997,103.786235 175.118439,100.150997 172.472727,99.4368678 C169.905962,98.7714966 166.942542,101.265627 165.972782,104.999974 C164.995225,108.802352 166.30537,112.39344 168.884925,113.082692 Z M175.563169,88.7303895 C177.990215,89.8621399 181.30769,87.8914434 182.879051,84.3420711 C184.466762,80.770462 183.759254,77.0542751 181.287991,75.9019058 C178.862296,74.8185641 175.54152,76.7578597 173.973461,80.3386328 C172.375247,83.8814557 173.077582,87.67287 175.563169,88.7303895 Z M188.641644,65.3140789 C190.684907,67.1149292 194.411888,66.1772769 196.984057,63.3036182 C199.611542,60.4139484 200.076013,56.5574539 198.057314,54.7680585 C196.029465,52.9982855 192.28512,53.9218682 189.705751,56.7981415 C187.153572,59.6930663 186.658948,63.5116106 188.641644,65.3140789 Z M208.520789,47.7087113 C209.491822,50.2697191 213.272393,51.0770668 216.858789,49.6199671 C220.480253,48.2031087 222.603227,44.9587362 221.576279,42.4791558 C220.542469,40.0142921 216.806375,39.1500449 213.210828,40.6267669 C209.583776,42.01713 207.484691,45.2487532 208.520789,47.7087113 Z M232.495399,39.406747 C232.922853,41.863586 236.086857,43.3389853 239.613473,42.7797095 C243.09418,42.1393041 245.602276,39.7493818 245.192524,37.3187146 C244.789636,34.8733305 241.620719,33.3956403 238.136033,33.9804405 C234.642197,34.5848631 232.07421,37.0006076 232.495399,39.406747 Z M255.024629,35.6923508 C255.667525,37.7897884 258.585145,38.6904329 261.58167,37.728693 C264.555917,36.7505926 266.419027,34.358522 265.791546,32.2921617 C265.128062,30.2388744 262.192739,29.3120582 259.22078,30.285253 C256.273645,31.1923843 254.37656,33.6701408 255.024629,35.6923508 Z M275.486242,24.4443244 C273.490525,26.0817778 272.852996,28.6033992 274.027585,29.9454297 C275.158712,31.3806661 277.759678,31.1004519 279.731765,29.3982294 C281.743494,27.7264369 282.402963,25.2090739 281.18712,23.8657232 C280.033118,22.4795426 277.460954,22.7492984 275.486242,24.4443244 Z" id="Left-arm"></path>
                        </g>
                    </g>
                    <g id="Rocket" transform="translate(960.000000, 10.000000)" fill="#51E0C1">
                        <g id="Smoke" transform="translate(0.717172, 0.907193)">
                            <ellipse id="Oval-17" cx="152.373737" cy="111.795824" rx="28.6363636" ry="28.5661253"></ellipse>
                            <ellipse id="Oval-17" cx="195.105728" cy="150" rx="43.1057283" ry="43"></ellipse>
                            <ellipse id="Oval-17" cx="294.64384" cy="139.490189" rx="54.6438397" ry="54.5098111"></ellipse>
                            <ellipse id="Oval-17" cx="109.105728" cy="155" rx="43.1057283" ry="43"></ellipse>
                            <ellipse id="Oval-17" cx="94.040404" cy="103.684455" rx="48.7878788" ry="48.6682135"></ellipse>
                            <ellipse id="Oval-17" cx="102.878788" cy="54.6635731" rx="21.5656566" ry="21.512761"></ellipse>
                            <ellipse id="Oval-17" cx="43.8383838" cy="46.5522042" rx="15.5555556" ry="15.5174014"></ellipse>
                            <ellipse id="Oval-17" cx="40.6565657" cy="123.786543" rx="40.6565657" ry="40.5568445"></ellipse>
                            <ellipse id="Oval-17" cx="283.5" cy="85.3431223" rx="29.5" ry="29.4276434"></ellipse>
                            <ellipse id="Oval-17" cx="320.5" cy="69.4472655" rx="21.5" ry="21.4472655"></ellipse>
                            <ellipse id="Oval-17" cx="342.666932" cy="151.866092" rx="33.3330675" ry="33.2513092"></ellipse>
                            <ellipse id="Oval-17" cx="296.969697" cy="10.5800464" rx="10.6060606" ry="10.5800464"></ellipse>
                            <ellipse id="Oval-17" cx="340.676768" cy="105.135433" rx="28.3232323" ry="28.253762"></ellipse>
                            <ellipse id="Oval-17" cx="225.247807" cy="119.180974" rx="27.247807" ry="27.1809745"></ellipse>
                        </g>
                    </g>
                </g>
            </g>
        </g>
    </g>
</svg>