<?xml version="1.0" encoding="UTF-8"?>
<svg width="164px" height="163px" viewBox="0 0 164 163" version="1.1" xmlns="http://www.w3.org/2000/svg" xmlns:xlink="http://www.w3.org/1999/xlink">
    <!-- Generator: Sketch 43.2 (39069) - http://www.bohemiancoding.com/sketch -->
    <title>Planet</title>
    <desc>Created with Sketch.</desc>
    <defs>
        <path d="M7,83.5 C7,128.511309 42.81712,165 87,165 C131.18288,165 167,128.511309 167,83.5 C167,38.488691 131.18288,2 87,2 C42.81712,2 7,38.488691 7,83.5 Z" id="path-1"></path>
        <filter x="-4.1%" y="-4.0%" width="108.1%" height="108.0%" filterUnits="objectBoundingBox" id="filter-2">
            <feOffset dx="4" dy="-13" in="SourceAlpha" result="shadowOffsetInner1"></feOffset>
            <feComposite in="shadowOffsetInner1" in2="SourceAlpha" operator="arithmetic" k2="-1" k3="1" result="shadowInnerInner1"></feComposite>
            <feColorMatrix values="0 0 0 0 0   0 0 0 0 0   0 0 0 0 0  0 0 0 0.169299139 0" type="matrix" in="shadowInnerInner1"></feColorMatrix>
        </filter>
    </defs>
    <g id="Illu" stroke="none" stroke-width="1" fill="none" fill-rule="evenodd">
        <g id="BG" transform="translate(-138.000000, -825.000000)">
            <g id="Top">
                <g id="Planet" transform="translate(135.000000, 823.000000)">
                    <g>
                        <use fill="#51E0C1" fill-rule="evenodd" xlink:href="#path-1"></use>
                        <use fill="black" fill-opacity="1" filter="url(#filter-2)" xlink:href="#path-1"></use>
                        <path stroke-opacity="0.08" stroke="#000000" stroke-width="4" d="M9,83.5 C9,39.58503 43.9300908,4 87,4 C130.069909,4 165,39.58503 165,83.5 C165,127.41497 130.069909,163 87,163 C43.9300908,163 9,127.41497 9,83.5 Z"></path>
                    </g>
                    <g id="Craters-2" transform="translate(24.000000, 13.000000)" fill-opacity="0.120952219" fill="#000000">
                        <path d="M5.16087968,39.8195484 C4.84108293,45.1453832 7.30637785,49.6789899 10.66727,49.9456425 C14.0281621,50.2122952 17.01195,46.1110177 17.3317468,40.7851829 C17.6515435,35.4593482 15.1862486,30.9257414 11.8253565,30.6590888 C8.46446432,30.3924362 5.48067643,34.4937137 5.16087968,39.8195484 L5.16087968,39.8195484 L5.16087968,39.8195484 Z M9.55744886,54.8791676 C12.0719324,55.2811649 16.5716259,54.3997465 18.0746338,47.0900954 C14.0101262,53.1117975 10.1520291,52.8840345 7.69527932,51.6487549 C5.23852958,50.4134753 4.67158539,48.4162808 3.64964462,43.8641999 C3.05095882,51.5550223 7.04296535,54.4771702 9.55744886,54.8791676 L9.55744886,54.8791676 Z" id="Crater-4" transform="translate(10.831960, 42.803249) rotate(17.000000) translate(-10.831960, -42.803249) "></path>
                        <path d="M104.712503,66.1902794 C104.632736,77.046698 110.473869,86.0005011 117.759039,86.1891583 C125.044208,86.3778155 131.014669,77.7298862 131.094435,66.8734675 C131.174202,56.0170488 125.333069,47.0632458 118.047899,46.8745886 C110.76273,46.6859314 104.792269,55.3338607 104.712503,66.1902794 L104.712503,66.1902794 L104.712503,66.1902794 Z M115.929005,96.3313796 C121.402687,96.8840296 131.01439,94.6199692 133.420745,79.6078192 C125.337661,92.2718879 116.983715,92.2145141 111.53913,89.9624553 C106.094545,87.7103965 104.641828,83.7114136 101.914107,74.5683777 C101.503459,90.2600781 110.455322,95.7787296 115.929005,96.3313796 L115.929005,96.3313796 Z" id="Crater-6"></path>
                        <path d="M68.6977295,124.847416 C60.2253454,124.847416 53.3571211,120.574881 53.3571211,115.304442 C53.3571211,110.034003 60.2253454,105.761468 68.6977295,105.761468 C77.1701135,105.761468 84.0383379,110.034003 84.0383379,115.304442 C84.0383379,120.574881 77.1701135,124.847416 68.6977295,124.847416 Z M67.5242128,130.816011 C61.7448517,130.816011 52.9975755,128.269298 49.989711,118.150221 C56.996687,127.011191 63.9387451,127.011191 67.5242128,127.011191 C71.1096805,127.011191 81.0804101,127.011191 88.4877135,117.129333 C83.6230294,129.185979 73.3035739,130.816011 67.5242128,130.816011 Z" id="Crater-5"></path>
                        <path d="M57.0176671,20.6258345 C65.6491073,16.3621072 70.3739469,8.93533136 67.5708918,4.03766641 C64.7678366,-0.859998537 55.4983466,-1.37390655 46.8669064,2.88982074 C38.2354662,7.15354804 33.5106266,14.5803238 36.3136818,19.4779888 C39.116737,24.3756537 48.3862269,24.8895618 57.0176671,20.6258345 L57.0176671,20.6258345 Z M45.5920108,30.6040364 C53.7705568,30.8926542 62.4327975,24.5415617 67.7793089,16.4514915 C60.002891,24.4749126 50.3602978,26.5040442 45.5510383,26.4640759 C40.7417788,26.4241075 34.4226734,25.3971314 31.1071429,16.9041771 C32.8776189,27.952309 37.4134648,30.3154186 45.5920108,30.6040364 L45.5920108,30.6040364 Z" id="Crater"></path>
                    </g>
                    <g id="Pump-3" transform="translate(13.500000, 101.000000) rotate(255.000000) translate(-13.500000, -101.000000) translate(-2.000000, 92.000000)">
                        <path d="M15.5,18 C24.0604136,18 31,16.6056361 31,10.6975451 C31,4.78945407 28.9805402,-9.45140064e-16 15.5,0 C2.01945979,9.58581314e-16 0,4.78945407 0,10.6975451 C0,16.6056361 6.93958638,18 15.5,18 Z" id="Oval-27" fill="#51E0C1"></path>
                        <ellipse id="Oval-28" fill-opacity="0.129076087" fill="#000000" cx="15.253065" cy="5.13030615" rx="11.3269231" ry="3"></ellipse>
                    </g>
                    <g id="Pump-4" transform="translate(127.500000, 20.500000) rotate(33.000000) translate(-127.500000, -20.500000) translate(108.000000, 9.000000)">
                        <path d="M19.3018184,22.872834 C29.9619184,22.872834 38.6036368,21.1200117 38.6036368,13.6930884 C38.6036368,6.26616519 36.0888468,0.245454319 19.3018184,0.245454319 C2.51479008,0.245454319 1.93732147e-13,6.26616519 1.93732147e-13,13.6930884 C1.93732147e-13,21.1200117 8.64171846,22.872834 19.3018184,22.872834 Z" id="Oval-27" fill="#51E0C1"></path>
                        <ellipse id="Oval-28" fill-opacity="0.129076087" fill="#000000" cx="19.7725945" cy="7.32198111" rx="14.1232818" ry="3.84218117"></ellipse>
                    </g>
                </g>
            </g>
        </g>
    </g>
</svg>